<?xml version="1.0" encoding="UTF-8"?><svg id="Capa_1" xmlns="http://www.w3.org/2000/svg" width="184.99" height="176.5" viewBox="0 0 184.99 176.5"><defs><style>.cls-1{fill:#fff;}</style></defs><g><path class="cls-1" d="m65.77,21.5c2.06,3,4.21,6.45,3.83,10.25s-3.16,6.6-4.79,9.85c-4.09,8.17-1.53,16.16,3.78,23.03,3.93,5.08,10.96-2.04,7.07-7.07-2.64-3.41-3.92-7.44-1.95-11.45,1.56-3.19,3.82-5.84,4.96-9.27,2.38-7.19-.15-14.4-4.27-20.39-3.62-5.27-12.29-.28-8.63,5.05h0Z"/><path class="cls-1" d="m87.27,21.5c2.06,3,4.21,6.45,3.83,10.25s-3.16,6.6-4.79,9.85c-4.09,8.17-1.53,16.16,3.78,23.03,3.93,5.08,10.96-2.04,7.07-7.07-2.64-3.41-3.92-7.44-1.95-11.45,1.56-3.19,3.82-5.84,4.96-9.27,2.38-7.19-.15-14.4-4.27-20.39-3.62-5.27-12.29-.28-8.63,5.05h0Z"/><path class="cls-1" d="m108.77,21.5c2.06,3,4.21,6.45,3.83,10.25s-3.16,6.6-4.79,9.85c-4.09,8.17-1.53,16.16,3.78,23.03,3.93,5.08,10.96-2.04,7.07-7.07-2.64-3.41-3.92-7.44-1.95-11.45,1.56-3.19,3.82-5.84,4.96-9.27,2.38-7.19-.15-14.4-4.27-20.39-3.62-5.27-12.29-.28-8.63,5.05h0Z"/></g><g><g><path class="cls-1" d="m39.99,144.54c0-19.44,0-38.87,0-58.31,0-2.66-.8-6.38,1.89-7.98s6.62-.37,7.28,2.75c.17.82,0,1.85,0,2.68,0,10.68,0,21.36,0,32.04,0,9.6,0,19.21,0,28.81,0,6.43,10,6.45,10,0,0-20.86.49-41.77,0-62.62-.43-17.98-28.27-19.03-29.17-.88-.49,9.86,0,19.86,0,29.72,0,11.26,0,22.52,0,33.78,0,6.43,10,6.45,10,0h0Z"/><path class="cls-1" d="m68.32,85.64c0,19.44,0,38.87,0,58.31,0,2.66.8,6.38-1.89,7.98s-6.62.37-7.28-2.75c-.17-.82,0-1.85,0-2.68v-32.04c0-9.6,0-19.21,0-28.81,0-6.43-10-6.45-10,0,0,20.86-.49,41.77,0,62.62.43,17.98,28.27,19.03,29.17.88.49-9.86,0-19.86,0-29.72,0-11.26,0-22.52,0-33.78,0-6.43-10-6.45-10,0h0Z"/></g><g><path class="cls-1" d="m78.32,144.54c0-19.44,0-38.87,0-58.31,0-2.66-.8-6.38,1.89-7.98s6.62-.37,7.28,2.75c.17.82,0,1.85,0,2.68v32.04c0,9.6,0,19.21,0,28.81,0,6.43,10,6.45,10,0,0-20.86.49-41.77,0-62.62-.43-17.98-28.27-19.03-29.17-.88-.49,9.86,0,19.86,0,29.72,0,11.26,0,22.52,0,33.78,0,6.43,10,6.45,10,0h0Z"/><path class="cls-1" d="m106.65,85.64c0,19.44,0,38.87,0,58.31,0,2.66.8,6.38-1.89,7.98s-6.62.37-7.28-2.75c-.17-.82,0-1.85,0-2.68,0-10.68,0-21.36,0-32.04,0-9.6,0-19.21,0-28.81,0-6.43-10-6.45-10,0,0,20.86-.49,41.77,0,62.62.43,17.98,28.27,19.03,29.17.88.49-9.86,0-19.86,0-29.72,0-11.26,0-22.52,0-33.78,0-6.43-10-6.45-10,0h0Z"/></g><g><path class="cls-1" d="m116.65,144.54c0-19.44,0-38.87,0-58.31,0-2.66-.8-6.38,1.89-7.98s6.62-.37,7.28,2.75c.17.82,0,1.85,0,2.68v32.04c0,9.6,0,19.21,0,28.81,0,6.43,10,6.45,10,0,0-20.86.49-41.77,0-62.62-.43-17.98-28.27-19.03-29.17-.88-.49,9.86,0,19.86,0,29.72,0,11.26,0,22.52,0,33.78,0,6.43,10,6.45,10,0h0Z"/><path class="cls-1" d="m144.99,85.64c0,19.44,0,38.87,0,58.31,0,2.66.8,6.38-1.89,7.98s-6.62.37-7.28-2.75c-.17-.82,0-1.85,0-2.68,0-10.68,0-21.36,0-32.04,0-9.6,0-19.21,0-28.81,0-6.43-10-6.45-10,0,0,20.86-.49,41.77,0,62.62.43,17.98,28.27,19.03,29.17.88.49-9.86,0-19.86,0-29.72,0-11.26,0-22.52,0-33.78,0-6.43-10-6.45-10,0h0Z"/></g></g></svg>