<?xml version="1.0" encoding="UTF-8"?><svg id="Capa_1" xmlns="http://www.w3.org/2000/svg" width="184.99" height="176.5" viewBox="0 0 184.99 176.5"><defs><style>.cls-1{fill:#fff;}</style></defs><path class="cls-1" d="m81.98,49.27c.1,7.66-1.9,14.35-8.53,18.99-1.6,1.13-3.35,1.96-5.21,2.43-1.85.47-2.51,1.48-2.37,3.36.43,5.85.75,11.72,1.14,17.58.66,9.89,1.37,19.77,1.99,29.66.68,10.9,1.38,21.8,1.88,32.7.24,5.23-2.82,9.47-7.43,11.08-4.58,1.6-9.37.18-12.64-3.75-1.81-2.17-2.43-4.71-2.27-7.46.61-10.63,1.22-21.25,1.88-31.88.64-10.26,1.36-20.51,2.03-30.76.37-5.68.69-11.36,1.13-17.03.15-1.97-.55-2.92-2.48-3.57-8.37-2.83-13.21-9.6-13.57-18.47-.45-11.17,2.66-21.4,8.11-31.02,1.36-2.41,3.09-4.55,5.14-6.44,5.63-5.18,12.46-5.14,18.01.09,2.44,2.3,4.37,4.97,5.92,7.9,4.4,8.31,7.12,17.09,7.28,26.57Z"/><path class="cls-1" d="m128.45,27.68c0-4.13.01-8.27,0-12.4,0-2.16.19-4.3,3.03-4.25,2.64.05,2.86,2.07,2.85,4.15-.02,8.08-.01,16.17,0,24.25,0,.83,0,1.65.06,2.48.04.68.26,1.34,1.07,1.36.79.02,1.1-.63,1.15-1.3.09-1,.16-2.02.08-3.02-.58-7.62-.14-15.24-.27-22.86-.01-.64.01-1.29.11-1.92.29-1.81,1.14-3.15,3.17-3.16,1.92,0,2.82,1.25,3.02,2.96.53,4.56.98,9.12,1.44,13.68,1.04,10.32,2.07,20.63,3.1,30.95.09.91.19,1.83.23,2.74.3,7.58-2.6,10.57-10.24,10.57-5.69,0-5.51-.01-5.05,5.69.82,10.15,1.39,20.32,2.06,30.49.87,13.09,1.74,26.18,2.58,39.28.16,2.56.29,5.14.21,7.71-.17,5.99-5.07,10.53-11.2,10.52-6.15,0-11.21-4.57-11.07-10.6.19-8.25.77-16.5,1.28-24.74.6-9.71,1.33-19.41,1.98-29.11.55-8.24,1.02-16.48,1.61-24.72.32-4.4.3-4.51-4.08-4.51-.55,0-1.1,0-1.65,0-6.77-.02-10.02-3.28-9.59-10.11.42-6.59,1.19-13.16,1.84-19.73.84-8.49,1.71-16.98,2.57-25.47.09-.91.19-1.83.35-2.73.33-1.87,1.34-3.07,3.37-2.85,1.91.21,2.56,1.56,2.59,3.31,0,.73.01,1.47.01,2.2,0,7.81-.03,15.62.03,23.42,0,1.15-.65,3.14,1.08,3.19,1.74.05,1.24-1.94,1.25-3.11.05-7.9.03-15.8.03-23.7,0-.73,0-1.47.02-2.2.08-1.93.97-3.2,3.03-3.13,1.9.07,2.73,1.29,2.78,3.1.02.83.02,1.65.02,2.48,0,7.99,0,15.98.01,23.98,0,1.77.19,3.37,2.57,3.39,2.38.02,2.58-1.51,2.57-3.33-.03-4.32,0-8.63,0-12.95Z"/></svg>