<?xml version="1.0" encoding="UTF-8"?><svg id="Capa_2" xmlns="http://www.w3.org/2000/svg" width="24.76" height="24.76" viewBox="0 0 24.76 24.76"><defs><style>.cls-1{fill:#fff;}</style></defs><g id="Capa_1-2"><g><path class="cls-1" d="m23.9,19.65C18.41,14.17,12.93,8.69,7.45,3.21c-.78-.78-1.56-1.56-2.34-2.34C4-.25,1.96-.33.86.86S-.32,3.92.86,5.11c5.48,5.48,10.96,10.96,16.45,16.45.78.78,1.56,1.56,2.34,2.34,1.11,1.11,3.15,1.19,4.24,0s1.19-3.06,0-4.24h0Z"/><path class="cls-1" d="m19.65.86C14.17,6.35,8.69,11.83,3.21,17.31c-.78.78-1.56,1.56-2.34,2.34-1.11,1.11-1.19,3.15,0,4.24s3.06,1.19,4.24,0c5.48-5.48,10.96-10.96,16.45-16.45.78-.78,1.56-1.56,2.34-2.34,1.11-1.11,1.19-3.15,0-4.24s-3.06-1.19-4.24,0h0Z"/></g></g></svg>