<?xml version="1.0" encoding="utf-8"?>
<!-- Generator: Adobe Illustrator 19.0.0, SVG Export Plug-In . SVG Version: 6.00 Build 0)  -->
<svg version="1.1" id="Capa_1" xmlns="http://www.w3.org/2000/svg" xmlns:xlink="http://www.w3.org/1999/xlink" x="0px" y="0px"
	 viewBox="38 12 156 150" style="enable-background:new 38 12 156 150;" xml:space="preserve">
<style type="text/css">
	.st0{fill:#009AAE;}
</style>
<g>
	<path class="st0" d="M37.7,12v150h156.5V12H37.7z M137,60.4c-0.4,0-0.7,0-1,0c-2.5,0-5-0.1-7.5,0c-3.4,0.1-6,1.4-6.1,5.7
		c-0.1,3.1-0.1,10.3-0.1,10.3s8,0,11.5,0c0.9,0,1.8,0,2.8,0c-0.7,4.9-1.3,9.7-1.9,14.5h-12.3v36.3h-15.1V90.8H95V76.4h12.4v-1.1
		c0-2.9-0.1-5.8,0-8.7c0-1.9,0.1-3.7,0.4-5.6c0.8-4.4,2.8-8.2,6.5-10.8c3.2-2.3,6.9-3.3,10.8-3.3c2.6-0.1,5.1,0.1,7.7,0.2
		c1.4,0.1,2.8,0.3,4.1,0.4C137,47.4,137,60.4,137,60.4z"/>
</g>
</svg>
