<?xml version="1.0" encoding="UTF-8"?><svg id="Capa_1" xmlns="http://www.w3.org/2000/svg" width="190" height="190" viewBox="0 0 190 190"><defs><style>.cls-1{fill:#fff;}.cls-2{fill:none;}</style></defs><rect class="cls-2" width="190" height="190"/><g><path class="cls-1" d="m57.1,131.49c-.02-9.2-.02-18.4,0-27.6,0-1.71-.44-4.21.19-5.82.75-1.89,2.11-2.19,3.78-3.1,2.51-1.37,4.39-3.03,5.82-5.55,4.3-7.57,7.84-14.66,13.9-21.13s12.6-10.71,18.97-16.15c5.27-4.5,8.39-10.37,9.47-17.19.59-3.77.11-7.97,1.45-11.57,1.78-4.77,8.64-6.31,12.37-3.02,6.79,5.98,6,18.63,3.6,26.34-2.44,7.79-7.06,14.58-9.86,22.19-5.49,14.92,20.33,9.55,28,9.52s17.81.65,22.32,8.03-2.99,13.1-1.44,20.63c.68,3.31,3.09,6.02,3.75,9.3,1.14,5.71-3.59,6.96-5.84,10.87-1.28,2.22-.5,3.98.47,6.17,2.43,5.53,1.77,9.63-2.38,14.11-2.07,2.24-4.1,4.14-4.93,7.17-1.01,3.69-.49,7.48-3.04,10.65-4,4.95-11.47,5.32-17.32,5.49-9.99.3-20,.76-29.99.38s-20.5-1.54-30.73-2.51c-4.83-.46-16.85,1.23-18.3-4.47-1.19-4.67-.14-11-.17-15.84-.03-5.64-.06-11.27-.07-16.91,0-2.9-4.52-2.91-4.51,0,.01,5.31.04,10.61.07,15.92.03,5.59-.54,11.59.15,17.14s5.4,7.27,10.65,7.91c7.83.95,15.84,1.14,23.7,1.89,10.81,1.02,21.6,1.69,32.46,1.48,8.39-.16,17.27.28,25.55-1.28,5.67-1.07,11.15-3.73,13.8-9.12,1.97-4.01,1-8.81,3.73-12.48,2.3-3.1,5.23-4.93,6.6-8.73,1.22-3.38,1.18-7.2-.11-10.56-.23-.59-.75-1.35-.87-1.86-.45-1.96.33-2.74,1.21-4.1,1.06-1.62,2.47-2.75,3.33-4.55,1.33-2.78,1.6-5.69.71-8.64-.48-1.58-1.26-3.02-1.96-4.51-1.81-3.87-1.77-6.17-.23-10.01,2.68-6.68,2.7-12.94-2.44-18.55s-13.06-7.15-20.34-7.47c-3.96-.17-7.93.01-11.89.17s-10.99,2.06-14.49.11c-3.9-2.18,2.02-10.57,3.42-13.5,2-4.17,3.97-8.41,5.36-12.84,2.51-7.99,2.57-16.43-.65-24.25-2.81-6.82-7.76-10.86-15.34-9.1s-9.23,8.1-9.77,15.2c-.4,5.23-1.25,10.36-4.39,14.73-3.53,4.92-9.16,8-13.78,11.78-7.86,6.44-14.91,14.05-20.02,22.88-2.97,5.14-3.98,9.71-9.54,12.49-2.53,1.27-4.07,2.94-4.64,5.76-.96,4.78-.28,10.22-.29,15.06,0,6.34,0,12.69.01,19.03,0,2.9,4.52,2.91,4.51,0Z"/><path class="cls-1" d="m39.34,169.27c-4.55,0-15.86,2.07-18.34-3.05-1.52-3.14-.55-8.57-.55-11.85v-42.8c0-3.31-.99-8.67.55-11.85,1.81-3.74,6.33-3.05,9.73-3.05,2.81,0,5.83-.33,8.62,0,6.75.79,5.44,7.91,5.44,12.78v44.92c0,4.98,1.71,14.32-5.44,14.9-2.98.24-3,4.92,0,4.67,7.68-.62,10.12-6.43,10.12-13.17v-48.83c0-4.4.96-10.52-1.19-14.59-3.86-7.32-14.53-5.5-21.37-5.36s-11.04,4.86-11.13,11.74c-.2,15.83,0,31.68,0,47.51,0,4.96-1.21,12.09.95,16.78,3.78,8.22,15.3,5.92,22.62,5.92,3.01,0,3.01-4.67,0-4.67Z"/></g></svg>