<?xml version="1.0" encoding="UTF-8"?><svg id="Capa_1" xmlns="http://www.w3.org/2000/svg" width="190" height="190" viewBox="0 0 190 190"><defs><style>.cls-1{fill:#fff;}.cls-2{fill:none;}</style></defs><g><path class="cls-1" d="m158.08,156.83c-15.09-5.5-31.83-6.58-47.04-.86-12.59,4.74-23.49,11.04-37.39,10.48-7.78-.31-15.43-2.29-22.67-5.1-2.17-.84-5.92-1.75-7.67-3.4-1.21-1.14-1.24-2.23-1.61-3.94-.86-3.98-1.64-7.98-2.34-12-3.27-18.83-4.65-38-4.19-57.11.48-19.99,3.05-39.86,7.55-59.34l-3.67,1.49c17.63,8.14,36.66,11.29,55.44,5.29,9.66-3.09,18.75-7.22,28.94-8.38,11.24-1.28,22.52.09,33.31,3.34l-1.75-3.08c-8.64,44.8-8.64,90.85,0,135.66.61,3.16,5.43,1.82,4.82-1.33-8.46-43.88-8.46-89.12,0-133,.26-1.35-.37-2.66-1.75-3.08-9.4-2.84-19.22-4.32-29.05-3.94-10.39.41-19.93,3.22-29.61,6.78-8.47,3.12-16.96,5.37-26.05,5.29-11.08-.1-21.79-3.26-31.79-7.88-1.39-.64-3.28-.21-3.67,1.49-8.54,37.04-10.07,75.43-4.35,113.01.6,3.98,1.29,7.94,2.06,11.9.58,3.01.7,8.87,2.55,11.34s6.94,3.83,9.89,5.04c4.37,1.79,8.88,3.27,13.49,4.3,12.98,2.9,25.78,1.77,38.01-3.43,8.44-3.59,16.38-7.66,25.61-8.83,10.75-1.36,21.47.39,31.58,4.07,3.03,1.1,4.33-3.73,1.33-4.82Z"/><path class="cls-1" d="m52.94,50.91c12.03,5.49,24.94,7.82,37.81,3.91,6.25-1.9,12.15-4.71,18.67-5.7,8.11-1.23,16.3-.29,24.12,2.05,3.09.92,4.41-3.9,1.33-4.82-13.23-3.95-26.32-3.27-39.23,1.47-13.98,5.13-26.46,5.04-40.17-1.22-2.91-1.33-5.45,2.98-2.52,4.32h0Z"/><path class="cls-1" d="m50.92,70.6c12.03,5.49,24.94,7.82,37.81,3.91,6.25-1.9,12.15-4.71,18.67-5.7,8.11-1.23,16.3-.29,24.12,2.05,3.09.92,4.41-3.9,1.33-4.82-13.23-3.95-26.32-3.27-39.23,1.47-13.98,5.13-26.46,5.04-40.17-1.22-2.91-1.33-5.45,2.98-2.52,4.32h0Z"/><path class="cls-1" d="m49.34,88.01c12.03,5.49,24.94,7.82,37.81,3.91,6.25-1.9,12.15-4.71,18.67-5.7,8.11-1.23,16.3-.29,24.12,2.05,3.09.92,4.41-3.9,1.33-4.82-13.23-3.95-26.32-3.27-39.23,1.47-13.98,5.13-26.46,5.04-40.17-1.22-2.91-1.33-5.45,2.98-2.52,4.32h0Z"/></g><rect class="cls-2" width="190" height="190"/></svg>