<?xml version="1.0" encoding="utf-8"?>
<!-- Generator: Adobe Illustrator 19.0.0, SVG Export Plug-In . SVG Version: 6.00 Build 0)  -->
<svg version="1.1" id="Capa_1" xmlns="http://www.w3.org/2000/svg" xmlns:xlink="http://www.w3.org/1999/xlink" x="0px" y="0px"
	 viewBox="38 12 156 150" style="enable-background:new 38 12 156 150;" xml:space="preserve">
<style type="text/css">
	.st0{fill:#009AAE;}
</style>
<g>
	<path class="st0" d="M135.4,56.1c-6.6-1-31.2-0.9-38-0.2c-6.7,0.8-11.2,4.9-12.2,11.6c-1.1,7.1-0.9,33.7,0,39
		c0.9,5.6,4.1,9.4,9.6,10.9c5.8,1.6,33.6,1.2,39.8,0.6c6.8-0.8,11.3-4.9,12.3-11.7c1-6.8,0.8-31.6,0.1-37.9
		C146.3,61.7,142.1,57.2,135.4,56.1z M116,106.8c-10.9,0-19.8-8.9-19.8-19.8c0-11,8.8-19.8,19.8-19.8c10.9,0,19.8,8.9,19.8,19.8
		C135.8,98,126.9,106.8,116,106.8z M136.6,71.1c-2.6,0-4.6-2-4.6-4.6c0-2.6,2.1-4.7,4.7-4.7c2.6,0,4.6,2.1,4.6,4.7
		C141.2,69,139.1,71.1,136.6,71.1z"/>
	<path class="st0" d="M116.1,74.2c-7.1,0-12.9,5.7-12.9,12.8c0,7.1,5.7,12.8,12.7,12.9c7.2,0,12.9-5.7,12.9-12.8
		C128.8,79.9,123.1,74.2,116.1,74.2z"/>
	<path class="st0" d="M37.7,12v150h156.5V12H37.7z M153.5,109.3c-2.3,8.8-8,14-16.9,15.4c-6.7,1.1-36.7,1.3-42.8-0.3
		c-8.8-2.3-14-8-15.5-16.8c-1.1-6.5-1.4-36.8,0.4-43.3c2.4-8.5,8.1-13.6,16.7-15c7.6-1.2,29.1-0.9,38.2-0.4c5.3,0.3,10.2,2,14.2,5.8
		c3.8,3.6,5.7,8.1,6.3,13.2C154.6,73.8,155.2,102.6,153.5,109.3z"/>
</g>
</svg>
