<?xml version="1.0" encoding="UTF-8"?><svg id="Capa_1" xmlns="http://www.w3.org/2000/svg" width="184.99" height="176.5" viewBox="0 0 184.99 176.5"><defs><style>.cls-1{fill:#fff;}</style></defs><g><path class="cls-1" d="m19.25,85.51c4.96-7.7,11.86-13.78,20.34-17.32,2.92-1.22,1.64-6.06-1.33-4.82-9.75,4.08-17.6,10.73-23.33,19.62-1.75,2.71,2.58,5.22,4.32,2.52h0Z"/><path class="cls-1" d="m60.81,65.4c9.39,1.45,17.62,5.48,24.58,11.95,2.35,2.19,5.9-1.34,3.54-3.54-7.54-7.01-16.57-11.66-26.78-13.23-3.15-.49-4.5,4.33-1.33,4.82h0Z"/><path class="cls-1" d="m99.89,103.3c13.92,22.44-22.08,36.98-38.29,39.34-11.13,1.62-22.91,1.06-33.51-2.93-10.82-4.08-20.45-13.01-16.57-25.5.96-3.08-3.87-4.4-4.82-1.33-3.91,12.58,3.3,23.32,14.31,29.1,12.48,6.55,27.52,7.55,41.26,5.58,19.89-2.85,58.1-20.73,41.94-46.79-1.69-2.73-6.02-.22-4.32,2.52h0Z"/><path class="cls-1" d="m59.33,64.45c1.02,8.21,2.03,16.43,3.05,24.64l2.16,17.47c.35,2.8,1.35,6.22,1.12,9.05-.35,4.26-2.9,4.79-6.3,5.21-2.22.27-4.63.88-6.86.85-5.63-.08-5.09-6.06-5.58-10.05-1.42-11.47-2.84-22.93-4.26-34.4-.4-3.24-1.15-6.64-1.23-9.91-.11-5.02,4.5-4.92,8.15-5.37s8.58-1.96,9.83,3.18c.76,3.12,5.59,1.8,4.82-1.33-2.2-9-10.33-7.38-17.34-6.51-6,.74-10.81,3.56-10.41,10.4.71,12.22,3.04,24.55,4.54,36.69.57,4.64.98,9.34,1.73,13.95,1.25,7.74,7.34,8.64,13.83,7.84s14.5-1.73,14.08-10.55c-.2-4.09-1.02-8.26-1.53-12.32-1.6-12.95-3.21-25.89-4.81-38.84-.39-3.15-5.4-3.19-5,0Z"/><path class="cls-1" d="m14.94,82.99c-2.62,4.33-4.71,8.95-6.04,13.85-.61,2.23-1.04,4.51-1.36,6.8-.38,2.77.15,6.7-.84,9.24-.43,1.11.32,2.2,1.15,2.82,10.97,8.25,26.26,9.63,39.51,9.33,3.21-.07,3.22-5.07,0-5-12.48.28-26.66-.88-36.99-8.65l1.15,2.82c1.65-4.24.71-9.89,1.79-14.46,1.2-5.07,3.25-9.79,5.94-14.24,1.67-2.76-2.65-5.28-4.32-2.52h0Z"/><path class="cls-1" d="m85.39,77.34c3.68,3.64,6.79,7.7,9.19,12.3,2.18,4.18,2.66,9.92,5.31,13.66l.39-3.03c-8.13,10.06-21.62,14.63-33.8,17.4-3.14.71-1.81,5.54,1.33,4.82,12.92-2.94,27.39-8.02,36.01-18.69.65-.81,1.07-2.07.39-3.03-1.52-2.14-1.82-5.6-2.78-8.07s-2.01-4.72-3.27-6.96c-2.49-4.42-5.63-8.39-9.23-11.95-2.29-2.26-5.83,1.27-3.54,3.54h0Z"/></g><g><path class="cls-1" d="m104.7,110.36c4.84.38,10.91.4,11.88-5.56.66-4.09.66-8.39.98-12.52l-2.5,2.5c5.35-.56,11.3.71,16.7.88,6.24.2,12.49.1,18.68-.8,11.11-1.6,20.76-6.26,26.78-16.01l-2.16,1.24,1,.08-2.5-2.5c-.77,9.74-1.54,19.48-2.31,29.22-.49,6.23-.98,12.47-1.48,18.7-.35,4.43-.33,9.05-2.4,13.1-5.61,10.96-17.33,8.16-27.21,7.38-13.39-1.06-26.79-2.11-40.18-3.17-9.52-.75-19.04-1.5-28.57-2.25-3.21-.25-3.19,4.75,0,5,22.79,1.8,45.58,3.59,68.37,5.39,9.55.75,19.9,3.08,27.66-4.23,8.41-7.92,7.36-21.61,8.2-32.23.97-12.3,1.94-24.6,2.91-36.91.11-1.42-1.24-2.4-2.5-2.5l-1-.08c-.87-.07-1.72.53-2.16,1.24-6.02,9.75-16.36,13.18-27.31,14.09-5.34.45-10.71.39-16.06.16-4.68-.2-9.83-1.29-14.47-.8-1.43.15-2.38,1.03-2.5,2.5-.24,3.06-.48,6.13-.72,9.19-.12,1.49.09,2.74-.9,3.65-1.18,1.08-4.7.36-6.24.24-3.21-.25-3.19,4.75,0,5h0Z"/><path class="cls-1" d="m39.47,65.2c-5.84-13.78,1.01-34.46,18.27-33.22,9.2.66,18.4,1.45,27.6,2.17,24.56,1.93,49.12,3.87,73.68,5.8,4.76.38,9.07,1.1,12.71,4.69,8.57,8.42,6.46,22.21,1.17,31.68-1.57,2.81,2.75,5.34,4.32,2.52,4.63-8.3,7-18.6,3.99-27.9-2.77-8.55-9.71-14.76-18.7-15.71s-17.56-1.38-26.32-2.07c-26.38-2.08-52.78-4.69-79.2-6.24-21.19-1.25-28.79,24.39-21.83,40.81,1.25,2.95,5.56.41,4.32-2.52h0Z"/><path class="cls-1" d="m172.9,76.32c-6.02,9.75-16.36,13.18-27.31,14.09-5.34.45-10.71.39-16.06.16-4.68-.2-9.83-1.29-14.47-.8-1.43.15-2.38,1.03-2.5,2.5-.24,3.06-.48,6.13-.72,9.19-.12,1.49.09,2.74-.9,3.65-1.18,1.08-4.7.36-6.24.24-3.21-.25-3.19,4.75,0,5,4.84.38,10.91.4,11.88-5.56.66-4.09.66-8.39.98-12.52l-2.5,2.5c5.35-.56,11.3.71,16.7.88,6.24.2,12.49.1,18.68-.8,11.11-1.6,20.76-6.26,26.78-16.01,1.69-2.75-2.63-5.26-4.32-2.52h0Z"/><path class="cls-1" d="m135.48,32.22c.28-3.59.57-7.18.85-10.78.09-1.17-.86-2.03-1.84-2.41-15.3-5.94-31.91-7.14-47.94-3.67-1.13.25-1.75,1.35-1.84,2.41l-.85,10.78c-.25,3.21,4.75,3.19,5,0l.85-10.78-1.84,2.41c15.19-3.29,30.81-1.95,45.28,3.67l-1.84-2.41c-.28,3.59-.57,7.18-.85,10.78-.25,3.21,4.75,3.19,5,0h0Z"/></g></svg>