<?xml version="1.0" encoding="UTF-8"?><svg id="Capa_1" xmlns="http://www.w3.org/2000/svg" width="190" height="190" viewBox="0 0 190 190"><defs><style>.cls-1{fill:#fff;}.cls-2{fill:none;}</style></defs><g><path class="cls-1" d="m95,49.41c-8.4-.17-15.66-3.41-15.69-12.91s7.21-13,15.69-13,15.78,3.42,15.69,13-7.18,12.74-15.69,12.91c-3.21.07-3.22,5.07,0,5,11.25-.23,20.63-5.57,20.69-17.91s-9.4-18.03-20.69-18-20.71,5.76-20.69,18,9.5,17.68,20.69,17.91c3.22.07,3.22-4.93,0-5Z"/><path class="cls-1" d="m82.82,169v-102.15l-2.5,2.5h29.45l-2.5-2.5v102.15l2.5-2.5h-29.45c-3.22,0-3.22,5,0,5h29.45c1.35,0,2.5-1.15,2.5-2.5v-102.15c0-1.35-1.15-2.5-2.5-2.5h-29.45c-1.35,0-2.5,1.15-2.5,2.5v102.15c0,3.22,5,3.22,5,0Z"/></g><rect class="cls-2" width="190" height="190"/></svg>