<?xml version="1.0" encoding="UTF-8"?><svg id="Capa_1" xmlns="http://www.w3.org/2000/svg" width="184.99" height="176.5" viewBox="0 0 184.99 176.5"><defs><style>.cls-1{fill:#fff;}</style></defs><path class="cls-1" d="m70.88,119.95c-4.23,4.23-8.46,8.46-12.7,12.7h4.65c-4.91-4.91-9.81-9.81-14.72-14.72v4.65c4.23-4.23,8.46-8.46,12.7-12.7,3-3-1.65-7.65-4.65-4.65-4.23,4.23-8.46,8.46-12.7,12.7-1.26,1.26-1.26,3.39,0,4.65,4.91,4.91,9.81,9.81,14.72,14.72,1.26,1.26,3.39,1.26,4.65,0,4.23-4.23,8.46-8.46,12.7-12.7,3-3-1.65-7.65-4.65-4.65h0Z"/><path class="cls-1" d="m58.19,132.65c-10.95,10.95-21.9,21.9-32.84,32.84-2.56,2.56-5.1,5.29-9.22,4.28-6.77-1.66-6.05-8.97-2.28-12.92,5.75-6.03,11.8-11.8,17.7-17.7,5.52-5.52,11.05-11.05,16.57-16.57h-4.65c4.91,4.91,9.81,9.81,14.72,14.72,3,3,7.65-1.65,4.65-4.65-4.91-4.91-9.81-9.81-14.72-14.72-1.26-1.26-3.39-1.26-4.65,0-11.69,11.69-23.94,23-35.14,35.14-4.56,4.94-5.56,12.11-1.57,17.75,4.32,6.11,13.02,7.46,19.08,3.18s11.51-11.22,16.9-16.62c6.7-6.7,13.39-13.39,20.09-20.09,3-3-1.65-7.65-4.65-4.65Z"/><path class="cls-1" d="m145.67,103.01c-14.46,14.05-36.43,18.24-54.77,9.34-19.31-9.38-30.48-31.12-26.36-52.26,3.77-19.33,19.2-34.71,38.59-38.28s39.32,5.47,49.54,22.17c11.58,18.92,8.34,43.26-7,59.03-2.95,3.04,1.69,7.69,4.65,4.65,15.48-15.92,20.35-39.68,11.52-60.2-8.89-20.67-30.34-34.1-52.84-32.91s-41.78,15.96-48.98,36.97c-7.86,22.93.96,48.65,20.7,62.48,21.51,15.07,51.02,11.72,69.6-6.33,3.04-2.95-1.61-7.6-4.65-4.65Z"/><path class="cls-1" d="m155.9,113.24c-18.78,18.36-47.57,23.73-71.4,12.1s-38.73-38.91-34.56-65.78S74.11,12.82,99.69,7.73c25.15-5,51.54,6.53,65.07,28.28,15.3,24.6,11.26,56.65-8.86,77.22-2.96,3.03,1.68,7.68,4.65,4.65,19.76-20.2,25.72-50.49,14.42-76.52C163.7,15.39,136.56-1.37,108.31.09s-54.2,21.2-62.64,48.77,2.4,59.95,26.77,77c27.2,19.03,64.63,14.98,88.11-7.98,3.03-2.96-1.62-7.61-4.65-4.65Z"/></svg>