<?xml version="1.0" encoding="UTF-8"?><svg id="Capa_1" xmlns="http://www.w3.org/2000/svg" width="190" height="190" viewBox="0 0 190 190"><defs><style>.cls-1{fill:#fff;}.cls-2{fill:none;}</style></defs><g><path class="cls-1" d="m118.74,18.5h-47.5c-1.14,0-2.07.78-2.41,1.84-13.93,43.22-27.85,86.43-41.78,129.65-1.97,6.12-3.94,12.23-5.91,18.35-.5,1.56.84,3.16,2.41,3.16h31.6c1.13,0,2.09-.78,2.41-1.84,4.06-13.17,8.13-26.33,12.19-39.5l-2.41,1.84h54.96l-2.41-1.84c4.08,13.17,8.17,26.33,12.25,39.5.33,1.05,1.29,1.84,2.41,1.84h31.9c1.57,0,2.91-1.61,2.41-3.16-13.93-43.22-27.86-86.43-41.79-129.65-1.97-6.12-3.94-12.23-5.92-18.35-.98-3.05-5.81-1.75-4.82,1.33,13.93,43.22,27.86,86.43,41.79,129.65,1.97,6.12,3.94,12.23,5.92,18.35l2.41-3.16h-31.9l2.41,1.84c-4.08-13.17-8.17-26.33-12.25-39.5-.33-1.05-1.29-1.84-2.41-1.84h-54.96c-1.13,0-2.09.78-2.41,1.84-4.06,13.17-8.13,26.33-12.19,39.5l2.41-1.84h-31.6l2.41,3.16c13.93-43.22,27.85-86.43,41.78-129.65,1.97-6.12,3.94-12.23,5.91-18.35l-2.41,1.84h47.5c3.22,0,3.22-5,0-5Z"/><path class="cls-1" d="m77.75,104.26c6.47-20.97,12.94-41.94,19.41-62.91h-4.82c6.51,20.97,13.01,41.94,19.52,62.91l2.41-3.16h-38.93c-3.22,0-3.22,5,0,5h38.93c1.58,0,2.9-1.6,2.41-3.16-6.51-20.97-13.01-41.94-19.52-62.91-.74-2.37-4.09-2.38-4.82,0-6.47,20.97-12.94,41.94-19.41,62.91-.95,3.08,3.87,4.4,4.82,1.33Z"/></g><rect class="cls-2" width="190" height="190"/></svg>