<?xml version="1.0" encoding="UTF-8"?><svg id="Capa_1" xmlns="http://www.w3.org/2000/svg" width="184.99" height="176.5" viewBox="0 0 184.99 176.5"><defs><style>.cls-1{fill:#fff;}</style></defs><path class="cls-1" d="m81.39,114.76c-1.74-11.97-3.47-23.95-5.21-35.92l-1.75,3.08c9.55-1.97,20.5-4.39,27.98-11.12,6.49-5.84,8.44-16.47,4.22-24.2s-12.92-9.73-20.88-10.32c-12.64-.94-25.91,1.14-37.85,5.28l3.16,2.41v-24.31l-1.84,2.41c13.52-4.81,28.74-5.99,42.99-5.01,11.96.82,25.07,3.79,33.49,13.01s10.4,24.92,5.92,36.85c-5.17,13.8-19.09,20.84-32.28,25.11-1.15.37-1.71,1.26-1.84,2.41-.74,7-1.48,13.99-2.22,20.99l2.5-2.5h-18.82c-3.22,0-3.22,5,0,5h18.82c1.46,0,2.36-1.15,2.5-2.5.74-7,1.48-13.99,2.22-20.99l-1.84,2.41c14.26-4.62,28.73-12.15,34.97-26.6,5.36-12.41,4.5-28.85-3.41-40.03s-20.69-15.77-33.55-17.51c-16.49-2.23-35.03-1.06-50.78,4.54-1.05.37-1.84,1.25-1.84,2.41v24.31c0,1.54,1.61,2.95,3.16,2.41,9.55-3.32,19.6-5.08,29.71-5.26,6.95-.13,16.28-.05,21.47,5.38,6.49,6.79,3.27,17.78-3.85,22.52s-15.48,6.44-23.47,8.08c-1.44.3-1.93,1.81-1.75,3.08,1.74,11.97,3.47,23.95,5.21,35.92.46,3.17,5.28,1.82,4.82-1.33Z"/><path class="cls-1" d="m88.43,159.79c-9.38-.23-17.45-5.32-17.48-15.46s7.95-15.59,17.48-15.56,17.5,5.45,17.48,15.56c-.02,10.06-8.21,15.23-17.48,15.46-3.21.08-3.22,5.08,0,5,12.03-.31,22.43-7.58,22.48-20.46.05-12.75-10.41-20.55-22.48-20.56s-22.51,7.64-22.48,20.56,10.37,20.16,22.48,20.46c3.22.08,3.22-4.92,0-5Z"/></svg>