<?xml version="1.0" encoding="UTF-8"?><svg id="Capa_2" xmlns="http://www.w3.org/2000/svg" width="190" height="190" viewBox="0 0 190 190"><defs><style>.cls-1{fill:#fff;}.cls-2{fill:none;}</style></defs><g id="Capa_1-2"><g><path class="cls-1" d="m61.8,73.2c0-9.3,0-18.6,0-27.9s0-9.3,0-13.9,1.4-7.5,6-8,9.6,0,14.2,0h40.1l-2.5-2.5v20.6c0,6.2-1.7,15.5,3.2,20.4s14,3.2,20.2,3.2h20.2l-2.5-2.5v87.6c0,3.4.3,6.9,0,10.2-.7,7.4-9,6-14.3,6h-75.8c-2.6,0-5.1.2-7.2-1.7-3.3-3.1-1.7-11.4-1.7-15.6s0-11.3,0-16.9-5-3.2-5,0c0,5,0,10,0,15.1s-.6,9.9.1,14.6,5.3,9.3,10.9,9.6,9,0,13.4,0h58.3c5,0,10.1.2,15.1,0,7.4-.3,11.1-5.9,11.2-12.8.2-16.4,0-32.7,0-49.1v-46.9c0-1.4-1.1-2.5-2.5-2.5h-28.6c-2.7,0-6.2.5-8.3-1.7s-1.7-5.5-1.7-8.3v-29.1c0-1.4-1.1-2.5-2.5-2.5h-45.1c-5.9,0-13.2-1.2-17.5,3.8s-2.7,13.8-2.7,20.1c0,10.3,0,20.6,0,30.8s5,3.2,5,0h0Z"/><path class="cls-1" d="m163.3,60.2h-28.6c-2.7,0-6.2.5-8.3-1.7s-1.7-5.5-1.7-8.3v-29.1l-4.3,1.8c13.7,13.9,27.4,27.8,41.2,41.7,2.3,2.3,5.8-1.2,3.5-3.5-13.7-13.9-27.4-27.8-41.2-41.7-1.5-1.5-4.3-.4-4.3,1.8v20.6c0,6.2-1.7,15.5,3.2,20.4s14,3.2,20.2,3.2h20.2c3.2,0,3.2-5,0-5Z"/><path class="cls-1" d="m113.1,128.3h-57.2c-8.9,0-18.2.8-27.1,0s-4.1-1.4-4.1-4.2c0-4.9,0-9.9,0-14.9v-18.8c0-3.2-.7-7.3,0-10.5s3.6-2.6,6.2-2.6h79.1c2.8,0,5.2-.4,5.7,3.2s0,10.4,0,15.4v20.9c0,3.5,1.6,10.9-3.2,11.5s-2.1,5.3.7,4.9c5.9-.8,7.5-4.9,7.5-10.1v-37.1c0-3.8.8-8.6-2.2-11.6s-5.6-2.2-8.7-2.2h-55.2c-8.9,0-18-.5-26.9,0s-7.9,14.9-7.9,22.2c0,10.4-.7,21,0,31.3s13.6,7.5,20.4,7.5h73.1c3.2,0,3.2-5,0-5Z"/><g><path class="cls-1" d="m38.1,114.9v-24.4h7.9c3,0,4.9.1,5.8.4,1.4.4,2.6,1.2,3.5,2.4.9,1.2,1.4,2.8,1.4,4.7s-.3,2.8-.8,3.8c-.5,1-1.2,1.8-2.1,2.4-.8.6-1.7,1-2.6,1.2-1.2.2-2.9.3-5.1.3h-3.2v9.2h-4.9Zm4.9-20.2v6.9h2.7c1.9,0,3.2-.1,3.9-.4.7-.3,1.2-.7,1.5-1.2.4-.5.6-1.2.6-1.9s-.3-1.6-.8-2.2c-.5-.6-1.2-.9-2-1.1-.6-.1-1.8-.2-3.5-.2h-2.4Z"/><path class="cls-1" d="m60.8,90.6h9c2,0,3.6.2,4.6.5,1.4.4,2.7,1.2,3.7,2.2,1,1.1,1.8,2.4,2.3,3.9.5,1.6.8,3.5.8,5.8s-.2,3.7-.7,5.2c-.6,1.8-1.5,3.2-2.6,4.3-.9.8-2,1.5-3.5,1.9-1.1.3-2.5.5-4.4.5h-9.3v-24.4Zm4.9,4.1v16.1h3.7c1.4,0,2.4,0,3-.2.8-.2,1.5-.5,2-1,.5-.5,1-1.3,1.3-2.4s.5-2.6.5-4.5-.2-3.3-.5-4.3c-.3-1-.8-1.8-1.4-2.4-.6-.6-1.4-.9-2.3-1.1-.7-.2-2-.2-4-.2h-2.2Z"/><path class="cls-1" d="m85.4,114.9v-24.4h16.7v4.1h-11.8v5.8h10.2v4.1h-10.2v10.4h-4.9Z"/></g></g><rect class="cls-2" width="190" height="190"/></g></svg>