<?xml version="1.0" encoding="UTF-8"?><svg id="Capa_1" xmlns="http://www.w3.org/2000/svg" width="190" height="190" viewBox="0 0 190 190"><defs><style>.cls-1{fill:#fff;}.cls-2{fill:none;}</style></defs><g><path class="cls-1" d="m102.26,93.84c3.96,0,7.94.13,11.89-.05,2.38-.11,3.61.84,4.74,2.87,6.21,11.16,12.62,22.21,18.82,33.37,1.09,1.97,2.23,2.3,4.22,1.7,3.54-1.07,7.15-1.9,10.7-2.93,1.83-.52,2.84-.08,3.16,1.89.21,1.3.68,2.55,1.02,3.83,1.07,4.1,1.06,4.09-2.91,5.14-7.06,1.88-14.14,3.72-21.17,5.72-2.34.67-3.4.36-4.5-2.16-1.88-4.34-4.51-8.35-6.88-12.48-3.85-6.72-7.79-13.4-11.58-20.16-.96-1.71-2.15-2.26-4.03-2.25-10.57.07-21.14,0-31.72.06-2.19.01-3.38-.38-3.49-2.97-.32-7.74-.91-15.46-1.35-23.2-.56-9.84-1.12-19.69-1.58-29.54-.08-1.69-1.07-2.48-2.16-3.38-9.71-8.08-7.42-23.63,4.2-28.55,8.22-3.48,17.67.03,21.81,8.11,3.95,7.71,1.03,17.71-6.66,22.05-1.9,1.07-2.34,2.2-2,4.21.73,4.34,1.41,8.7,1.8,13.07.25,2.79,1.51,3.46,4.1,3.42,7.84-.14,15.68.04,23.52-.1,2.57-.05,3.49.81,3.28,3.33-.17,2.01-.15,4.06,0,6.07.17,2.32-.77,3.1-3.05,3.07-7.93-.09-15.86.04-23.79-.08-2.36-.04-3.36.45-2.91,3.06,1.36,7.9-.64,6.72,7.51,6.83,3,.04,5.99,0,8.99,0Z"/><path class="cls-1" d="m32.59,118.84c.99-16.82,10.26-31.74,28.88-40.5,3.15-1.48,3.45-1.22,3.62,2.34.19,3.96.34,7.92.6,11.87.12,1.75-.41,2.92-1.92,3.96-11.35,7.83-16.26,20.09-13.37,33.1,2.73,12.28,12.88,21.52,26.11,23.75,14.26,2.41,29.71-7.42,33.86-21.53.52-1.77,1.01-3.56,1.52-5.33.14-.5.23-1.12.82-1.25.65-.14.89.47,1.13.9,3.13,5.41,6.22,10.85,9.36,16.25.69,1.2.26,2.19-.32,3.21-8.1,14.34-20.32,22.78-36.65,24.61-18.41,2.06-33.33-4.78-44.48-19.45-6.31-8.3-9.21-17.93-9.17-31.92Z"/></g><rect class="cls-2" width="190" height="190"/></svg>