<?xml version="1.0" encoding="UTF-8"?><svg id="Capa_1" xmlns="http://www.w3.org/2000/svg" width="190" height="190" viewBox="0 0 190 190"><defs><style>.cls-1{fill:#fff;}.cls-2{fill:none;}</style></defs><g><path class="cls-1" d="m122.9,96.08c.89-1.34,4.48-1.49,5.92-1.78,2.76-.55,5.54-.96,8.34-1.1,5.41-.26,10.79.48,15.94,2.16,8,2.6,14.92,7.45,20.82,13.35l-.64-2.43c-6.07,20.68-12.14,41.37-18.22,62.05l3.67-1.49c-10.24-7.11-21.55-12.84-33.78-15.58-13.31-2.99-26.22-1.72-39.2,2.02-11.14,3.21-22.08,4.79-33.53,2.26-13.48-2.98-25.51-10.22-36.15-18.82l.39,3.03c11.05-19.46,22.11-38.92,33.16-58.37l-3.42.9c3.95,2.51,7.98,4.88,12.17,6.98,2.98,1.49,7.17,2.34,9.11,5.16,1.81,2.64,6.14.14,4.32-2.52-2.52-3.67-5.47-4.32-9.45-6.24-4.7-2.27-9.21-4.89-13.62-7.69-1.13-.72-2.77-.25-3.42.9-11.06,19.46-22.11,38.91-33.16,58.37-.5.88-.46,2.34.39,3.03,18.48,14.94,41.12,25.41,65.26,20.3,5.86-1.24,11.52-3.29,17.36-4.59,7.72-1.72,15.74-1.96,23.56-.79,13.67,2.04,26.22,8.18,37.48,16,1.36.95,3.25-.05,3.67-1.49,6.08-20.68,12.15-41.37,18.22-62.05.25-.85-.02-1.81-.64-2.43-7.32-7.31-16.15-13.02-26.26-15.57-5.96-1.5-12.1-1.79-18.19-1.04-4.78.59-11.59.71-14.43,4.98-1.79,2.69,2.54,5.19,4.32,2.52h0Z"/><g><path class="cls-1" d="m94.98,40.15c10.06.33,18.2,8.34,18.2,18.55s-8.14,18.55-18.2,18.55-17.8-8.18-18.17-17.86c-.39-10.46,7.84-18.9,18.17-19.24,3.21-.11,3.22-5.11,0-5-12.77.42-23.19,10.58-23.19,23.55s10.41,23.56,23.19,23.55,23.2-10.88,23.2-23.55c0-12.96-10.43-23.13-23.2-23.55-3.22-.11-3.21,4.89,0,5Z"/><path class="cls-1" d="m134.72,62.13c.75-13.39-4.23-26.62-14.98-34.99-7.27-5.66-17.14-9.18-26.44-8.56-12.84.86-25.15,7.13-32.26,18.04-9.59,14.72-6.6,31.12.81,45.92,8.61,17.19,19.46,33.44,30.97,48.8.9,1.2,2.76,1.83,3.93.51,8.74-9.9,16.59-20.58,23.31-31.95s13.57-23.95,14.67-37.76c.26-3.21-4.75-3.19-5,0-1.07,13.42-8.13,25.54-14.94,36.84-6.29,10.42-13.52,20.23-21.57,29.35l3.93.51c-8.63-11.52-16.61-23.51-23.88-35.93s-15.76-26.24-12.92-41.15c4.29-22.51,29.52-34.16,49.67-24.72,13.71,6.42,20.54,20.42,19.72,35.12-.18,3.21,4.82,3.2,5,0Z"/></g></g><rect class="cls-2" width="190" height="190"/></svg>