<?xml version="1.0" encoding="UTF-8"?><svg id="Capa_1" xmlns="http://www.w3.org/2000/svg" width="184.99" height="176.5" viewBox="0 0 184.99 176.5"><defs><style>.cls-1{fill:#fff;}</style></defs><path class="cls-1" d="m105.69,128.54c0,7.3-5.89,13.2-13.2,13.2s-13.2-5.89-13.2-13.2c0-3.64,1.48-6.93,3.87-9.33s5.68-3.87,9.33-3.87,6.95,1.48,9.34,3.87c2.38,2.39,3.85,5.68,3.85,9.33Z"/><path class="cls-1" d="m63.37,109.98c16.35-15.82,41.91-15.82,58.26,0,4.63,4.48,11.71-2.59,7.07-7.07-20.28-19.62-52.12-19.62-72.4,0-4.63,4.48,2.44,11.55,7.07,7.07h0Z"/><path class="cls-1" d="m44.71,88.68c26.55-25.99,69.03-25.99,95.58,0,4.6,4.51,11.68-2.56,7.07-7.07-30.43-29.8-79.29-29.8-109.72,0-4.61,4.51,2.47,11.58,7.07,7.07h0Z"/><path class="cls-1" d="m26.02,67.35c17.75-17.46,41.5-27.5,66.46-27.52s48.73,10.08,66.46,27.52c4.59,4.52,11.67-2.55,7.07-7.07-19.58-19.26-45.99-30.47-73.54-30.45-27.57.02-53.93,11.17-73.54,30.45-4.6,4.52,2.48,11.59,7.07,7.07h0Z"/></svg>