<?xml version="1.0" encoding="utf-8"?>
<!-- Generator: Adobe Illustrator 19.0.0, SVG Export Plug-In . SVG Version: 6.00 Build 0)  -->
<svg version="1.1" id="Capa_1" xmlns="http://www.w3.org/2000/svg" xmlns:xlink="http://www.w3.org/1999/xlink" x="0px" y="0px"
	 viewBox="38 12 156 150" style="enable-background:new 38 12 156 150;" xml:space="preserve">
<style type="text/css">
	.st0{fill:#009AAE;}
</style>
<g>
	<path class="st0" d="M106.5,98.6c8-4.1,15.9-8.2,23.9-12.4c-8-4.2-15.9-8.3-23.9-12.5C106.5,82.1,106.5,90.3,106.5,98.6z"/>
	<path class="st0" d="M37.7,12v150h156.5V12H37.7z M152,107.8c-0.9,1.9-2.3,3.2-4.2,4.2c-4.9,2.6-55.8,2.6-62.3,0.4
		c-2.9-0.9-4.8-2.9-5.9-5.7c-2.6-7-3.3-36.4,1.6-42.2c1.7-2,3.8-3.1,6.4-3.4c13.3-1.4,54.2-1.2,58.9,0.5c2.8,1,4.7,2.8,5.8,5.6
		C155.1,74.3,155.2,100.8,152,107.8z"/>
</g>
</svg>
