<?xml version="1.0" encoding="UTF-8"?><svg id="Capa_2" xmlns="http://www.w3.org/2000/svg" width="354.82mm" height="301.86mm" viewBox="0 0 1005.79 855.66"><defs><style>.cls-1{fill:#fff;stroke:#0db5c3;stroke-miterlimit:10;stroke-width:4.3px;}</style></defs><g id="Capa_1-2"><g><polygon class="cls-1" points="323.37 2.44 579.6 50.48 497.75 253.33 385.65 247.99 362.52 386.78 421.24 504.22 344.73 523.79 241.52 404.57 145.44 401.02 3.09 231.98 65.37 183.93 216.61 180.37 278.89 114.54 323.37 2.44"/><g><path class="cls-1" d="m921.24,411.69c-78.29,23.72-156.58,47.45-234.88,71.17-2.37,46.86-4.74,93.71-7.12,140.57l40.93,96.09,97.86-140.57,97.86-39.15c1.78-42.7,3.56-85.41,5.34-128.11Z"/><polygon class="cls-1" points="720.17 719.52 656.11 792.47 421.24 504.22 362.52 386.78 385.65 247.99 497.75 253.33 579.6 50.48 885.65 217.74 921.24 411.69 686.36 482.87 679.25 623.44 720.17 719.52"/><polygon class="cls-1" points="915.9 539.81 956.83 676.82 811 780.47 809.14 781.8 720.17 719.52 818.04 578.95 915.9 539.81"/><polygon class="cls-1" points="894.55 852.97 1003.09 781.8 956.83 676.82 811 780.47 894.55 852.97"/></g></g></g></svg>