<?xml version="1.0" encoding="UTF-8"?><svg id="Capa_2" xmlns="http://www.w3.org/2000/svg" width="1004.97" height="783.4" viewBox="0 0 1004.97 783.4"><defs><style>.cls-1{fill:#fff;stroke:#00b7c5;stroke-miterlimit:10;stroke-width:4.04px;}</style></defs><g id="Capa_1-2"><g><path class="cls-1" d="m106.91,297.12l83.2-57.6,116.8,195.2,88-57.6-65.6-120,68.8-92.8-35.2-28.8v-27.2l57.6-27.2-27.2-28.8-107.2,102.4L178.91,2.72,2.91,111.52c34.67,48,69.33,96,104,144v41.6Z"/><polygon class="cls-1" points="420.51 81.12 476.51 143.52 505.31 149.92 498.91 173.92 554.91 207.52 585.31 204.32 697.12 307.12 730.91 313.12 762.91 354.72 746.91 393.12 679.71 397.92 681.31 445.92 658.91 487.52 679.71 514.72 679.71 562.72 676.51 601.12 658.97 653.42 630.11 668.32 460.51 497.12 329.31 257.12 398.11 164.32 362.91 135.52 362.91 108.32 420.51 81.12"/><polygon class="cls-1" points="858.91 421.92 762.91 354.72 746.91 393.12 679.71 397.92 681.31 445.92 658.91 487.52 679.71 514.72 698.59 518.42 858.91 421.92"/><polygon class="cls-1" points="858.91 421.92 928.97 489.07 954.91 565.92 863.71 599.52 860.51 617.12 803.51 684.23 679.71 562.72 679.71 514.72 698.59 518.42 858.91 421.92"/><polygon class="cls-1" points="954.91 565.92 1001.31 645.92 1002.91 692.32 903.71 780.32 868.51 725.92 833.31 716.32 803.51 684.23 860.51 617.12 863.71 599.52 954.91 565.92"/></g></g></svg>