<?xml version="1.0" encoding="UTF-8"?><svg id="Capa_2" xmlns="http://www.w3.org/2000/svg" width="53.14" height="68.45" viewBox="0 0 53.14 68.45"><defs><style>.cls-1{fill:#e81f76;}</style></defs><g id="Capa_1-2"><path class="cls-1" d="m24.77.06C16.22.65,8.52,5.29,3.99,12.58c-1.33,2.13-2.37,4.5-3.02,6.88-1.74,6.33-1.13,13.02,1.74,18.83,1.09,2.21,2.13,3.77,3.86,5.83.19.23,4.3,5.58,9.12,11.87,5.25,6.85,8.89,11.56,9.08,11.73,1.06.97,2.53.97,3.59,0,.19-.17,3.83-4.88,9.08-11.73,4.82-6.29,8.93-11.64,9.12-11.87,1.74-2.06,2.77-3.62,3.86-5.83,3.23-6.56,3.59-14.3.99-21.12-2.02-5.28-5.53-9.65-10.28-12.81C36.43,1.22,30.49-.33,24.77.06Zm3.19,12.88c1.28.17,2.27.46,3.43,1.03,3.16,1.53,5.32,4.32,6.07,7.85.14.66.15.83.16,2.09,0,1.53-.06,1.97-.4,3.17-.92,3.21-3.35,5.9-6.46,7.16-1.15.47-2.09.69-3.38.79-1.68.14-3.39-.13-5.02-.79-3.11-1.26-5.54-3.95-6.46-7.16-.34-1.2-.4-1.65-.4-3.17,0-1.26.02-1.43.16-2.09.64-3.01,2.32-5.52,4.81-7.16,1.01-.66,2.5-1.3,3.64-1.55,1.19-.26,2.67-.33,3.84-.18Z"/></g></svg>