<?xml version="1.0" encoding="UTF-8"?><svg id="Capa_2" xmlns="http://www.w3.org/2000/svg" width="48.59" height="48.59" viewBox="0 0 48.59 48.59"><defs><style>.cls-1{fill:#fff;}</style></defs><g id="Capa_1-2"><path class="cls-1" d="m48.59,24.31c-.04,13.47-10.9,24.29-24.34,24.28C10.8,48.57-.2,37.54,0,23.91.19,10.78,11.01-.25,24.79,0c13.04.24,23.81,10.91,23.79,24.31Zm-12.94,19.34q.73.02,1.26-.34c3.04-2.07,5.49-4.68,7.31-7.89.19-.33.19-.58-.02-.91-1.2-1.85-2.62-3.52-4.15-5.1-2.49-2.57-5.24-4.85-8.13-6.96-3.82-2.79-7.81-5.31-12.14-7.26-1.99-.9-4.03-1.66-6.15-2.21-.31-.08-.46,0-.6.27-.49.96-.92,1.94-1.32,2.94-.32.82-.33.82.4,1.27,1.6.99,2.82,2.38,3.93,3.86,1.81,2.41,3.31,5.03,4.83,7.63,1.23,2.1,2.46,4.21,3.83,6.23,1.55,2.29,3.22,4.47,5.4,6.21,1.62,1.29,3.43,2.15,5.54,2.26Zm11.46-18.92c0-2.45-.29-4.43-.77-6.4-.36-1.49-.93-2.84-2.21-3.78-.19-.14-.37-.31-.55-.47-2.77-2.54-6.03-3.98-9.76-4.41-2.71-.31-5.44-.3-8.16-.34-3.06-.04-6.12.04-9.14-.54-.24-.05-.39.05-.55.22-.59.67-1.13,1.38-1.64,2.12-.29.42-.28.44.22.58,3.77,1.05,7.31,2.66,10.69,4.61,3.96,2.27,7.71,4.86,11.22,7.77,1.6,1.32,3.13,2.72,4.58,4.2,1.43,1.48,2.78,3.03,3.95,4.73.06.09.1.26.25.21.07-.02.11-.17.15-.26,1.15-2.78,1.7-5.67,1.71-8.25Zm-13.2,20.23c-.23-.08-.37-.12-.51-.17-1.08-.32-2.1-.78-3.04-1.39-2.74-1.79-4.75-4.29-6.57-6.95-1.92-2.8-3.57-5.76-5.3-8.67-1.43-2.41-2.88-4.81-4.73-6.93-.73-.84-1.55-1.58-2.49-2.16-.27-.17-.43-.13-.52.2-.19.67-.42,1.33-.6,2-1.12,3.97-1.67,7.99-1.18,12.12.45,3.76,1.69,7.21,4.03,10.22.64.82,1.28,1.63,2.31,2.06,2.59,1.08,5.27,1.7,8.06,1.81,2.76.12,5.47-.25,8.1-1.12.81-.27,1.62-.55,2.47-1.01Zm-23.38-2.63c-.27-.49-.55-.97-.8-1.47-2.16-4.36-2.76-8.99-2.3-13.78.28-2.95.96-5.82,1.9-8.62.15-.43,0-.54-.38-.56-.09,0-.18-.01-.27-.01-1.5-.03-2.72.61-3.78,1.62-1.54,1.46-2.52,3.27-3.31,5.21-.09.23-.1.47-.08.72.11,1.65.33,3.28.77,4.88,1.2,4.33,3.48,7.99,6.82,11,.43.39.85.81,1.43,1.04ZM43.38,11.9c-1.27-2.07-2.88-3.83-4.75-5.34-3.46-2.79-7.4-4.44-11.82-4.94-.23-.03-.45-.03-.67.07-3.05,1.37-5.86,3.09-8.31,5.39-.1.09-.28.17-.24.3.04.17.25.14.39.16,1.29.18,2.59.25,3.89.27,3.75.07,7.51-.03,11.26.3,2.76.24,5.4.89,7.84,2.27.83.47,1.62,1,2.41,1.52ZM1.81,20.86c.68-.97,1.39-1.89,2.27-2.66,1.57-1.36,3.36-2.09,5.47-1.71.35.06.49-.04.6-.35.4-1.05.82-2.08,1.33-3.08.23-.46.19-.54-.31-.62-1.88-.31-3.77-.53-5.69-.32-.35.04-.58.16-.76.46-1.06,1.78-1.88,3.66-2.42,5.66-.23.86-.44,1.72-.49,2.63Zm10.53-9.72c.21.04.29-.13.38-.26.49-.72.97-1.46,1.53-2.14.36-.44.35-.44-.15-.68-1.11-.52-2.04-1.2-2.34-2.48-.09-.4-.28-.14-.42-.05-1.87,1.28-3.5,2.83-4.92,4.6-.08.1-.24.2-.17.34.07.15.24.08.37.08,1.27-.03,2.54.08,3.8.26.64.09,1.28.21,1.93.32ZM22.94,1.52c-.39.03-.78.05-1.17.1-2.79.3-5.41,1.12-7.91,2.38-.56.28-.68.48-.66,1.11.02.41.22.72.51.97.38.33.83.54,1.28.76.46.22.8.16,1.16-.22.75-.77,1.55-1.48,2.4-2.14,1.39-1.08,2.87-2.02,4.38-2.95Z"/></g></svg>