<?xml version="1.0" encoding="UTF-8"?><svg id="Capa_2" xmlns="http://www.w3.org/2000/svg" width="120" height="46.98" viewBox="0 0 120 46.98"><defs><style>.cls-1{fill:#fff;}</style></defs><g id="Capa_1-2"><g><path class="cls-1" d="m82.44,21.17l-10.05,9.79c-.25.24-.37.6-.31.94l2.37,13.83c.15.87-.76,1.54-1.55,1.12l-12.42-6.53c-.31-.16-.68-.16-.99,0l-12.42,6.53c-.78.41-1.7-.25-1.55-1.12l2.37-13.83c.06-.35-.06-.7-.31-.94l-10.05-9.79c-.63-.62-.28-1.69.59-1.82l13.88-2.02c.35-.05.65-.27.8-.58l6.21-12.58c.39-.79,1.52-.79,1.91,0l6.21,12.58c.16.31.46.53.8.58l13.88,2.02c.87.13,1.22,1.2.59,1.82Z"/><g><path class="cls-1" d="m33.9,13.19l-7.53,7.34c-.19.18-.27.45-.23.71l1.78,10.37c.11.65-.57,1.15-1.16.84l-9.31-4.9c-.23-.12-.51-.12-.74,0l-9.31,4.9c-.59.31-1.27-.19-1.16-.84l1.78-10.37c.04-.26-.04-.52-.23-.71L.24,13.2c-.47-.46-.21-1.27.44-1.36l10.41-1.51c.26-.04.49-.2.6-.44L16.36.45c.29-.59,1.14-.59,1.43,0l4.66,9.43c.12.24.34.4.6.44l10.41,1.51c.66.1.92.9.44,1.36Z"/><path class="cls-1" d="m119.76,13.19l-7.53,7.34c-.19.18-.27.45-.23.71l1.78,10.37c.11.65-.57,1.15-1.16.84l-9.31-4.9c-.23-.12-.51-.12-.74,0l-9.31,4.9c-.59.31-1.27-.19-1.16-.84l1.78-10.37c.04-.26-.04-.52-.23-.71l-7.53-7.34c-.47-.46-.21-1.27.44-1.36l10.41-1.51c.26-.04.49-.2.6-.44L102.21.45c.29-.59,1.14-.59,1.43,0l4.66,9.43c.12.24.34.4.6.44l10.41,1.51c.66.1.92.9.44,1.36Z"/></g></g></g></svg>