<?xml version="1.0" encoding="UTF-8"?><svg id="Capa_2" xmlns="http://www.w3.org/2000/svg" width="48.59" height="48.59" viewBox="0 0 48.59 48.59"><defs><style>.cls-1{fill:#fff;}</style></defs><g id="Capa_1-2"><path class="cls-1" d="m48.59,24.37c-.05,13.62-10.78,24.26-24.42,24.22C10.52,48.55-.07,37.76,0,23.97.07,10.55,10.9-.05,24.49,0c13.48.05,24.15,10.84,24.1,24.37Zm-18.8,10.89c-.44-2.26-.94-4.52-1.3-6.79-.17-1.11-.71-1.71-1.72-2.07-2.13-.75-4.25-1.51-6.34-2.33-.81-.32-1.42-.17-2.05.37-1.88,1.6-3.78,3.18-5.71,4.72-.6.48-.74.96-.51,1.67.71,2.14,1.39,4.29,2.05,6.44.26.85.75,1.34,1.62,1.59,2.22.64,4.42,1.33,6.61,2.04.73.23,1.3.18,1.91-.36,1.56-1.39,3.19-2.71,4.79-4.06.38-.32.75-.63.65-1.21Zm5.23-15.98c-.68-2.37-1.34-4.74-2.05-7.1-.17-.59-.77-.71-1.28-.87-2.35-.76-4.7-1.48-7.04-2.26-.88-.29-1.53-.06-2.19.54-1.39,1.26-2.78,2.53-4.25,3.69-.7.56-.88,1.09-.61,1.92.66,2.1,1.3,4.2,1.85,6.33.25.95.77,1.45,1.66,1.75,2.13.73,4.25,1.5,6.35,2.3.87.33,1.52.18,2.17-.47,1.56-1.55,3.15-3.07,4.74-4.59.36-.34.7-.68.64-1.25Zm9.87,1.13s-.06,0-.08,0c-.11-1.93-.16-3.86-.34-5.79-.26-2.86-3.17-5.59-5.97-5.87-1.08-.11-1.7.46-2.41,1.01-2.44,1.91-2.06,1.32-1.48,4.5.73,4.04,2.7,6.95,6.12,9.11,1.74,1.1,3.24.88,3.95-1.06.21-.58.15-1.26.21-1.9Zm-5.57,17.92c-.03-.21-.21-.79-.21-1.37,0-1.3-.52-1.67-1.81-1.39-1.46.31-2.97.42-4.45.62-1.05.14-2.12.11-3.01.91-1.55,1.4-3.16,2.74-4.74,4.11-.32.28-.63.53-.59,1.06.25,3.02,2.62,4.61,5.57,3.96,3.9-.86,6.09-4.01,8.92-6.32.36-.29.37-.75.31-1.58ZM3.12,30.1c-.09,4.3,3.11,9.1,6.89,10.62,1.25.5,3.69-1.33,3.39-2.63-1.13-4.83-2.83-9.33-7.2-12.28-.69-.46-1.07-.37-1.66.11-1.47,1.19-1.33,2.83-1.41,4.18ZM22.82,7.27c-.1-.9-.17-1.81-.29-2.71-.09-.66-.35-1.06-1.18-.89-4.7.97-9.46,1.63-12.51,6.17-.93,1.39-.77,2.5-.34,3.7.45,1.24,1.56.43,2.4.43.53,0,1.09.02,1.6-.12,1.48-.4,3.18.17,4.49-.89,1.79-1.45,3.51-2.97,5.27-4.46.39-.33.67-.69.56-1.23Zm24,19.49c0-.36-.02-.58,0-.79.11-1.04-.42-1.83-1.24-2.26-.82-.43-1.14.56-1.66.93-.77.55-1.16,1.35-1.45,2.25-.6,1.89-1.19,3.79-1.93,5.63-.67,1.67-.74,3.32-.32,5.02.12.5.04,1.18.7,1.31.57.11,1-.27,1.34-.73,2.55-3.43,4.12-7.24,4.55-11.36ZM1.74,23.24c0,.75-.02,1.5,0,2.25.01.36-.09.82.33,1.01.43.19.66-.23.93-.47,1.29-1.11,2.22-2.4,2.57-4.14.65-3.27,2.54-6.33,1.56-9.86-.13-.46-.03-1.06-.58-1.22-.62-.18-.8.44-1.04.81-2.33,3.52-3.71,7.36-3.77,11.62ZM14.29,4c-.07.09-.03.21.11.19,4.26-.79,8.42-2.22,12.82-2.22.04,0,.08-.05.15-.1-4.57-.43-8.96-.06-13.08,2.13Z"/></g></svg>