<?xml version="1.0" encoding="UTF-8"?><svg id="Capa_1" xmlns="http://www.w3.org/2000/svg" width="190" height="190.43" viewBox="0 0 190 190.43"><defs><style>.cls-1{fill:#fff;}</style></defs><g><path class="cls-1" d="m167.78,68.08c-12.4-9.35-24.8-18.7-37.2-28.06-6.07-4.58-12.14-9.15-18.21-13.73-3.17-2.39-6.33-4.78-9.5-7.16-2.37-1.79-4.73-4.33-7.88-4.33s-5.51,2.55-7.88,4.33c-2.9,2.19-5.8,4.38-8.71,6.57-6.07,4.58-12.14,9.15-18.21,13.73-12.66,9.55-25.33,19.1-37.99,28.65-5.6,4.22-.11,13.81,5.57,9.53,11.61-8.76,23.22-17.51,34.83-26.27,5.8-4.38,11.61-8.76,17.41-13.13,2.9-2.19,5.8-4.38,8.71-6.57,1.32-.99,2.64-1.99,3.96-2.98.11-.08,4.66-2.83,2.31-2.83-2.16,0,.92,1.78,1.52,2.23,1.32.99,2.64,1.99,3.96,2.98,3.17,2.39,6.33,4.78,9.5,7.16,5.8,4.38,11.61,8.76,17.41,13.13,11.61,8.76,23.22,17.51,34.83,26.27,5.67,4.28,11.17-5.3,5.57-9.53h0Z"/><path class="cls-1" d="m149.48,69.76v99.92l5.52-5.52H35l5.52,5.52v-99.92c0-7.1-11.03-7.11-11.03,0v99.92c0,2.98,2.53,5.52,5.52,5.52h120c2.98,0,5.52-2.53,5.52-5.52v-99.92c0-7.1-11.03-7.11-11.03,0h0Z"/><path class="cls-1" d="m75.43,169.46v-22.85c0-7.52-1.53-17.55,1.6-24.66,5.85-13.29,25.42-15.55,34.51-4.39,5.71,7.01,4.29,16.76,4.29,25.19v26.71c0,7.1,11.03,7.11,11.03,0v-27.64c0-11.04.7-21.8-6.7-31.04-10.59-13.22-31.3-15.1-44.44-4.62-10.28,8.2-11.32,19.66-11.32,31.72v31.58c0,7.1,11.03,7.11,11.03,0h0Z"/></g><path class="cls-1" d="m50.74,56.75v-30.86l-5.52,5.52h19.38l-5.52-5.52c0,5.41,0,10.81,0,16.22,0,7.1,11.03,7.11,11.03,0,0-5.41,0-10.81,0-16.22,0-2.98-2.53-5.52-5.52-5.52h-19.38c-2.98,0-5.52,2.53-5.52,5.52v30.86c0,7.1,11.03,7.11,11.03,0h0Z"/></svg>