<?xml version="1.0" encoding="UTF-8"?><svg id="Capa_1" xmlns="http://www.w3.org/2000/svg" width="190" height="190" viewBox="0 0 190 190"><defs><style>.cls-1{fill:#fff;}.cls-2{fill:none;}</style></defs><g><path class="cls-1" d="m159.75,43.29c5.24,19.55,10.48,39.11,15.72,58.66.77,2.88,1.9,5.98,2.02,8.98.34,8.2-5.08,14.58-12.67,16.89-6.32,1.93-12.8,3.43-19.18,5.14-24.16,6.47-48.31,12.95-72.47,19.42-7.19,1.93-14.37,3.92-21.58,5.78-5.79,1.49-11.69.75-16.31-3.33-3.6-3.18-4.81-7.39-5.99-11.79l-10.16-37.91c-1.58-5.88-3.15-11.77-4.73-17.65-1.65-6.17-2.88-11.53.49-17.74l-3.42.9c25.52,13.46,51.05,26.91,76.57,40.37,3.66,1.93,7.32,3.86,10.98,5.79,1.22.65,2.67.29,3.42-.9,15.38-24.41,30.75-48.83,46.13-73.24,2.21-3.5,4.41-7,6.62-10.5l-3.42.9c4.02,2.42,6.62,5.74,8,10.23.95,3.07,5.77,1.76,4.82-1.33-1.77-5.72-5.16-10.12-10.3-13.22-1.18-.71-2.71-.23-3.42.9-15.38,24.41-30.75,48.83-46.13,73.24-2.21,3.5-4.41,7-6.62,10.5l3.42-.9c-25.52-13.46-51.05-26.91-76.57-40.37-3.66-1.93-7.32-3.86-10.98-5.79-1.16-.61-2.75-.33-3.42.9-5.73,10.59-1.02,21.48,1.84,32.16,3.48,12.99,6.96,25.99,10.44,38.98,2.87,10.71,5.62,21.86,18.16,24.99,7.41,1.85,15.18-1.24,22.31-3.15,25.25-6.77,50.5-13.53,75.74-20.3,8.49-2.28,16.99-4.55,25.48-6.83,12.36-3.31,20.26-14.06,17.21-27.05-5.05-21.49-11.45-42.75-17.17-64.08-.83-3.1-5.66-1.79-4.82,1.33Z"/><path class="cls-1" d="m150.85,29.64c-13.19,20.95-26.39,41.91-39.58,62.86-4.39,6.96-8.77,13.92-13.16,20.89l3.42-.9c-24.34-12.83-48.67-25.66-73.01-38.49-4.85-2.56-9.7-5.11-14.54-7.67l.9,3.42c4.44-6.83,11.6-7.93,18.79-9.85,9.4-2.52,18.81-5.04,28.21-7.56,21.85-5.85,43.69-11.71,65.54-17.56,7.98-2.14,16.36-5.74,24.33-1.72,2.87,1.44,5.4-2.87,2.52-4.32-8.26-4.16-15.49-2.18-23.68,0-9.84,2.64-19.69,5.27-29.53,7.91-22.63,6.06-45.27,12.13-67.9,18.19-8.85,2.37-17.14,3.97-22.6,12.37-.71,1.1-.26,2.81.9,3.42,21.9,11.55,43.81,23.1,65.71,34.65,7.28,3.84,14.56,7.67,21.84,11.51,1.22.65,2.67.29,3.42-.9,14.66-23.28,29.32-46.56,43.98-69.83,2.92-4.64,5.84-9.27,8.76-13.91,1.72-2.73-2.61-5.24-4.32-2.52Z"/><path class="cls-1" d="m175.13,120.25c-4.44,6.83-11.6,7.93-18.79,9.85l-28.21,7.56c-21.85,5.85-43.69,11.71-65.54,17.56-7.98,2.14-16.36,5.74-24.33,1.72l.9,3.42c12.26-19.47,24.52-38.94,36.79-58.42l-3.42.9c8.83,4.65,17.65,9.31,26.48,13.96,1.22.65,2.67.29,3.42-.9,5.32-8.44,10.64-16.89,15.95-25.33l-3.42.9c20.36,10.73,40.71,21.46,61.07,32.2,2.84,1.5,5.37-2.81,2.52-4.32-20.36-10.73-40.71-21.46-61.07-32.2-1.22-.65-2.67-.29-3.42.9-5.32,8.44-10.64,16.89-15.95,25.33l3.42-.9c-8.83-4.65-17.65-9.31-26.48-13.96-1.22-.65-2.67-.29-3.42.9-12.26,19.47-24.52,38.94-36.79,58.42-.69,1.09-.28,2.83.9,3.42,8.26,4.16,15.49,2.18,23.68,0l29.53-7.91c22.63-6.06,45.27-12.13,67.9-18.19,8.85-2.37,17.14-3.97,22.6-12.37,1.76-2.71-2.57-5.21-4.32-2.52Z"/></g><rect class="cls-2" width="190" height="190"/></svg>