<?xml version="1.0" encoding="UTF-8"?><svg id="Capa_1" xmlns="http://www.w3.org/2000/svg" width="190" height="190" viewBox="0 0 190 190"><defs><style>.cls-1{fill:#fff;}.cls-2{fill:none;}</style></defs><g><path class="cls-1" d="m177.6,117.86c-2.88,4.94-7.29,8.17-13.23,7.99-3.46-.11-6.48-2.2-9.43-3.79-3.25-1.76-6.51-3.5-9.79-5.2-11.65-6.04-23.57-11.62-35.94-16.03-13.03-4.64-26.51-7.66-40.19-9.61-10.1-1.44-23.13-.46-31.68-6.94-17.04-12.92-7.84-57.99,17.39-45.21,11.62,5.89,22.81,12.36,34.85,17.44,11.81,4.99,23.94,8.81,36.5,11.38,7.61,1.56,15.26,2.88,22.96,3.93,6.68.92,14.6.41,20.89,2.92,6.93,2.76,10.09,10.53,11.68,17.3,2.1,8.97.2,17.76-4.01,25.81-1.49,2.85,2.82,5.38,4.32,2.52,6.87-13.15,7.53-28.18-.05-41.27s-22.79-10.79-35.35-12.65c-16.22-2.4-32.26-5.76-47.63-11.56-15.14-5.72-28.71-13.98-43.21-20.96-10.44-5.03-20.57-1.32-26.63,8.23-6.48,10.21-7.04,24.85-2.44,35.93,3.89,9.36,12.39,14.28,22.13,15.71,16.38,2.41,32.58,3.76,48.57,8.42,18.15,5.28,35.23,13.5,51.85,22.4,6.41,3.43,11.93,7.24,19.46,5.81,5.96-1.12,10.3-4.91,13.29-10.05,1.62-2.79-2.7-5.31-4.32-2.52Z"/><path class="cls-1" d="m182.5,100.4c-.17,9.04-4.1,24.98-15.82,24.98s-15.81-15.94-15.82-24.98,4.23-24.98,15.82-24.98,15.65,15.94,15.82,24.98c.06,3.21,5.06,3.22,5,0-.2-10.46-3.75-23.18-13.87-28.28-8.93-4.5-18.04.81-22.76,8.68-6.18,10.3-6.6,24.35-1.95,35.3,3.58,8.42,11.69,16.43,21.6,13.78,12.32-3.29,16.76-18.29,16.98-29.48.06-3.22-4.94-3.22-5,0Z"/><path class="cls-1" d="m31.11,83.97c-5.8,8.95-15.48,14.21-26.11,14.47-2.38.06-3.53,3.46-1.26,4.66,11.42,6.02,23.57,10.35,36.42,11.93,9.04,1.11,18.14.96,27.19,2.33,13.35,2.02,26.48,5.37,37.61,13.33,9.74,6.96,17.42,16.4,23.53,26.61.54.91,1.78,1.5,2.82,1.15,19.48-6.51,36.22-18.35,48.37-34.97,1.9-2.6-2.44-5.1-4.32-2.52-11.34,15.51-27.22,26.61-45.38,32.68l2.82,1.15c-5.93-9.91-13.27-19.05-22.4-26.21-10.66-8.36-23.04-12.67-36.24-15.11-9.35-1.73-18.66-2.48-28.14-2.91-13.97-.64-27.47-5.28-39.76-11.76l-1.26,4.66c12.45-.3,23.64-6.48,30.43-16.94,1.76-2.71-2.57-5.22-4.32-2.52h0Z"/><path class="cls-1" d="m155.58,124.61c14.93,3.53,24.14-9.88,22.74-23.53-.61-5.97-4.42-10.66-10.86-9.6-6.91,1.14-10.69,7.99-8.07,14.48,1.19,2.95,6.03,1.66,4.82-1.33-1-2.48-.71-5.23,1.41-7.19,1.66-1.53,5.15-1.54,6.59.23,2.07,2.55,1.33,7.76.77,10.69-1.53,7.93-7.7,13.42-16.07,11.44-3.13-.74-4.46,4.08-1.33,4.82h0Z"/><path class="cls-1" d="m161.98,102.64c-4.32-1.55-8.64-3.1-12.96-4.65-3.03-1.09-4.34,3.74-1.33,4.82,4.32,1.55,8.64,3.1,12.96,4.65,3.03,1.09,4.34-3.74,1.33-4.82h0Z"/><path class="cls-1" d="m90.53,96.56c-5.1-15.47,3.24-30.32,19.29-33.07,3.17-.54,1.82-5.36-1.33-4.82-18.68,3.19-28.66,21.38-22.78,39.22,1,3.04,5.83,1.74,4.82-1.33h0Z"/><path class="cls-1" d="m111.12,62.75c6-3.79,12.66-5.91,19.75-6.2,3.21-.13,3.22-5.13,0-5-7.95.33-15.55,2.63-22.28,6.88-2.71,1.71-.21,6.04,2.52,4.32h0Z"/><path class="cls-1" d="m110.85,59.44c-1.65-6.23-4.59-11.8-8.68-16.77-2.05-2.49-5.57,1.07-3.54,3.54,3.54,4.3,5.97,9.19,7.4,14.56.83,3.11,5.65,1.79,4.82-1.33h0Z"/></g><rect class="cls-2" width="190" height="190"/></svg>