<?xml version="1.0" encoding="UTF-8"?><svg id="Capa_1" xmlns="http://www.w3.org/2000/svg" width="184.99" height="176.5" viewBox="0 0 184.99 176.5"><defs><style>.cls-1{fill:#fff;}</style></defs><path class="cls-1" d="m162.49,81.44h-37c-2.33,0-4.3,1.97-4.3,4.3v72.54l4.3-4.3H59.49l4.3,4.3v-72.54c0-2.33-1.97-4.3-4.3-4.3H22.49l3.04,7.35c20.38-19.64,40.76-39.28,61.14-58.92,2.95-2.85,5.91-5.69,8.86-8.54h-6.09c20.38,19.64,40.76,39.28,61.14,58.92,2.95,2.85,5.91,5.69,8.86,8.54,3.99,3.85,10.09-2.23,6.09-6.09-20.38-19.64-40.76-39.28-61.14-58.92-2.95-2.85-5.91-5.69-8.86-8.54-1.7-1.64-4.38-1.64-6.09,0-20.38,19.64-40.76,39.28-61.14,58.92-2.95,2.85-5.91,5.69-8.86,8.54-2.7,2.61-.64,7.35,3.04,7.35h37l-4.3-4.3v72.54c0,2.33,1.97,4.3,4.3,4.3h66c2.33,0,4.3-1.97,4.3-4.3v-72.54l-4.3,4.3h37c5.54,0,5.55-8.61,0-8.61Z"/></svg>