<?xml version="1.0" encoding="UTF-8"?><svg id="Capa_2" xmlns="http://www.w3.org/2000/svg" width="98.33" height="73.95" viewBox="0 0 98.33 73.95"><defs><style>.cls-1{fill:#fff;}.cls-2{fill:#fcbf49;}.cls-3{fill:#75aadb;}</style></defs><g id="Capa_1-2"><g><path class="cls-2" d="m66.71,13.75l-7.85,7.65c-.2.19-.29.47-.24.74l1.85,10.81c.12.68-.6,1.2-1.21.88l-9.71-5.1c-.24-.13-.53-.13-.78,0l-9.71,5.1c-.61.32-1.33-.2-1.21-.88l1.85-10.81c.05-.27-.04-.55-.24-.74l-7.85-7.65c-.49-.48-.22-1.32.46-1.42l10.85-1.58c.27-.04.51-.21.63-.46L48.42.46c.31-.62,1.19-.62,1.49,0l4.85,9.83c.12.25.36.42.63.46l10.85,1.58c.68.1.96.94.46,1.42Z"/><path class="cls-2" d="m93.79,44.5l-4.73,4.61c-.2.19-.29.47-.24.74l1.12,6.51c.12.68-.6,1.2-1.21.88l-5.84-3.07c-.24-.13-.53-.13-.78,0l-5.84,3.07c-.61.32-1.33-.2-1.21-.88l1.12-6.51c.05-.27-.04-.55-.24-.74l-4.73-4.61c-.49-.48-.22-1.32.46-1.42l6.53-.95c.27-.04.51-.21.63-.46l2.92-5.92c.31-.62,1.19-.62,1.49,0l2.92,5.92c.12.25.36.42.63.46l6.53.95c.68.1.96.94.46,1.42Z"/><path class="cls-2" d="m29.21,31.53l-5.77,5.62c-.2.19-.29.47-.24.74l1.36,7.94c.12.68-.6,1.2-1.21.88l-7.13-3.75c-.24-.13-.53-.13-.78,0l-7.13,3.75c-.61.32-1.33-.2-1.21-.88l1.36-7.94c.05-.27-.04-.55-.24-.74l-5.77-5.62c-.49-.48-.22-1.32.46-1.42l7.97-1.16c.27-.04.51-.21.63-.46l3.57-7.22c.31-.62,1.19-.62,1.49,0l3.57,7.22c.12.25.36.42.63.46l7.97,1.16c.68.1.96.94.46,1.42Z"/><path class="cls-3" d="m1.96,50.62h27.74c1.08,0,1.96.88,1.96,1.96v21.37H9.81c-5.41,0-9.81-4.4-9.81-9.81v-11.56c0-1.08.88-1.96,1.96-1.96Z"/><path class="cls-3" d="m68.58,61.03h27.84c1.05,0,1.91.86,1.91,1.91v1.45c0,5.27-4.28,9.56-9.56,9.56h-22.11v-11.01c0-1.05.86-1.91,1.91-1.91Z"/><path class="cls-1" d="m35.32,38.12h27.7c1.1,0,1.98.89,1.98,1.98v33.85h-31.67v-33.85c0-1.1.89-1.98,1.98-1.98Z"/></g></g></svg>