<?xml version="1.0" encoding="UTF-8"?><svg id="Capa_2" xmlns="http://www.w3.org/2000/svg" width="98.33" height="97.7" viewBox="0 0 98.33 97.7"><defs><style>.cls-1{fill:#fff;}.cls-2{fill:#fcbf49;}.cls-3{fill:#75aadb;}</style></defs><g id="Capa_1-2"><g><path class="cls-2" d="m66.71,13.75l-7.85,7.65c-.2.19-.29.47-.24.74l1.85,10.81c.12.68-.6,1.2-1.21.88l-9.71-5.1c-.24-.13-.53-.13-.78,0l-9.71,5.1c-.61.32-1.33-.2-1.21-.88l1.85-10.81c.05-.27-.04-.55-.24-.74l-7.85-7.65c-.49-.48-.22-1.32.46-1.42l10.85-1.58c.27-.04.51-.21.63-.46L48.42.46c.31-.62,1.19-.62,1.49,0l4.85,9.83c.12.25.36.42.63.46l10.85,1.58c.68.1.96.94.46,1.42Z"/><path class="cls-2" d="m93.79,44.5l-4.73,4.61c-.2.19-.29.47-.24.74l1.12,6.51c.12.68-.6,1.2-1.21.88l-5.84-3.07c-.24-.13-.53-.13-.78,0l-5.84,3.07c-.61.32-1.33-.2-1.21-.88l1.12-6.51c.05-.27-.04-.55-.24-.74l-4.73-4.61c-.49-.48-.22-1.32.46-1.42l6.53-.95c.27-.04.51-.21.63-.46l2.92-5.92c.31-.62,1.19-.62,1.49,0l2.92,5.92c.12.25.36.42.63.46l6.53.95c.68.1.96.94.46,1.42Z"/><path class="cls-2" d="m29.21,31.53l-5.77,5.62c-.2.19-.29.47-.24.74l1.36,7.94c.12.68-.6,1.2-1.21.88l-7.13-3.75c-.24-.13-.53-.13-.78,0l-7.13,3.75c-.61.32-1.33-.2-1.21-.88l1.36-7.94c.05-.27-.04-.55-.24-.74l-5.77-5.62c-.49-.48-.22-1.32.46-1.42l7.97-1.16c.27-.04.51-.21.63-.46l3.57-7.22c.31-.62,1.19-.62,1.49,0l3.57,7.22c.12.25.36.42.63.46l7.97,1.16c.68.1.96.94.46,1.42Z"/><path class="cls-3" d="m1.96,50.62h27.74c1.08,0,1.96.88,1.96,1.96v21.37H9.81c-5.41,0-9.81-4.4-9.81-9.81v-11.56c0-1.08.88-1.96,1.96-1.96Z"/><path class="cls-3" d="m68.58,61.03h27.84c1.05,0,1.91.86,1.91,1.91v1.45c0,5.27-4.28,9.56-9.56,9.56h-22.11v-11.01c0-1.05.86-1.91,1.91-1.91Z"/><path class="cls-1" d="m35.32,38.12h27.7c1.1,0,1.98.89,1.98,1.98v33.85h-31.67v-33.85c0-1.1.89-1.98,1.98-1.98Z"/><g><path class="cls-1" d="m1.56,78.41h8.67c1.45,0,2.5.32,3.15.95.65.63.98,1.65.98,3.05v2c0,1.4-.33,2.42-.98,3.05-.65.63-1.7.95-3.15.95h-4.96v4H1.56v-14Zm9.09,4c0-.8-.41-1.2-1.24-1.2h-4.13v4.4h4.13c.83,0,1.24-.4,1.24-1.2v-2Z"/><path class="cls-1" d="m31.3,88.61c0,1.4-.33,2.42-.98,3.05-.65.63-1.7.95-3.15.95h-5.16c-1.45,0-2.5-.32-3.15-.95-.65-.63-.98-1.65-.98-3.05v-6.4c0-1.4.33-2.42.98-3.05.65-.63,1.7-.95,3.15-.95h5.16c1.45,0,2.5.32,3.15.95.65.63.98,1.65.98,3.05v6.4Zm-3.72-6.4c0-.8-.41-1.2-1.24-1.2h-3.51c-.83,0-1.24.4-1.24,1.2v6.4c0,.8.41,1.2,1.24,1.2h3.51c.83,0,1.24-.4,1.24-1.2v-6.4Z"/><path class="cls-1" d="m43.49,78.41c1.56,0,2.74.39,3.54,1.17s1.21,1.92,1.21,3.43v4.8c0,1.51-.4,2.65-1.21,3.43s-1.99,1.17-3.54,1.17h-8.06v-14h8.06Zm1.03,4.6c0-1.2-.62-1.8-1.86-1.8h-3.51v8.4h3.51c1.24,0,1.86-.6,1.86-1.8v-4.8Z"/><path class="cls-1" d="m59.18,92.41h-7.44v-2.8h1.86v-8.4h-1.86v-2.8h7.44v2.8h-1.86v8.4h1.86v2.8Z"/><path class="cls-1" d="m72.4,78.41h3.72v10.2c0,1.4-.33,2.42-.98,3.05-.65.63-1.7.95-3.15.95h-4.75c-1.45,0-2.5-.32-3.15-.95-.65-.63-.98-1.65-.98-3.05v-10.2h3.72v10.2c0,.8.41,1.2,1.24,1.2h3.1c.83,0,1.24-.4,1.24-1.2v-10.2Z"/><path class="cls-1" d="m93.06,84.61l-2.89,5h-2.89l-2.89-5v7.8h-3.72v-14h3.92l4.13,7.4,4.13-7.4h3.92v14h-3.72v-7.8Z"/></g><rect class="cls-2" x="3.33" y="96.03" width="91.67" height="1.67"/></g></g></svg>