<?xml version="1.0" encoding="UTF-8"?><svg id="Capa_2" xmlns="http://www.w3.org/2000/svg" width="460.94" height="442.77" viewBox="0 0 460.94 442.77"><defs><style>.cls-1{fill:#75aadb;}</style></defs><g id="Capa_1-2"><path class="cls-1" d="m0,78.23c.02,2.14,2.04,4.24,3.15,6.36,2.2-1.24,5.58-2.03,6.38-3.79,2.17-4.79,3.25-10,5.05-15.99C5.11,65.49-.09,70.76,0,78.23Zm48.93-42.82h-16.68c-.45.57-.87,1.19-1.24,1.84,6.24,5.17,13.84,5.51,17.53.31.34-.48.45-1.28.39-2.15Zm92.59,7.13c-3.05,2.08-3.97.3-5.64-1.9-1.13-1.49-4.13-2.4-6.32-2.41-6.07-.03-9.72-.66-12.04-2.82h-21.2c-.02.36-.08.71-.19,1.05-3.94,12.06.89,19.51,11.98,26.09,12.59,7.47,32.82-.26,36.36-14.43.39-1.58-1.91-3.71-2.95-5.58Zm12.79,106.16c-3.26-.48-6.81.63-10.24,1.07-.46.8-.93,1.6-1.39,2.4,3.57,1.42,7.04,3.31,10.78,4.04,1.63.32,3.84-1.73,5.79-2.71-1.63-1.68-3.05-4.52-4.94-4.8Zm47.13,99.11c-6.23-8.01-14.93-9.41-23.61-3.79-7.13,4.61-8.26,14.06-2.61,21.75,4.8,6.53,12.76,7.69,20.2,2.94,7.52-4.79,10.51-15.14,6.02-20.9Zm16.51,54.96q9.38,9.32,14.16,3.63c-4.94-1.27-9.55-2.45-14.16-3.63Zm38.75-17.45c-1.09,2.18-2.18,4.35-3.49,6.97-3.66-.98-6.54-2.38-9.44-2.35-2.37.02-6.44,1.4-6.78,2.77-.78,3.14-.98,7.74.97,9.65,1.57,1.56,6.66.3,10.12-.18,2.07-.28,4-1.48,5.99-2.27.85.55,1.69,1.09,2.54,1.64.64-5.29,1.28-10.58,1.91-15.87-.6-.12-1.21-.24-1.82-.36Zm61.85,150.57c-3.56-7.23-9.79-6.81-18.11-3.67,4.21,3.77,7.61,7.25,11.55,10.07,1.17.84,4.83.52,5.65-.48,1.17-1.42,1.69-4.33.91-5.92ZM460.94,109.42c-7.11,3.38-13.82,7.28-22.38,7.4-6.62.1-7.72,3.99-4.91,9.07.71,1.28,1.36,2.59,1.87,3.55-5.63,4.97-11.35,9.12-15.76,14.23-2.77,3.21-5.28,9.33.91,11,8.93,2.41,8.19,5.48,2.27,10.8,3.16,2.01,5.89,3.76,9.21,5.88-5.02,3.03-9.3,5.35-3.19,10.73,1.8,1.59,1.21,8.87-.83,10.25-6.21,4.18-4.26,8.82-1.74,12.5,2.86,4.19,4.34,7.49.85,11.78-3.56,4.39-7.74,3.77-12.63,2.36-3.13-.91-8-1.8-9.97-.29-13.09,10.02-28.71,11.13-44.74,12.72-1.1,3.18-2.26,6.5-3.41,9.78,18.24,7.2,25.23,18.17,13.98,35.98,18.89-.44,24.01,11.33,27.26,23.21-7.4,10.08-16.2,19.55-30.79,14.18-14.46-5.33-14.85-16.95-10.68-29.01-18.61-3.25-26.56-8.26-27.03-20.03-.35-8.93,2.33-18.38,13.5-21.49-1.76-3.81-4.38-7.1-4.69-10.6-1.21-13.58-.93-13.61-11.82-16.49-3.92-6.25-7.05-11.25-10.66-17-9.4-8.6-20.59-.64-28.68-.28-3.78-4.39-5.76-8.46-9.15-10.14-3.66-1.82-8.62-1.41-12.07-1.86,6.12-3.48,6.23-8.47-.26-13.59-1.82-1.44-4.03-2.47-6.06-3.68-1.24,2.04-3.74,4.23-3.5,6.09,1.16,9.04-1.83,15.53-13.62,18.83,4.91,1.19,7.74,1.89,11.38,2.77-.19,3.3-.37,6.65-.47,8.4,4.59,3.19,10.59,5.35,12.38,9.23,1.55,3.35-1.69,8.67-3.08,14.2,7.85-5.18,15.19-6.53,22.85,1.35-2.41,1.87-4.83,3.74-7.44,5.77,1.95.55,4.56,1.29,8.4,2.37-2.1,1.34-3.25,2.68-4.44,2.73-6.81.25-13.76.88-20.4-.08-2.72-.39-5.21-4.16-7.03-6.85-1.91-2.82-2.32-6.59-4.39-9.26-5.43-7.01-13.17-8.66-22.42-8.13-13.44.75-20.51-6.54-18.13-17.31,13.48.7,14.4-.55,10.58-11.5,8.12-12.68,15.53-24.24,23.66-36.92-3.07-1.47-6.24-3.09-9.5-4.54-10.49-4.67-12.69-11.09-7.27-20.72.64-1.14.72-2.99.19-4.17-3.03-6.74-6.53-13.29-9.4-20.08-1.06-2.47-1.72-5.62-1.04-8.13,1.98-7.39,4.71-14.62,7.02-21.5,5.98-2.67,12.6-6.39,19.74-8.59,7.16-2.21,14.98-5.25,21.6,1.14,1.43-1.79,2.46-3.08,3.34-4.18,3.92,7.01,8.18,13.36,11.06,20.23,1.85,4.43,3.74,12.91,2,13.87-5.77,3.21-3.32,5.34-1.99,6.96-5.33,5.91-10.33,11.46-15.24,16.9,4.73,9.59,4.39,10.23-7,13.88-.56,5.2.71,9.06,7.31,9.75,5.12.53,10.17,1.92,15.3,2.05,9.81.24,15.98,4.75,19.1,12.94,2.01,5.29,5.12,6.46,10.81,4.57,2.93-.98,6.46-.19,9.69-.51,2.58-.26,5.1-.99,7.65-1.52-1.26-2.94-1.87-7.91-3.89-8.44-5.69-1.49-11.96-1.16-18.1-1.55,4.93-7.18,2.62-12.71-7.63-15.17-.72-.18-1.46-1.58-1.53-2.47-.66-7.93-2.54-16.03-1.35-23.76,1.34-8.72-1.41-19.36,11.24-25.55-17.91,3-25.74,1.71-23.26-10.98,4.74-1.38,9.58-2.41,14.08-4.19,6.8-2.7,13.36-5.94,20.03-8.94-3.23,4.16-3.36,9.22,1.3,11.06,5.39,2.13,7.96-2.48,8.92-7.14.03-.16.09-.32.15-.48.07-.03.15-.06.22-.08.01,0-.12-.17-.12-.17-1.72-2.49-3.46-4.97-5.19-7.46.06-.04.12-.08.18-.12-.07-.07-.14-.15-.21-.22.06-.84.12-1.67.19-2.51h0s.02-.33.02-.33c-.04.06-.08.11-.12.17-.59-.91-1.17-1.8-1.76-2.71-.03.06-.07.12-.1.18-.58-.91-1.17-1.81-1.76-2.72-.03.06-.07.12-.1.18-.64-.88-1.27-1.74-1.91-2.62-.27-.35-.51-.73-.71-1.12-2.66.62-5.32,1.24-7.98,1.86h0c-.92-1.53-1.84-3.04-2.76-4.55l.38.05c.82-.85,1.64-1.69,2.45-2.54-.07-.09-.14-.19-.21-.28.06-.8.11-1.61.17-2.41C287.57,8.29,255.2-4.96,225.36,1.7c-28.19,6.29-43.45,27.98-47.23,33.71-.39,2.03-2.92,4.36-4.28,7.9-.54,1.41-4.03,2.19-6.29,2.68-6.65,1.46-13.37,2.63-21.85,4.25,3.41,5.92,4.75,10.79,8.1,13.56,9.45,7.83,12.52,16.8,8.56,25.88,2.78,2.98,6.56,5.22,6.68,7.68.13,2.41-3.47,5.03-6,8.3,3.6-.2,6.79-.78,9.85-.44,5.41.6,5.44,3.85-.09,8.38,1.74,1.86,3.48,3.72,4.16,4.44,4.96-.16,8.57-.27,12.17-.38.08.77.15,1.53.22,2.3-1.87.81-3.74,1.61-6.47,2.79,3.71.38,6.39.65,9.07.91.01.48.01.95.02,1.42-5.59,1.63-11.17,3.26-16.8,4.9,2.2,7.55,1.57,8.83-7.34,13.15,5.63,3.36,1.63,6.15-.3,9.56-1.57,2.76-3.26,6.79-2.2,9.22,2.43,5.6,7.16,10.29,9.69,15.86,1.81,3.97,2.1,8.79,1.89,13.2-.06,1.39-3.89,2.69-6.45,4.32,1.09,3.18,2.81,6.15,3.04,9.24.6,8.16,5.46,13.39,13.77,15.09,2.31.47,5.94,3.37,5.76,4.88-1.33,11.63,5.49,16.59,15.79,21,4.88,2.09,7.91,8.54,10.55,13.58.45.86-5.37,4.58-8.24,7.02-.79.67-1.41,1.5-3.29,3.53,14.19-6.23,14.46-6.18,27.09,4.7-1.11,2.85-2.21,5.66-3.3,8.48.54.26,1.08.52,1.63.78,2.38-1.82,4.77-3.63,7.51-5.72,1.25,2.43,2.21,4.3,4,7.78,4.86-10.6,11.33-9.55,18.39-4.4.2.15.54.15.75.3,2.8,2.08,5.59,4.17,8.38,6.26-3.04,1.01-6.09,1.99-9.12,3.05-.45.15-.76.64-2.8,2.45,6.28,5.09,12.53,10.05,18.63,15.17,1.93,1.62,3.6,3.57,4.99,5.6.27.39-1.47,2.79-2.07,2.73-2.54-.27-5.42-.58-7.4-1.88-3.68-2.41-6.82-5.53-11.85-9.75.48,3.38.17,5.08.92,5.7,2.07,1.74,4.47,3.2,6.93,4.47,4.43,2.31,8.99,4.41,13.5,6.6,1.05-2.79,2.03-5.61,3.22-8.35.24-.58,1.26-.87,4-2.62.65,4.31,1.86,7.68,1.52,10.94-1.16,11.21-10.94,6.88-20.49,7.56,4.28,6.98,7.57,12.33,10.72,17.47-1.28,4.79-3.99,10.47-4.08,16.15-.21,13.36,9.41,19.68,21.88,23.07,5.46,1.48,6.21,4.14,3.57,8.6-1.46,2.46-3.48,5.58-2.96,7.93,2.37,10.58,8.75,18.14,20.66,20.91,2.72.64,5.18,2.23,7.9,3.45,5.71-5.03,12.68-9.45,17.01-15.49,3.7-5.15,4.39-12.14,6.73-19.3,5.31,3.76,9.56,6.91,13.99,9.83,1.67,1.1,4.5,2.87,5.5,2.31,8.83-4.98,8.56,1.46,8.96,6.12.46,5.3.06,10.67.02,16.71,1.41,1.18,3.35,3.84,5.99,4.73,3.36,1.13,7.3.82,9.74,1.03-2.63-2.63-6.66-6.65-10.68-10.67.54-.88,1.08-1.76,1.62-2.65,6.67,1.41,13.34,2.81,20.01,4.21-3.31-3.37-3.51-10.3-10.62-7.63-.42.15-1.57-1.26-2.28-2.02-7.19-7.66,1.1-11.89,4.46-17.9,2.44,1.39,4.35,2.48,6.08,3.46,4.15-4.31,7.91-8.22,11.8-12.28-.04-1.24-.8-3.81.08-5.76.47-1.03,4.22-1.87,5.79-1.27,12.13,4.65,31.26.93,29.25,22.14q5.53-3.56,1.08-9.05c2.14-.9,4.23-1.79,6.44-2.72V109.42Zm-23.78,3.5c1.29-1.12,2.51-2.14,3.66-3.21.95-.89,1.83-1.85,2.59-2.62-3.37-3.27-6.48-6.3-10.95-10.65,2.61,6.26-5.03,12.99,4.7,16.48Zm-11.24-70.54c1.31.12,2.83-2.36,3.39-3.17.81-1.17,1.29-2.45,1.38-3.8h-21.48c.1,1.15.36,2.23.99,2.43,2.32.73,6.57-11.39,9.79-10.82,3.43.6,2.84,15.08,5.93,15.36Zm-8.74,3.58c-3.45,3.67-7.25,6.71-9.42,10.53-.78,1.36,2.4,4.62,4.36,8.03-1.52,2.88-3.76,7.11-6.87,12.99,12.39-8.65,17.96-23.23,11.93-31.55Z"/></g></svg>