<?xml version="1.0" encoding="UTF-8"?><svg id="Capa_2" xmlns="http://www.w3.org/2000/svg" width="41.6" height="41.6" viewBox="0 0 41.6 41.6"><defs><style>.cls-1{fill:none;stroke:#fff;stroke-miterlimit:10;stroke-width:1.6px;}</style></defs><g id="Capa_1-2"><g><path class="cls-1" d="m40.8,20.8c0,4.68-1.61,8.99-4.3,12.39-3.66,4.63-9.33,7.61-15.7,7.61s-12.03-2.97-15.7-7.61c-2.7-3.41-4.3-7.71-4.3-12.39C.8,9.76,9.75.8,20.8.8s20,8.96,20,20Z"/><path class="cls-1" d="m36.49,33.19c-3.66,4.63-9.33,7.61-15.7,7.61s-12.03-2.98-15.7-7.61c2.21-4.59,5.61-8.14,9.63-9.94-1.94-1.7-3.17-4.18-3.17-6.96,0-5.1,4.14-9.23,9.23-9.23s9.23,4.14,9.23,9.23c0,2.78-1.22,5.26-3.17,6.96,4.03,1.8,7.42,5.34,9.63,9.94Z"/></g></g></svg>