<?xml version="1.0" encoding="UTF-8"?><svg id="Capa_2" xmlns="http://www.w3.org/2000/svg" width="376.85" height="95.72" viewBox="0 0 376.85 95.72"><defs><style>.cls-1{fill:#fff;fill-rule:evenodd;}.cls-2{fill:none;}</style></defs><g id="Capa_1-2"><g><path class="cls-2" d="m376.85,14.19c-124.66-18.93-252.18-18.91-376.85,0l12.36,81.53c116.49-17.67,235.63-17.68,352.12,0l12.36-81.53Z"/><path class="cls-1" d="m12.25,59.01c.4.57.73.56,1.01.1-.33.04-.75-.7-1.01-.1Z"/><path class="cls-1" d="m12.94,57.27c.31-.21.74.68,1.01.1-.35-.18-.77-.95-1.01-.1Z"/><path class="cls-1" d="m15.91,60.11c.4.37.34-.18.84-.4-.23-.41-.4-.31-.6-.47-.18.3-.04.57-.23.87Z"/><path class="cls-1" d="m27.51,73.97c.17.21.34.43.5.65.15-.63.41-.22.58-.71-.43-.62-.79-.6-1.08.07Z"/><path class="cls-1" d="m14.82,57.3c-.11.51.69,1,.83.45-.07-.64-.29-.19-.64-.81,0,.26,0,.51-.18.36Z"/><path class="cls-1" d="m29.06,74.22c.41-.04.49.54.75.97.12-.57-.04-1.13-.39-1.67-.12.23-.24.47-.36.7Z"/><path class="cls-1" d="m21.89,61.25c-.07.61.74.79.88-.05-.38-.76-.52.65-.88.05Z"/><path class="cls-1" d="m33.31,75.34c.17.05.45-.24.34.15.26.38.38-.55.58-.71.24.63.62.87,1.09,1.13-.15-1.36.6-1.29,1.13-1.75-.33-.03-.63.21-1.02-.45.1.93-.13.56-.55,1.05-.05-.23-.11-.45-.28-.66-.25.42-.54.44-.87.05-.24.41-.46.82-.42,1.21Z"/><path class="cls-1" d="m23.37,61.67l.51.65c-.01-.25.05-.73.27-.53.12-.49-.66-.85-.78-.12Z"/><path class="cls-1" d="m24.18,56.87c.35.18.66-.03.94-.57-.36-.1-1.01-.28-.94.57Z"/><path class="cls-1" d="m42.74,78.59c.36.5.9.32.83-.38-.28.07-.58-.05-.83.38Z"/><path class="cls-1" d="m27.51,56.99c.37.06.83.9,1.1-.06-.39-.2-.78-.41-1.1.06Z"/><path class="cls-1" d="m40.06,67.35c.5.28.37-.48.9-.89-.15-.04-.3-.09-.47-.32-.05,1.13-.69.25-.44,1.21Z"/><path class="cls-1" d="m31.01,54.43c.08-.56-.7-.52-1.01-1.3-.25.78.66,1.01,1.01,1.3Z"/><path class="cls-1" d="m34.98,55.4c.36-.09.75.19,1.07-.4-.46-.24-.9-.19-1.38-.6-.35.36.66.64.32,1Z"/><path class="cls-1" d="m49.14,73.73c-.04,1.05.65.15.89.3.06-.86-.66-.18-.89-.3Z"/><path class="cls-1" d="m49.59,70.15c-.31-.64-.47.4-.8-.47-.16.46-.11.91.12,1.35.23-.86.77-.04.69-.88Z"/><path class="cls-1" d="m56.68,79.73c.43.39.85.68,1.2.12-.4-.09-.82-.39-1.2-.12Z"/><path class="cls-1" d="m31.29,45.93c.28.6.46.17.73.64.35-.47.03-.91-.35-1.34l-.38.7Z"/><path class="cls-1" d="m34.68,49.99c.36.7.64.49.95.63.08-.52-.79-1.42-.95-.63Z"/><path class="cls-1" d="m33.66,46.31c.09.17.16.09.22-.01.97.81,1.77-.08,2.72.53.44-.59.07-1.14.28-1.71-.55-.47-.34.6-.73.55-.46-.42-.21-.83-.63-.81.07.92-.59.71-.88,1.23-.32-.62-.56-.41-.86-.8-.46.37.34.66-.12,1.03Z"/><path class="cls-1" d="m54.91,71.31c-.24-.2.36-.63.5-.53.15-.89-.4.16-.58-.48-.41.41-.1.79-.23,1.19.32.33.62.47.92.65.25-.56-.32-.85-.61-.83Z"/><path class="cls-1" d="m24.36,31.55c.41.35.86,1.11,1.16.27-.39-.16-.82-.69-1.16-.27Z"/><path class="cls-1" d="m24.13,30.37c-.11.6.65.58.8.13-.36-.91-.51.12-.8-.13Z"/><path class="cls-1" d="m25.84,31.64c.26-.41.09-.8.22-1.2-.21-.15-.37.05-.58-.14-.1.46.09.9.36,1.34Z"/><path class="cls-1" d="m56.19,70.93c.05,1.05.89.29,1.26.8.2-1.13-.89-.92-1.26-.8Z"/><path class="cls-1" d="m20.56,20.93c.36.17.82-.34,1.35-1.28-.45.39-.95.33-1.35,1.28Z"/><path class="cls-1" d="m60.38,71.8c-.04-.55-.65-1.25-.92-.65.04.52.66,1.44.92.65Z"/><path class="cls-1" d="m33.14,36.15c.43.64,1.64.02.93-.9-.25.93-.63.51-.93.9Z"/><path class="cls-1" d="m41.92,46.58c.16.91,1.18.86,1.55-.07-.25-.22-.16-.45-.06-.68-.59-.78-.93,1.23-1.49.75Z"/><path class="cls-1" d="m27.2,25.96c.53.79.98.74,1.39.26-.43.21-.99-.91-1.39-.26Z"/><path class="cls-1" d="m62.48,72.24c.17.04.33.09.24.33.63-.79,1.39.26,2.02-.56-1.01.13-1.66-1.82-2.26.23Z"/><path class="cls-1" d="m38.12,36.58c.33.73.5-.29.74-.54-.15-.04-.31-.08-.48-.32.01.28-.08.57-.26.86Z"/><path class="cls-1" d="m64.95,72c-.21.62.35.19.48.66-.29-1.03.37-.08.7-.86-.32-.89-.45.73-.77-.15-.13.26-.25.52-.41.35Z"/><path class="cls-1" d="m66.28,72.31c.72.25.97,1.57,1.47.81-.71-.55.1-1.13-.56-1.68.07,1.19-.62.24-.91.87Z"/><path class="cls-1" d="m37.8,29.3c.54.16,1.23-.39.68-1.22-.38.55-.56.41-.68,1.22Z"/><path class="cls-1" d="m69.96,72.22c.48.76.87.09,1.32.31.25.39.01.79-.24,1.19.79.44.63-1.25,1.66-1.06-.27-.72-.26-.39-.72-1-.43.65.18.2.38.84-.79.09-1.65-.96-2.4-.28Z"/><path class="cls-1" d="m57.11,49.19c.52.47,1.01-.29,1.15-.89-.49-.07-1.04-.04-1.15.89Z"/><path class="cls-1" d="m48.94,37.45c.41.04.15.23.5.66.16-.4,0-.79.01-1.18-.2-.17-.35.29-.52.53Z"/><path class="cls-1" d="m59.34,39.11c.49.13.98.22,1.41-.55-.44.33-1.36-.33-1.41.55Z"/><path class="cls-1" d="m50.77,19.58c.3.44.55.24.83.48.36-.35-.66-.65-.3-1-.2-.17-.35.29-.53.53Z"/><path class="cls-1" d="m44.13,10.68c.49.4.91,0,1.31-.73-.43.19-1.29,0-1.31.73Z"/><path class="cls-1" d="m71.24,43.87c.16.22.32.45.48.67.02-.25.03-.51.2-.34.17-.52-.56-.94-.68-.33Z"/><path class="cls-1" d="m53.2,15.76c.53.54.98-.14,1.54.79.17-.4-.14-.78-.2-1.18.29-.33.83.26.76-.54-.28-.25-.49.54-.81-.14-.11,1.2-.82.27-1.28,1.07Z"/><path class="cls-1" d="m73.1,39.94c.18-.01.39.36.57.16.32-.48-.08-1.2-.41-1.18-.48.35.32.67-.16,1.02Z"/><path class="cls-1" d="m59.73,14.86c.1.85,1.61,1.04,1.59-.04-.52.14-1.01.65-1.59.04Z"/><path class="cls-1" d="m58.28,8.97c.42.51.79.34,1.12-.37-.37.16-.77-.12-1.12.37Z"/><path class="cls-1" d="m65.58,17.41c.39.12.79.57,1.13-.03-.39-.21-.78-.43-1.13.03Z"/><path class="cls-1" d="m69.74,18.66c.28.29.52-.14.8.15.1-.28-.22-.56-.39-.84l-.41.69Z"/><path class="cls-1" d="m71.4,18.12c.34.6.6-.02.92.32.11-.38-.74-1.15-.92-.32Z"/><path class="cls-1" d="m89.05,41.25c.11-.11.05-.23-.02-.34.14-.17.3.17.46.34.25-.2.08-1.2.51-.85.35-.62-.61-.19-.26-.68-.34.1-1.34.75-.7,1.53Z"/><path class="cls-1" d="m90.22,40.06c.17.35.3.18.44,0,.18.22.35.45.25.67.19.18.36-.29.53-.51l-.59-.84c-.19.62-.43.2-.63.68Z"/><path class="cls-1" d="m92.92,43.26c.31.21.59,0,.87-.35-.32-.6-.6-.18-.87.35Z"/><path class="cls-1" d="m77.74,20.2c.5.19.38-1.01.15-1.36-.57,0-.09.86-.15,1.36Z"/><path class="cls-1" d="m76.72,18.19c.61.27,1.48.74,1.67-.54-.55.36-1.17-.69-1.67.54Z"/><path class="cls-1" d="m78.52,20.02c.37-.16.76.13,1.11-.36-.39-.17-.75.02-1.15-.32-.08.23.17.45.04.68Z"/><path class="cls-1" d="m80.6,22.86c.97-.35,1.24.22.48-1.53-.44.51-.36,1.02-.48,1.53Z"/><path class="cls-1" d="m96.22,42.91c.39.5.76.5,1.11,0-.38-.13-.76-.59-1.11,0Z"/><path class="cls-1" d="m101.7,44.45c1-.96,1.94-.18,2.48-1.52-.81.05-1.62.15-2.41.67-.12-.23.09-.45.19-.68-.78-.6-.74.76-.27,1.53Z"/><path class="cls-1" d="m87.27,21.1c.62.46.14-1.31.52-.85-.03-1.1-.73.47-.52.85Z"/><path class="cls-1" d="m87.81,20.59c.35.22.68.18.99-.52-.35-.2-.68,0-.99.52Z"/><path class="cls-1" d="m106.74,43.11l.47.68c.2-.28.08-.56.3-.84-.25.14-.53-.29-.77.16Z"/><path class="cls-1" d="m95.54,24.79c.15-.4-.15-.79.29-1.19-.54-.19-1.11,1.09-.29,1.19Z"/><path class="cls-1" d="m110.57,9.6c.59,1.02.98-.17,1-.84-.34,0-.67.47-1,.84Z"/><path class="cls-1" d="m122.04,10.28c.5.64.41-.86,1.02-.15.25.65-.43.44-.55.83.47.4.84-.09,1-.82-.3-.06-.42-.24-.47-.69.47-.85.99.46,1.47-.48-.26-.02-.53.17-.8-.53-.62.84-1.23.47-1.59-.03,0,.62.54,1.26-.07,1.86Z"/><path class="cls-1" d="m126.35,10.03l.46.69c.42-.61.45-.28.66-1.01-.42-.59-1.02.87-.69-.35-.31-.4-.41.52-.44.67Z"/><path class="cls-1" d="m128.06,10.91c-.02-.45.36-.9.66-1.34l-.35-.51c-.11.22-.22.26-.34.16,0,.64.13.45-.32.84.22.29.11.57.35.86Z"/><path class="cls-1" d="m129.88,11.62c.37-.64.75-.09,1.13-.64-.5-.41-.98.37-1.48-.55-.2.75.18.44.36,1.19Z"/><path class="cls-1" d="m131.68,9.99c-.32.38-.44.78-.1,1.18.15-.04.3-.09.45-.33-.02-.28-.14-.57-.35-.86Z"/><path class="cls-1" d="m132.02,10.51c.22.29.11.57.35.86.22-.25.09-.72.33-.5.12-.28-.2-.57-.35-.86l-.33.5Z"/><path class="cls-1" d="m132.68,9.17c-.06.35.84,1.43,1.14.71-.38-.33-.77-.89-1.14-.71Z"/><path class="cls-1" d="m139.28,11.07c.26-.63.52-.43.79-.83-.27-.66-.53.12-.8-.53-.22.45-.45.89.01,1.36Z"/><path class="cls-1" d="m142.78,10.67c.31.42.61.43.91.03l-.46-.7-.45.66Z"/><path class="cls-1" d="m144.94,10.92c.45.22.91.25,1.36.4.36-.38-.71-.82-.34-1.2-.28-.19-.22.28-.34.49-.23.19-.46-.4-.68.31Z"/><path class="cls-1" d="m146.4,9.12c.26.31.53-.45.79-.14-.06-.64-.36-.74-.8-.88-.2.33.3.69,0,1.02Z"/><path class="cls-1" d="m149.01,11.77c.68-.95,1.36.03,2.04.09.44-1.03-.84-1.2-1.13-2.08-.1.96.07,1.05-.68,1.33-.49-.75-.42-1.28-1.02-1.23-.09.96.18,1.17.79,1.9Z"/><path class="cls-1" d="m149.13,9.57c.49.25.98-.16,1.47.23-.04-.48-1.05-1.21-1.47-.23Z"/><path class="cls-1" d="m151.51,8.82c.19.34.38.17.56.53.31-.5-.28-1.03.12-1.52-.23-.12-.45.03-.68.31.48.56.48.16,0,.68Z"/><path class="cls-1" d="m154.79,8.79c.19.43.38.35.56.54-.09-.4.19-.78-.11-1.2-.04.62-.16.2-.46.66Z"/><path class="cls-1" d="m193.81,14.59c.54.58,1.12.19,1.71-.38-.48-.31-.95-.83-1.43-.96-.18.44-.16.89-.27,1.34Z"/><path class="cls-1" d="m204.87,12.27c.23.71.53-.04.78.23.19-.47-.55-.94-.78-.23Z"/><path class="cls-1" d="m216.32,13.99c-.03.67.93.76,1.35.13-.44-.29-.9-.08-1.35-.13Z"/><path class="cls-1" d="m221.82,14.69c.56-.42,1.55-.36,1.76-1.01-.53-.08-1.53.03-1.76,1.01Z"/><path class="cls-1" d="m232.93,14.15c.39.43.83.08,1.22.3.07-.53-.83-1.04-1.22-.3Z"/><path class="cls-1" d="m244.45,17.5c.07-.39.37-.75.43-1.14-.22-.14-.45,0-.7.26.19.31.06.57.27.88Z"/><path class="cls-1" d="m277.75,78.12c.8.57,1.82-.85,2.62-.28-.29-1.33-1.78-.16-2.62.28Z"/><path class="cls-1" d="m280.53,77.35c.3.57.67.47,1.1-.17-.34-.17-.71-.13-1.1.17Z"/><path class="cls-1" d="m265.72,16.29c.12-.27.14-.55-.03-.86.75.1.94.2,1.82-.1-.71-.52-1.45-.62-2.24-.3.39.45.22.83.45,1.26Z"/><path class="cls-1" d="m269.07,19.14c.03-.51.59-.94.26-1.5-.45-.04-.56.93-.26,1.5Z"/><path class="cls-1" d="m268.38,15.79c-.14.27.13.59.25.89.33-.3.48-.62.55-.95-.23-.34-.59.64-.8.06Z"/><path class="cls-1" d="m295.48,15.39c.39.37.65-.37.88-.72-.21-.15-.45-.03-.71.23.08.18-.09.33-.17.49Z"/><path class="cls-1" d="m297.42,13.47c.26.35.77-.65.79-.9-.48-.1-.73.28-.79.9Z"/><path class="cls-1" d="m299.31,14.81c.92.57,1.96.18,2.95.13-.12-.83.47-.59.93-1.05-1.36-.13-2.36.76-3.88.92Z"/><path class="cls-1" d="m302.75,14.67c.35.51.86-.16,1.29-.3-.37-.4-.79-.42-1.29.3Z"/><path class="cls-1" d="m304.49,14.45c.45.08.85.52,1.34.23-.01-.58-.8-1.02-1.34-.23Z"/><path class="cls-1" d="m305.57,15.84c.55.13.73.51,1.03.86.39-.66.62-.67.44-1.65-.23,1.12-.96.25-1.47.78Z"/><path class="cls-1" d="m307.45,6.54c-.23.74.62.48.9.15-.13-.46-.33-.4-.5-.6-.25.21-.19.7-.4.44Z"/><path class="cls-1" d="m311.91,13.66c-.13.09-.09.21-.04.33.06.13.12.25.18.38.41-.75,1.48.12,2.28-.81-.12-.19-.13-.37-.04-.53-.58.36-1.1.21-1.7.74-.46-.92.34-.56.4-1.31-.19-.59-.66.96-.85.37-.2.17.35,1.28-.22.82Z"/><path class="cls-1" d="m309.52,6.54c.7.18,1.44.16,2.25-.48-.71-.12-1.48.13-2.25.48Z"/><path class="cls-1" d="m314.91,13.49c.37,0,.22,1.14.76,1.17-.11-.7.04-1.09.63-1.27-.4-.46-.9-.12-1.39.09Z"/><path class="cls-1" d="m315.85,12.45c.47.47,1.08-.06,1.66-.39-.74-.4-.94.15-1.66.39Z"/><path class="cls-1" d="m320.91,13.19c.17-.26-.22-.62,0-.86-.74-.18-1.72,1.38-2.33.27-.23,1.86,1.68-.15,2.33.59Z"/><path class="cls-1" d="m318.45,11.88c.72.63,1.65-.31,2.52-.75-.7-.71-1.66.4-2.52.75Z"/><path class="cls-1" d="m320.62,9.52c-.19.89.83.05,1.17-.13-.31-.53-.84.52-1.17.13Z"/><path class="cls-1" d="m320.93,10.61c.6.33,1.17.97,1.98-.16-.75.67-1.23-.55-1.98.16Z"/><path class="cls-1" d="m324.01,12.37c-.55-.9.34-1.51.73-1.08.21.71-.39.83-.73,1.08.18.86.65-.26.85.49.41-1.47,2.13-2.87,2.91-3.42.13-1.2-1.65.68-1.81,1.38.06-1-.82-.35-.39-1.28-.99.91-1.87,2.08-3.26,3.55.45.59,1.07.03,1.71-.72Z"/><path class="cls-1" d="m327.3,11.08c-.16.26.11.59.22.9.32-.08.71-.67.99-.5.08-.28-.06-.59.23-.82-.2-.2-.42-.25-.62-.46-.37.4-.27,1.48-.82.88Z"/><path class="cls-1" d="m328.44,12.67c.35-.02,1.2-.33.73-1.07-.48.31-.41.73-.73,1.07Z"/><path class="cls-1" d="m329.41,10.79c-.32.77.5.15.57.8.19-.62.07-.67.6-.92-.3-.59-.8.24-1.17.12Z"/><path class="cls-1" d="m7.14,57c-.21-.38.25-.81-.25-1.17-.14.34-.35.18-.49.55.9.03,0,3.04.65.8.97.07,1.89-.31,2.94.47.34-.77.52-.52.79.11.07-.23-.2-.44-.08-.67.37-.38.21.63.65.8,0-.81.24-.73.65-2.08-.44-.27-.75.52-1.11.93-.44-.92-.7-.26-1.01-.1-.9-1.48-1.9-.53-2.36-1.19-.4.76.71,1.21.91,1.12-.35.81-.94-.46-1.28.43Z"/><path class="cls-1" d="m17.4,62.55c.63.38,1.2.18,1.75-.11-.44-.31-.2-.67-.55-.98-.04,1.44-.77.51-1.2,1.09Z"/><path class="cls-1" d="m20.15,62.55c.32-.02.39-.43.02-.85.13-.18.31.15.48.31.37-.42.2-.81.42-1.22.66-.02,1.35.24,1.94-.46.99,1.66,1.63.1,2.48.52.1,1.36-1.17.57-1.14,1.77,1.16-.61,2.01.53,3.21-.88.41.72.69,1.34,1.13.27.37.72.31,1.56-.14,1.87.23.46.36-.1.56.14-.27-.55.37-1.15-.17-1.69.85.83,1.49-.46,2.28-.29-.93.77-1.49,1.54-1.71,1.62.46,1.21,1.55-.6,2.21-.97.14.87.87.58,1.25.44.07-.23-.19-.44-.07-.68.1-.11.22-.01.31-.19.07.28-.08.57.19.84.91-.03,1.75-.77,2.65-.98.08.16.03.33.16.5-.94.41-1.2,1.02-2.05,1.47.84.72,1.54,0,2.34.38.2-.63-.36-.18-.5-.65.14-.44.33-.35.5-.54.55.47.28,1.35.79,1.32.18-.29.04-.57.25-.86-.12-.16-.21.08-.31.18-.29-.38-.37-1.72-.5-.65-.74-.88,0-1.33.43-1.21-.5.55.68.56.35,1.34.32.29.5-.92.81-.72.38.63-.35,1.12-.65,1.22-.23.46.35.88.13,1.35.44.41.77-.39,1.22.11.05.74-.39.55-.53,1.38.49.95.77-.38,1.25.44.14-.62-.52-.27-.75-.98.33,0,.64-.14,1,.12-.55-.66-.33-1.07-.28-1.85.1-.11.22,0,.31-.18.52.32-.21.69.31,1.01.37-1.13,3-.43,2.93.89.23-.63.64-.32.56-1.04.62.48.29,1.01.68,1.5-.56-.15-1.04.57-1.62.24.4.73,1.67.76,2.33.41.24.33-.1.68.31,1,.41-.54.84-1.15,1.62-.24-.02-.87.45-.78.07-1.7.39.72.7-.4,1.33.28-.43-1.22.85-.55.75-1.39.83.47-.37,1.03.24,1.52.27-.7.59-.75.94-.55.08.39,0,.79,0,1.19-1.08.5-2.22-.09-2.99.81.31.63.47-.4.81.47,1.25-1.99,2.91.94,4.19-.68,1.52,1.65,3.89-.25,4.7,1.53.45.11.88.11,1.33.29.13-1.3.95-.4,1.47-.73.06.28-.09.57.17.84-.03-.89.74-.95.75-.19,1.12-1.07,2.42.38,3.57-.27-.38-.47.2-.79.36-1.03.23.39-.39.8-.24,1.19,1.07.8,2.01-.31,3.01-.41.07,1.27,1.29,1.31,1.45.47.26.61.45.19.7.66.41-1.88,2.82.7,3.95-.95,1.08,1.86,2.63-1.26,3.51.62-.33-.18-.65.09-.96.18.31.93,1.3-.41,2.17-.03.35.15,1.65,1.16,1.63.14.19-.4.46.51.69.67.72-.68,1.51-.1,2.22-.88.93.63,2.84.4,4.25.46,18.36,1.74,36.51,2.03,54.67,1.77,18.15-.26,36.31-1.06,54.51-1.47.3.42.02.79-.15,1.18-2.68-1.24-5.48.78-8.17-.3-.21.69-.35.6-.78.79-.1-.33.18-.13.34-.48-.42-.43-.89.82-1.29-.1-.33.43.04.91-.25,1.34-1.13-1.69-2.98-1.22-4.51-.33-1.21-.29-2.42-.83-3.66.09-.14-.18-.16-.35-.1-.51-1.91.95-4.58-.35-5.82.97-.3-.47-.03-.63-.42-.71-.11.22.1.46.2.69-2.42-1.16-4.36,1-6.87-.4-.22,1.11-1.45.06-2.04.05-.99,0-1.69,1.13-2.15.22-.86.72-1.72.76-2.58-.14-.48.31.26.69-.22,1-.1.39-.68-.56-.42-.7-.58.88-1.15.08-1.72.6-.22-.24-.12-.46,0-.68-.75.89-1.5.27-2.26.75-.09-1.28-.06-.14-.64-.71,0,.44-.26.83-.54.82-.01-.28-.13-.57-.32-.86-.49,1.28-1.57-.47-2.58.9-.19-.29-.2-.57-.11-.85-1.25.39-4.21,0-4.51.82-.64.19-1.29-.94-1.93.27-.61-.81-1.69-1.27-1.94-.41-4.06-.59-7.73.33-11.94-.21-.2.22-.07.45-.2.67-.34-.49-.45-.31-.99-.87-2.2,1.12-5.4-.86-7.94.83-.21-.28-.11-.57-.35-.85-1,.19-1.99.67-3.01.29.06.49.36,1.95-.57,2.37-.31-.68-.08-1.08-.69-1.37-.18-.53.52-1.21.74-.5.36-.82-.77-1.18-.66-.35-1.41-1.28-2.71.6-4.12-.74-.25,1.18-1.18.81-1.84-.2-.22.22-.1.45.02.68-1.24-.56-2.44-.1-3.69-.7-.09.28.04.57-.07.85-1.78-.55-4.14.69-5.53-.87-.09.17.06.34.13.51-1.95-.29-3.87.31-5.86-.67-1.34.79-3.66.12-5.4.03-.39.4.13.79-.26,1.19-.14.08-.28.16-.43,0,.3-1.88-1.39-.84-2.02-1.35-.14.92.5.17.68.68.23.72-.46.53-.61.68-.85-2.19-2.22-.78-3.34-1.65-.39.4.14.79-.26,1.19-.14.15-.3-.21-.43,0-.13-.28.15-.57.27-.85-.35-.44-.67-.42-.96.18,0,.34.41.67.06,1.01.24.34.42-.25.67.33-.32.7-.73-.23-1.04.69-.42-.99-.75-.5-1.12-.66-.15-.84.72.17.94-.52-.77-1.12.27-.44.49-.86-1.12-1.19-.93.19-1.99-.65-.16.34.34.67.28,1.01-.1.16-.22-.07-.33-.16-.14.45-.02.62.26.67-.48.97-1.04.61-1.53,1.55-.35-.34-.54-.36-.49-1.01-.47.02-.85,1.43-1.35.87-.27-.33.29-.68.37-1.02-.39-.46-.63.4-.48.85-.29.53-.69-.68-.98-.15-.15-.34.2-.68-.28-1.01-.4,1.3-2.03,1.66-2.14.38-.46.12-.97-.47-1.37.55-.69-1.34-1.44.28-1.8-.97-.42,2.04-2.08-1.01-2.88.58-.93-.42-1.79.14-2.74-.44-.34-.47.55-.07-.05-.67-1.32,1.62-2.93-.51-4.3.47.2.32.37.14.58.49.11.22-.11.46.05.68-.66-.13-1.37-.92-2.02-.95-.08.43.21.33.36.5.24.61-.5-.12-.59.7-.07-.45-.19-.62-.48-.66-.4,1.95-1.77-.59-2.54.77-.43-.44-.46-.89-.11-1.35-.34-.6-.57.03-.89-.31-.09.28.23.56.4.83-.23.73-.53.55-.81.71-.19-.33-.12-.67.13-1.02-.7.68-1.51.12-2.26.25-.15-.33.19-.69-.3-1-.27,1.78-2.68.68-3.34,1.5-.32-.82-1.16-.56-.55-1.34-.48-.16-.48.31-.47.87-.44.14-.72-1.59-1.27-.79.27.57.43-.02.68.3-.13.18-.14.35-.06.51-1.09-.01-2.26-.93-3.21.48-.06-.94-.14-.82-.59-1.67-.28.52.2,1.01.46,1.5-.45,1.41-1.23-.77-1.7.42-.72-.59.15-1.25-.28-1.85-.34.63-.06,1.24-.15,1.87-.35.63-.49-.63-.68-.3-.14-.28.13-.57.25-.86-.4-.21-.94.31-.68.89-.87-1.09-.75-.07-1.43-1.28-.64.71-.74.45-1.52.08-.05.45.39.88-.09,1.36l.62.82c.4,0,.1-.89.65-.03.2-.24.08-.46-.06-.68.67.02,2.72-.48,2.5,1.22.25.38.38-.55.58-.71.44.67.19,1.24-.18,1.53.24.2,1.34.05.8-.71.44-.29.98.44,1.36-.57.23.38-.37.81-.22,1.2.44.66,1.42-.7,1.27.79.31.38.33-.54.15-.69.39-.06.79-.02,1.23.46.08-.29-.07-.56.03-.85.23-.3.51.1.74-.2.05.28.02.56-.03.85.87-.74,1.81-.71,2.78-.46.29.47-.33.07-.37.7.36.47.62-.3,1.01.46-.4.4-.82.45-1.32-.28-.2,1.44-1.5-.16-2.1.77,1.47.37,2.7-.08,3.91.17.2-.63-.35-.18-.49-.66.61-.98.84,1.42,1.44.45-.23-.15-.45-.16-.67-.31.21-.9.59.18.8-.72.3.27.1.56-.04.85.18.06.34-.23.55.15.07-1.17,2-.56,2.89-.27.26.8-.52-.35-.62.36,1.45-.33,2.92-.44,4.43.02.14.28-.14.57-.25.86.53.83.77-.36.69-.87.63-.22.08,1,.75,1.33.57-.41-.49-.77-.2-1.18.9.02,1.72-1.04,2.7.08.23-1.2.68-.67,1.22-1.06.42.33.18.67.51,1,.63-.74,1.32-.58,2.01-.56.21.63-.53.44-.72.52.5.68,1.28.17,1.79-.55.44.38-.03.79.41,1.18-.26.57-.75.14-.69.86,1.36.02,2.22-.46,3.35-1.44.64.49-.31,1.02.21,1.52,1.14-.12,2.27-.37,3.48.59.49-1.12.95-.21,1.29-.03.19-.34-.2-.68.15-1.02.91,1.11,2.73-.77,2.95.8,1.32-.22,3.26.76,4.18-.23.74.94,1.36-.1,2.11,1.16.41-.97.92-.12,1.33-1.21.41.33.16.68.49,1.01,2.5.01,4.99-.43,7.54.64.04-.44.29-.84-.15-.85,2.1.59,4.19,1.03,6.23.33.48-.43,1.04.82,1.53.68.08-.23-.16-.45-.03-.68.66.35,1.49.77,2.36.01l.68,1.02c2.14-.91,4.34-.29,6.53.21.06-.17-.01-.34.09-.51,3.8.78,7.56.03,11.34.51.54-1.05,3.17-.05,4.81-.05.89,0,1.56-.64,2.24.23l.42-.67c.47,1.25,1.38-.44,2.15.73,1.76-1.19,4.39.33,6.5-.63l.44.69c2.73-1.14,5.48.34,8.21-.88,1.21,1.09,2.42-.56,3.63.5.71-.97,1.42.25,2.13-.58,1.99.75,3.98.39,5.97-.06,4.41.47,8.83-.73,13.23-.25l.44-.65c.19-.16.19.3.1.52,2.35-.5,4.05-.36,6.43-.92l.41.71c.44-.09.19-1.24.87-.62.11.33-.18.14-.33.48.29.22.75.07.76-.46,17.33.27,34.23-2.58,51.61-2.89l.35-.47c2.32.63,4.79-.95,7.08.16.43-.19.85-1.3.88-.24.36-.47,1.35-.77,1.94-.11l.48-.62c.82.12,1.62.42,2.49-.2,3.89,1.08,8.05-.95,11.86,1.04l.49-.62c.59.87,1.77.7,2.16-.05.18.31.04.58.24.89.38-1.25.68-.43.97-.04,1.11-.98,2.33-.62,3.71-.52.16.31.14.59.03.86.31.19.46-1.17,1.01-.36.12-.16-.02-.35-.06-.52.35-.27.61.39,1.01-.36.2.26.07.47-.07.67.41-.42,1.16-.86,1.8-.76.22.89-.4.42-.74.92,1.36-.69,2.69-.96,4.03-1.46l.45.92c-.17.76.34-.39-.14-.71.67-.8,1.19-.54,2.05-1.07.08.74.87.53.32,1.08.34.3.44-.96,1.06.15.56-.65-.22-.56-.36-.74.84-.82,1.5.09,2.36-.84.08.24-.15.43-.28.64.19.23.47-.32.6.44-.11-.96.41-.33.87-1.06,1.74,1.47,4.15-1.87,5.61.19.49-1.49,1.62-1.11,2.32-1.35-.13,1.08-.96.2-1.39.81.14.35.34.2.47.59-.66.39-1.38,1.32-2.02,1.57.22-1.75-1.6-.16-1.95.04,1.16.97,3.24.57,4.53-.84.08.3-.24.53-.41.79.68-.16,2.06-.01,2.23-1.52.44-.28.2.69.44.93,1.33-.95,2.11-.87,3.59-1.98,1.64.19,3.29.32,5.15-1.21.93.35,2.57-.27,3.32-1.31,2.01.93,6.08-2.98,8.53-.22-.43-2.22,1.74-1.01,1.81-2.94.55.23,1.39-1.67,1.8-.36,2.52-1.62,4.81-1.5,6.85.4.36-.5.75-1,.67-1.6.39-.15.71.17.97.88.44-.73.7-.32,1.03-.32.26-.9.55-.73.88-1.56-.15-.48-.47.22-.64-.12,1.57-1,3.92-.7,5.43,1.21.37-1.2,1.03-1.41,1.7-1.05,1.68-2.32,3.61-3.43,5.48-4.09l.49,1.14c-.04-1.11,1.07-.69,1.63-1.23.01.23.03.47-.1.67,1.63-.26,3.12-.32,4.58-1.66,1.69-.13,3.97-.36,5.56-2.13,1.09.33,3.44-1.37,4.45-2.01,1.71-1.08,3.21-1.91,4.62-3.51-.41-.08-.33-.65-.48-1.14.38-.47.6-.01.98-.48-.49-.41-.82.18-1.02-.57-.71,1.08-1.39-.71-1.76.49-.31.29-.39-.75-.61-1-.74.14-1.45.14-2.14.06.76-.73,1.06-.72,2.13-1.97-2.66.04-6.26-.16-9.57,1.63-.32.15-.58-.12-.81-.51-.07.27-.06.56-.03.86-.33-.05-.7.16-1.05.3-.26-1.61-1.87.7-2.62,1.72-.23-.62.31-1.09.7-1.59-.33.16-.73-.38-.63-.99.64-.65.66,0,1.16-.98-.17-.55-.68.99-.78.02-.45.25-.24.65-.59.92-.16.05-.31.1-.44-.09.08-.56.63-1.03.7-1.59.12-.08.22.04.35-.1-.4.99.65.33,1.08.21.17.32.01.58.19.9,1.03-.37,1.46-2.07,2.38-2.28,0,.64-.91,1.08-1.27,1.64.39.09,1.27-.14,1.16-.97.96.74,2.25-.53,3.45-1.19-.57-.63-1.44.58-2.17.93.63-1.56,2.02-1.85,2.6-.84.99-.76,1.96-1.41,2.69-.65,2.97-1.88,5.45-.77,8.37-2.2-.45-.91-1.13-.42-1.51-1.71-.68.23-1.29.08-1.77-.9-.24.18-.16.43-.33.62-.28-1.21-.94-.23-1.33-.81-.16-.44.17-.77.52-1.1-.47-.78-1.19-.07-1.75-.37-.38-.48.34-.74.09-1.19-.78-.64-1.44.56-2.49.69-.14-.97,1.1-1.49,1.56-1.92-.18-.06-.33-.28-.47-.62-.13.14,0,.34.03.52-.51.35-.65-.4-.99.49-.16-.32,0-.58-.19-.9-.83.46-1.54.17-2.25-.12-.34.39-.41.84-.22,1.34-.29.4-.54.53-.77.54-.13-.72-.11-1.41-.11-2.1.92-.06,2.44-1.16,2.9-2.51,1.43-.16,2.88-.45,4.14.34-.14-1.4.81-.79,1.35-.58.05.74-.57-.14-.85.34.46.84,1.3-.52,1.92-.63.35.52-.39.78.19.91.31-1.12,1.83-.9,2.59-.48.82-.95,1.52-.33,2.5-.68.26-1.13-.76-.38-1.04-.57.87-.55,2.94-1.51,4.13-.15,1.15-1.23,4.12.69,4.85-2.22.75.54,1.3-.9,1.88-.28-.08.58-.5.32-.54,1.1,1.97-.86,4-2.29,4.5-4.55-.33-.59-.99-1.24-.65-2.06-.83-.94-2.38-.95-2.31-3.12-.6.85-1.36.33-1.63,1.37.12.2.32-.1.5-.23.11.68-.12.43-.48.76-.18-.7-.45-.92-.76-.87-.26-.46-.07-.83.32-1.14-.27-.17-.56-.06-.64.38-.5-1.33-2.25-.52-3.44-.07-1-1.74-2.64.21-4.12,1.2l-.16-.38c.8-1.71,2.06-1.58,2.88-2.67-.14-.52-.44-.15-.55-.81-2.21,1.55-3.29.7-5.34,1.63-.04-.18.06-.34-.03-.53.71-.1,1.86-.76,2.34-1.58-.21-.56-.61-.01-.83-.52.02.73-.3.85-.64.38.03.47-.05.91-.23,1.34-.59-.5-2.15-.12-2.06,1.29-.35.49.04-1.07-.47-.62-.02-.35.5-.27.39-.96-.43-.19-1.03,1.04-.95,1.53-.34.19-.11-.93-.36-1.29-.67.38-.37.96-.81,1.39-.35.33-.3-.59-.11-.72-.42-.4-.47.69-.61.92-.13-.09-.52-.6-.5-1.14.37-.58.59-.33.92-.68-.57-.7-1.05.46-1.11,1.16-.81.04-1.54-.01-2.28,1.26-.51-.56.2-.88,0-1.38.49-.2.96-.24,1.44-.4-.32-.76-.21-1.43.33-2.01-.23-.4-.56-.05-.64.39.06-.82-.52-.15-.5-1.14-.75.81-1.32.68-2.17.6-.09-.51.73-.77.81,0,.13-.09.1-.21.06-.33l.28-.29c-.35-.68-.9-.15-1.39.06-.12-.72.23-1.34.11-2.05-.34.67-.31.34-.83.87-.36-.48-.17-.84-.37-1.29-.32.22-.31.52-.47.77-.26-.4.07-.68-.28-1.1-.74.28-1.39.05-2.06-.07-.19-.8.33-.38.74-1.06-.26-.51-.76.45-.98-.37-.04.28-.33.51-.24.82-1.55-.9-3.45.44-5.02-.3-.15.2.04.47.12.71-.33.39-.65.73-.91.69-.06-2.73-2.3.36-3.17-.28.62-2.35,1.74-1.5,2.78-2.39-.41-.61-1.15.49-1.15-.74l-.83.87c-.24-.33-.13-.6-.21-.9.3.08.71-.63.95-.16-.06-.77.34-.38.51-1.11-.32-1.4-1.31,1.51-1.62.03-.64.85-1.3,1.71-1.89,2.57-.39-.53-.09-.94.2-1.34-.25-.91-.71-.35-1.07-.55.01.46-.15.89-.65,1.26.2.23.51-.3.62.46-.44.34-.81.27-1.12-.21l-1.23,1.32c-.04-1.02.32-.77-.43-.95-.47-.55.38-.85-.02-1.38-.38,1.61-.94,1.01-1.82,2.24-.63-.38-1.31-.5-1.92-1.05-.73,1.52-1.42,1.73-2.31,2.5-.45-.54.5-.83.42-1.3-1.04-.02-2.36,2.12-2.98,3.25,1,.54,1.6-1.65,2.34-1.99.16.31.13.6,0,.86.25.36.83-.62.59-.92.77,1.47,3.12-2.28,4.16-.25-1.04,1.85-2.77,1.71-3.86,1.34-1.01,2.22-2.57,1.82-4.04,1.85.53-.97.86-1.69,1.09-2.9-.4.66-.65.29-1.04.85-.78-1.96-1.51.79-2.27-.92-1.15.66-.78.48-1.83.87.27.34-.13.55,0,.86-.33.2-.61-.04-.98.51-.43-.71.24-1.01.58-.93-.01-.78-1.42,0-1.47.77-.44-.13-.98.47-1.29-.58-.62-.19-1.49,1.47-2.05.85-.3-1.03.49-1.87.94-2.77-.83.01-1.34,1.36-2.41.97-.32-.71-.09-.83-.58-.79-.45.57.67.33.23.9.33.11.65.26,1.03,0,.06.89-.03.79.58.79.08.24-.17.43-.31.63-.34.26-.48-.99-.8-.83-.03.28-.31.52-.22.82-.41.22-.74-.18-1.12-.19-.11-.47.02-.63.31-.63.24-.14.06.3.27.56.12-.5.34-.97.09-1.53-1.84,2.47-3.33,2.2-4.98,3.28-.14-.25-.28-.51-.14-.71-.18.52-1.45,1.33-2.22,1.34,0-.88,1.26-1.17,1.23-1.68.23.79.56.42.13-.15-1.35.64-2.54.91-3.52.79-.25-1.19,1.26-.61,1.37-1.84-.44,0-.54-.38-.84.38-1.38-1.06-4.31,1.25-5.87,1.46-.28-.5.97-.76.38-1.31-.3.93-.89,1.14-1.41,1.32.31.22.62.54.99.33.05.18-.04.33.05.52-.74.52-1.27-.79-2.09.35-.18-.31-.03-.58-.23-.9-.62.72-1.07.11-1.64.42-.16-.31-.14-.59-.01-.86-.23-.29-.58.44-.76-.29-.26.19-.18.43-.08.68-2.06-.38-3.48-.21-5.56,0-.13-.37.01-.69.34-.98-.33-.13-.71.23-1.03.01-.58.37.15.94-.37,1.31-.45-.75-1-.53-1.6.1-.28-.39.03-.68-.34-1.08-.24.36,0,.8-.24,1.16-.53-1.04-.52.03-1.38.13-.28-.38.03-.68-.34-1.08-.12.27-.15.55.02.86-.75.42-2.18-.87-2.06-2.01-1.11.53.76,1.1.01,2.06-.38-.06-.23-.51-.69-.95-.58.6-1.15-.11-1.48,1.16-.49-.04-1.06.02-1.14-1.02l-.64.77c.33.95.21-.7.54.25-.41,1.23-1.98.16-3.04.93.22-.66.17-1.24.71-1.44-.7-1.02-1.02,1.2-1.82,1.28-.42-1.14-1.03-.24-1.59.12-.54-1.02-1.22-.63-1.88-.43-.1-.75.61-.2.86-.74-.18-.54.4-.97.26-1.5-.7.95-1.6,1.03-2.24,2.09-.16-.34-.45-.07-.86-.46-.17-1.01,1.36-.06.57-1.29.4-.64.65.27,1.06-.37-.27-.84-1.32.46-1.18-.67-.41.57-.8.27-1.44.83.14-1.38-.65-.08-1.15-1.01-.77.93-1.41.57-2.14,1.08-.06.69.46,1.26.83.8-.15,1.17-1.09.4-1.5.31-.06-.54.28-1.05.44-1.14-.04-.56-.36-.61-.33-1.41-.15,1.52-.69.34-1.37,1.36.18.92.54-.07.74.61-.38.04-.81.62-1.12-.15-.09-.34.2-.13.38-.46-.14-.35-.47-.22-.29-.55-.38-.56-.23,1.09-.57.09.07.58.25,1.17-.15,1.69-.54-.06.01-.57-.36-1.07-.33.35-.25.76-.22,1.17-.19.04-.36-.26-.57.1-.53-.81.45-1.43.08-2.21-.16.44-.39.86-.34,1.32-.44.72-.68-.82-1.15.2-.39-.45-.22-.83-.46-1.25-.55.64-1,.16-1.47-.01-.36,1.15-1.17.74-1.75.63-.28-.38.63-.6.08-1.01-.57,1-1.1.42-1.85.45-.49.34.15.82-.21,1.17-.67.12-.05-1.02-.56-1.44-.3.02-.43.18-.5.62-.97-1.99-2.32.77-3.36-.42-.46,1.11-.69.9-1.47,1.54-.2.01-.3-.69-.75-.6-.07-.87.7-.4.97-.91-.66-.59-1.22.06-1.74.65-.54-.34-.26-.72-.57-1.43-.46.2-.69-.31-.95.57-.13-.24-.27-.48-.4-.72.14.93-1.07,1.2-1.47,0-.42,1.21-.71.65-1.27.36-.49.57.04.2.18.7-.29.42-.53-.03-.8.08-.39-.85-.09-.82.1-1.35-.49-.05-.96-.29-1.38-1.35.13-.21.24-.23.35-.13-.04-.65-1.1-.41-1.55-.52,1.15.6.88,1.68,2,2.1-1.14,1.36-1.15-1.12-1.97-.91-.01.74.79,1.57.63,2.29-.27-.68-1.04-.62-1.25-1.51-.35.7-.4,1.43-.71,2.14.19-1.2-.37-1.17-.78-1.79-.2-.48.53-.85.09-1.35-.23.53-.33.53-.32,1.33-.3.01-.68-.65-.47.29-.33-.04-.64-.54-.95-.95.01-.52,1.03.03.87-1.1-.63.56-3.41,1.82-2.82-.12-.33-.09-.72.69-1.02.06-.56,1.58-1.69.22-2.6,1.77-.15-1.14-.87-.47-.59-1.43-.37-.29-.33.86-.86,1.1-.86-.16-1.69-.71-2.61.24-.05-.95-.81-.73-.9-.09-.29-.93-.66-.37-.96-.94.08.56.25.58.37,1.4-.44.07-.91-.64-1.07-1.12-.59-.21-.35.98-1.12-.1-.06.28.11.58-.16.83.5-.19.97.11,1.43.65-.82-.08-1.64-.26-2.47-.23-.06-.17.02-.34-.09-.52.39-.29,1.07.46,1.16-.57-.57-.57-1.14.75-1.9-.35-.16.24-.33.48-.47.3-.11.27-.12.55.07.86-.52.55-.97-.11-1.49.37-.39-.38-.1-.69-.4-1.06-.45.4.21.87-.38.81-.41-.48.29-.82-.29-.88-.33.25.03.57-.16.83-1.67-2.16-3.85-.27-5.24-1.33-.18-.35.34-.65.27-1-.62-.38-1.33,1.12-1.91-.33-.1.27-.11.56.07.86-.25.6-.46.16-.7.62-.28-.31-.03-.57.15-.84-.32-.47-.68.03-1.01-.25-.12.22.09.46.2.7-.25.57-.45-.03-.69.28-.03-.29.17-.55-.07-.86-.16.21-.32.43-.48.64-.3-.36,0-.68-.41-1.05-1.1.2-2.2.39-3.28.23l.31.54c-.3-.05-.63.7-.91.26-.28-.31-.03-.57.15-.84-.65-.45-1.86.35-2.17.67-.16-.72-.42-.9-.89-.41.56.69.04.68-.27,1,1.04-.28,1.45.72,2.58.37.13-.31-.1-.14-.21-.36.26-.74.43.46.69-.28.33.86.34.64.84,1.43-1.29-.81-3.12.52-4.03-.67-.08.16-.01.34-.13.5-.44.32.12-.64-.3-.87-.73,1.35-1.37.47-2.04.19-.21.93-.68.83-1.15.6.18-.67.59-1.32.3-2.02.34-.19.9.1.93-.61-.44.09-.45-.07-.65-.73-.2.75-.5.57-.61,1.14-.38.24-.74-.43-1.14.25-.42-1.26-1.44-.64-2.25-.17,0-1.03-.4-.97-1.01-.24-.08-.29-.07-.57.14-.84-.74-.53-1.53.58-2.27.17-.21.32.27.7-.03,1.01-.24.46-.42-.9-.68-.05-.19-.3-.19-.58-.09-.86-.36-.17,0,.94-.58.47-.28-.36-.38-.71-.2-1.03-.58.46-1.59-.5-1.82.56-.31-.36-.02-.68-.43-1.04-.02,1.05-.59.13-.57.13-.8.11-1.07,1.44-1.93.39-.16.99-1.09.47-1.6.58-.03-.28.16-.55-.09-.86-.36,1.09-.9,0-1.49,1.09-.18.7.57.93.78.56.2.16-.53.75-.69.64-.22.8.51.22.67.38.11.29-.2.56-.36.83-.18.08-.63-1.09-1.12-.07-.29-.42-.55-.83-.31-1.21-.4-.63-.83.25-1.23-.59-.11.44,0,1.03-.47.99.26-1.25,1.12-2.1,1.98-2.76-.37-.13-.74-.53-1.11-.75-.17.33-.22,1.02-.57.47-.12.27,0,.57-.13.84-.51.43-.28-.42-.77-.9.08,1.43-1.92,1.53-2.15.04,0,.84-.48-.03-.8.8.36.62.76-.22,1.12.41-.02.63-.97-.02-1.35-.08-.04.34-.17.67-.47,1-.27.38-.26-.54.01-.68-.39-.28-.42.87-.13,1.18.27-.24.52.21.8-.47.11.34.11.69.21,1.03-.53.47-1.04-.59-1.58-.08-.12-.66.79-1.87.03-2.04.13.92-.16.46-.58.82-.06-1.01.39-.43-.44-1.04-.05.66-.09.88-.58,1.16-.18-1.3-.85.42-1.34-.75,1.36-.13,2.43-1.15,3.96-.3-.56-1.17,1.04-.48.82-1.82-.18-.34-.37-.17-.55-.54-.22,1.1-1.16.25-1.35-.41.32.99-.53.87-.14,1.86-.3-.07-.61.48-.91-.04-.23-.56.91.1.13-.84.24-.75.45.45.68-.3-.21-.3-.09-.57-.33-.87-.66,1.1-.85.22-1.01-.56-.02,1.42-1.46.43-2.16.73-.24.63.04.45.33.87-.76,1.11-2,0-2.39,1.06-.46-.42.07-.79-.1-1.19.6-.01,1.21-.23,1.81.09.21-.44.21-.89.02-1.36-.15.34-.3.17-.45-.03-.05.22-.11.45-.01.68-.63-1.05-2.33-.08-2.73.88.28-1.71-.82-.86-1.11-2.1-.19.29-.38.3-.57.14-.21.91.51.19.67.71.2.71-.46,1.15-1.04,2.15-.52-.95.48-.95.47-1.67-.57-.68-.45.07-1.02.46.19.4.07.8.1,1.19-.27.24-.52-.55-.79.13.49.71.99-.69,1.47.58.57-.68,1.14-1.25,1.71-1.1.2.42-.51.26-.68.3-.21.6.59.64.45.02.16,3.34-3.23.4-4.99,1.45.17.24.33.47.22.69.26.51.53-.5.79.21.06.48-.83,1.08-1.13.29.24.81-.71,1.85-1.13.97-.14-.19.67-.71.9-.3-.16-1.01.24-.98.35-1.85-.49-.41-.35-.65-.9-1.05.81-.35,1.28.34,2.27-.92-.48-.82.04-.81-.67-1.39.02.57.45,1.15-.23,1.69-.76-.01-1.51-.39-2.26-.09.29.35.39.69.22,1.03.34.18.68.2,1.02.21-.02.48-.45.77-.68.99-.23-.24-.12-.46,0-.68-.65-.48-.16.97-.91.64-.05-.51.23-1.01.12-1.52-.79,1.25-2.33-.06-3.17,1.23-.17-.4.12-.79-.34-1.2-.41.38-.83-.09-1.25.8.3.35.42.69.45,1.04-.53.38-1.06.05-1.58.61-.27-.68.36-1.95.9-.98-.26-.52.16-1.01-.11-1.53-.45,1.18-.98.69-1.92,1.45.27.71.53-.3.79.2-.01.83-.66.11-1.01.8-.22-.29-.1-.57-.34-.86-.23,1.83-1.32-.09-1.92.77-.34-1.27.86-.87.9-1.66-.11-.16-.23.07-.34.16-.51-.36.28-.67-.23-1.03-.4.51-1.01-.08-.79.82-.37.73-.76-.36-1.13-.04-.1-.45.1-1.09.45-.66-.1-1.18-1.44.92-1.59-.73l-.67,1c.29.29.23.57.35.86-.43.4-.45-.25-.68-.7-.67,1.34-1.37.04-2.61-.59-.65.94-2.15-.48-3.17.24,0,.8.48.2.8.53-.15.89-1.27.67-1.8.62-.21-.85.71.02.55-.83-.36-.39-.64-.65-.69-1.04-.27.34-.74,1.36-1.11,2-.51.24-.41-.9-.81-1.21-.28-.12-1.11.89-1.02-.2-.85.91-1.72.65-2.6.45-.53-.52.4-1.01-.14-1.53-.64.49.22,1.02-.31,1.52-.49.49-.57-.87-.93-1.38-.29.34-.61-.16-.91-.02.08-.45-.04-.91-.48-1.37,0,.25-.12.73-.33.5-.26.47.35.07.47.69-.29.6-.6.04-.91-.02-.23.44.44.62.58.52.05.4-.06.79-.09,1.19-.43.03-.46-.59-.67.32-.51-.78.1-.6.09-1.18-.48-.47-.41.39-.55.84-.52.27-1.06-.16-1.59-.03-.05-.51.31-1.01.31-1.52-.51-.26-1.02-1.61-1.61-1.05-.48-1.04-.6-1.6-1.63-1.73.31.35.7.38.71,1.03-.33.48-.68.23-1.02.15-.21.34.18.68-.2,1.01.44-.07,1.3.87,1.36.03.08.4.21.8-.09,1.18-.39.08-.3-.96-.79.15-.52-.35.26-.67-.25-1.02.12,1.03-.5.98-1.01.49-.26.64.17.8.47.69-.18.32-.37.14-.55.5-.14-.4-.82-.8-.6-1.2-.2-.09-.94.94-.8-.18-.38-.32-.52,1.5-1.11,1.01-.13-.28.18-.56.32-.84-.57-.11-1.64-1.06-1.81-.02-.16.14-.97-.16-.47-.68-.99.13-2.25,1.2-2.51,3.19-.26.05-.53-.13-.79.16-.47-.57.36-1.12-.28-1.7.51-.67.53-.21.9,0,.51-.56.6-1.12.18-1.69-.1.17.06.34.13.51-.33.31-.66.72-1.02.16-.28-.48.35-.05.43-.67-.32-.71-.59.47-.92-.35-.14,1.64-1.44.48-2.28-.36-.35.61-.6,1.77.17,1.87-.22-.88.26-.57.67-.33.13.3-.18.31-.33.17.22.77,1.36.21,1.94.53-1.78,1.17-4.6.25-6.77.97-.12-.23.09-.45.2-.68-.31-.25-.62-.38-.89.34-.23-1.09-.46-.15-.93-.68-.35-.39.71-.79.07-1.18-.36,1.11-.63.46-1.47.17-.3.86-.7,1.43-1.35.34-.35.78-.75.23-1.09,1.01-1.31-2.33-3.39-.57-5.52-1.69.09.75-.4,1.38-.67.35-.44.4-.29.79-.29,1.19-.15.07-.3.15-.45,0,.03-.51-.14-1.02.27-1.53-.69-.65-.09,1.42-.89.35-.12,1.21-.34.78-.98.86-.25-.39,0-.79.28-1.19-1.04.93-2.74.16-3.41,2.23-.52.38-.55-.18-.92-.33-.34-.51.23-1.02-.19-1.53-.39.46-.27.91-.16,1.36-.57-.18-.39.37-.87.69-.39-.89.28-2.06.8-2.04-.25-.25-.15-.51-.02-.34-.83-.96-1.98-2-3.08-.14-.44-.45.47-.91-.07-1.35-.35.96-1.53-.11-2.28.03-.2.29-.07.57-.3.85-.06-.28.11-.57-.16-.85-.41.06-.12.23-.42.69-.11-.22.12-.46-.04-.68-.53-.69-.99-.08-.87.7-.13-.22-.24-.26-.35-.16-.13-.22.09-.46.19-.68-1.06-.01-2.8-1.22-3.41.07-1.09-.9-.74.33-1.39-.31-.5,1.35-.87,1.13-1.59,1.9.29.44.55.25.83.49-.3.61-.7-.28-1.01.19-.13-.22.08-.45.18-.68-.73-.06-1.49-.74-2.22-.8-.13-.22.08-.45.19-.68-.35-.07-.71-.3-1.02.2-.23,1.86-2.69-.63-3.72.62,1.35.24,2.68.33,4.04.73-.43.45-.9.09-1.37.04-.12.81.61.17.83.49-.21.34-.41.69-.62,1.03-.24-.27-.14-.56-.39-.84-.92.47-.76,2.04-1.96,1.41-.14-.59.7-.74.94-1.21-.06-.4-.37-.78-.19-1.18-.21.25-.63,2.36-1.6,1.57-.2-.33-.11-.68.16-1.02-.52-.59-.78,1.48-1.52,1.06-.51-.44.25-.91-.32-1.35-.11.12-.05.23.02.34.06.46-.6.1-.39,1.03-.21-.14-.99-.34-.76.53-.27-.13-.51.3-.81-.15-.07-.62.67-1.26.44-1.88-.27.21-.65.5-.96.88-.34-.33-.09-.68-.53-1-.67.26-1.37.03-2.05.06-.27-.39.42-.22.51-.87-.92-.49-.92,1.85-1.9.57-.22.16-.38,1.09-.63.7-.23.49.36.04.5.66l-.3.52c-.73-.62-1.36.08-2.1-.6-.1-.86.83-1.01,1.24-.22.27-.43.55-.74.86-.71-.37.07-1.35-1.14-1.82.07-.5-.49.05-1.02-.46-1.51-.34,1.22-1.7,1.18-2.76,1.29-.31-.61.34-.21.4-.69-.48.03-.31-.56-.76-.99-.57.53-1.21.09-1.77.75-.93-1.01-.81.26-1.94,1.43.49-.12.95-.54,1.47-.23.22-.24.09-.46-.05-.68.28-.26.59-.27.91-.03.29.28-.32.46-.43.35.2.54,1.45,2.03,1.9.95.45.99,1.71.86,2.43.42.31.48.21.9.58.15,1.26,1.07,2.45,1.27,3.59.71.13,1.16,1.26.21,1.01,1.32.16-.36.54-.32.99-.54-.21-.32-.39-.14-.61-.49.22-.17.44-.19.66-.36.11.28.13.56-.05.85.34.53.61.12.96.65.2-.23.06-.45.18-.68.3.48.59.89.81.15.21.25.43.71.6.49.34.33-.53.69.07,1.02.35-1.33,2.35-.8,2.85.09.44.38.1-.53.41-.69.1-.11.22,0,.33-.18.46.38.19.79.65,1.17.66-1.1,2.19-.21,3.3.08.22-.65.5-.46.74-.86-.62-.73-.41.62-1.01.19.24-.54.17-.39-.19-1.18.65-1.12,1.35-.54,1.61.3-.26.62-.66-.77-.91.02.51,0,.81.98.44,1.52.72-.02,1.47.45,2.18.47-.14.94-.07.56.52,1.01-.36.23-.76-.02-1.18-.65-.18.34.34.67.06,1.02.4-.25.85.24,1.26.15.25-.46-.21-.9-.53-1.35.62-.25,1.3.26,1.89-.55.06-.45-.2-.9-.08-1.35.66-.27.07.88.64,1.18.14.32-.18.15-.31.51.74,1.15,2.18.36,3.04,1.63.84-1.1,1.79-.39,2.69-.39.36.86-.57.76-.58,1.71.73.66.78-1.15,1.05.49.17-.57.14-1.13-.09-1.69.77-.43,1.57-.26,2.38.14.17-1.31.98-.83,1.55-.7.12.23-.09.45-.19.68-.18.18-.39-.28-.59-.5-.14.17-.16.34-.09.51l-.21.34c.44.42.8-.58,1.27.5-.24.46-.53.04-.78.17-.09.91.69.43.94.67-.66,1.44.89.25,1.51.83-.07-.53.01-1.5.48-1.53-.26.87.34.86.43,1.86.1-.22.21-.26.33-.17-.26-.94.5-.83.59-1.7.31.13,1.32,1.09,1.93.15.43.45.08.9.06,1.36.66.42,1.25.48,1.63,1,.14-.22.28-.45.42-.68l-.48-.67c-.37.96-.84-.14-1.25-.16.49-.74,1.07.33,1.56-.35.09,2.07,1.27.87,2.23,1.84-.35-.22-.66.27-1.02-.16.01.85.92.52,1.26.5.08-.46.02-.9.17-1.36.6-.26.35.88.62,1.19.14-.35.29-.19.45,0-.04-1.06.5-1.06,1.13,0-.39-1.12.15-.37.62-1.36.69.94-.77.82.07,1.7.13-1.25.58-.91.83-1.69.59.8-.61.8-.4,1.35.55.01.66,0,.98-.85.54.72-.36.4-.18,1.02,1.04,1.19,1.28-.22,2.23-.68.28.39.17.79.61,1.19.46-.79.97-.04,1.44-.5.16.45-.05.9.05,1.35-.14.32-.29.13-.44.34-.39-.34-.01-.68-.04-1.02-.67.17-.85.78-1.67.51.5.27,1.01.87,1.48.51.4.48-.61.06-.2.68-.54-.33-1.05-.16-1.59-.34-.09.23.16.45.03.68-.41.36-.16-.65-.6-.85-.18.3-.36.31-.55.17.05,2.11-1.12-.48-1.65.85-.43-.45.05-1.03-.49-1.01-.29.68.17,1.35-.14,2.03.32.5.59-.12.91.34.1-.22-.13-.45-.25-.68.35-.59.74-.13,1.12,0,.1.62-.34.29-.41,1.01-.44.12-.9-.16-1.33.34-.43-.45.05-1.03-.49-1.02-.6,2.48-3.13.71-4.56.87-.1-.45.4-.91.16-1.36,1.36.24,2.73.82,4.07.66.18-.61-.53-.61-.67,0-.37-.58-.82-.42-.39-1.19-.37.14-.74.29-1.11.34-.12-.45.27-.9-.29-1.35-.3.98-.44.66-.99.51-.45-.39.06-.79-.39-1.18-.81-.29-1.77.38-2.2,1.04,0-.28-.27-.56-.15-.85.29-.47.08.86.45,0-.71-.65-1.35-.06-2.06-.66l-.73,1.19c-.25-.45-.29-.91-.74-1.35-.39,1.16.35,1.11.54,1.69-.38.61-.88-1.16-1.25-.16-.57-.68.38-1.36-.33-2.03-.1.17.07.34.14.51-.83.6-1.72.07-2.6-.14-.41.74.35,1.47.75,1.35-.4.32-.72,1.94-1.18,1.19-.24-.64.45-.2.29-.85-.27-.76-.43.42-.69-.33-.22.66.09.88-.5,1.19-.28-.33-.3-.67-.05-1.02-.66-.67-.47,1.37-1.09.7-.2-.5.55-1.03.03-1.53-.4.4-.25.8-.5,1.2-.15.08-.29.16-.45,0-.06-.55.57-.57.37-1.36-.57.09-.47-.45-1.08-1.17-1.09-.6-2.15.3-2.91.39.56-1.24-1.86-.66-2.67-1.14-.01-.9,1.06.11,1.42-.87-.97-.81-1.66.97-2.38-.12-.1.23.14.45.27.67-.25.82-.6.07-.86.7-.96-1.65-1.97-.05-2.57-1.31-.98.81-1.66-.1-2.41,1.08.41.04.15.23.49.67-1.17,1.14-1.66-.75-1.84-2.15-.24.69.05,1.36-.09,2.04-.5-.19-.98-.07-1.5-.47-.2-.45.56-.41.73-.87.15.39-1.76-.56-2.06-.28-.28-.15-.34-1.07-.05-.68-.08-.81-.45,0-.68.02-.1.23.14.45.27.67-.92.09-2.51-1.9-3.69-.91l-.63-.83c-.2.34-.47-.23-.65.36-1.11-1.76-1.96.07-3.07-1.58-.95.92-2.02.3-3.13-.73.58-.56.58-.94,1.03-1.39-1.13.09-2.18,1.32-2.82.28.15,1.43-.6,2.14-.16,3.74-.58-.16-1.18-.59-1.77-.78.18,1.5,2.12.46,2.23,2.29-.19.4-.49-.51-.73-.65,0,1.06-.91.1-1.27,1.06.02-.56.03-1.13-.59-1.67.12.82-.22,1.01-.67,1.55-.41-.63-1.13-1.45-1.06-.46-.45-.43-.28-1.02-.76-.98-.29-.63,0-.44.27-.86-.5-.12-1.01-.26-1.46.24-.44-.55.31-1.15-.14-1.69-.18.27-.21,1.64-.72.88-.03.4-.28.8.22,1.18-.61.41-.52.26-.69,1.22-.18.59-.53-.9-.71-.31-.46.67.35.66.54.99-.29.16-.63-.31-.9.04-.27-.44.39-.92-.12-1.35-.07.74-.77.36-.58-.14-.56,1.35-1.77.78-2.88-.37,0,.39-.24.8-.23,1.2.51.32.3.35.77.98.27-.29,0-.57-.19-.84.92-.3,1.95.66,2.93,1.05-.74.64-1.65-.68-2.39-.06.43.18.86.36,1.32.78-.42.42-.95-.45-1.29.74-.27-.44.1-.91-.35-1.34-.16.33-.36.17-.52.53-.32-.26-.1-.56.04-.85-.25-.32-.43.27-.71-.31-.02.97-.82.42-.78,1.39-.67-.53-.09-1.12-.61-1.67-.41.54-1.51-.03-1.65-.59-.64.66-.74-.4-1.36.08-.32-.6.33-.22.39-.7-.71-.68-1.28.09-1.97-.4-.19.54-.23.72-.19,1.54-.4-.14-1.08.21-1.03,1.08-.54-.31.21-.69-.32-1-.36-.19-.64.46-1.04-.11-.38.46-.05.85-.48.88-.43-.54.41-1.15.29-1.71.22-.52.63,1.07.81.12-.19-.78-1.07-.62-1.49-.09-.45-.32-.2-.67-.55-.99-.51.62-1.6,1.37-1.88.61-.22-.16-.18.3-.06.51-.4.15-.8.39-1.3-.44-.2.65-.51.24-.71.89.43-.59,1.1,1.1,1.49.08.42.82-.02,1.19.85,1.65-.53,1.18-.85-.04-1.04-.11-.36.85.51.58.59,1.32.17-.55.4-.56.68-.03.23-.66.54-.24.48-.88-.41-.36-.68.11-.65-.81.23-.32.6.68.81.12.27.64-.22.9.46,1.16-.35-1.14.51,0,.9-.05.09.19.08,1.2-.25.86.31-.04,1.15,1.03,1.65.59.57,1.43,1.17.43,1.65,1.77.55-.34.4-1.06,1.03-1.07.15.27-.13.57-.26.86.59,1.05,1.02.37,1.54.76.13-.45,0-.62-.29-.66.23-.86.8-.05.71-.89.05.15.25,1.06.51.65.29.63,0,.45-.26.86.66.57,1.18-.28,1.89.91.04-1.79.91.78,1.29-.74-.01,1.06.52.39.67,1.15-.4.14-.79.38-1.28-.45-.23,1.43-1.4.35-2.19-.39,0,.51.02,1.02-.42,1.55.93-1.68,3.45,2.2,4.21-.9.73.13,1.42-.15,2.18.41.13-.45,0-.63-.28-.67.2-.35.39-.7.58-1.05.21-.12.45.03.7.31-.29.56-.68-.02-.94.89.38.43.71.36,1.09.8l.39-.7c.18-.04.38.03.58.14.26.38.03.79-.23,1.2.87.26.3-1.66,1.26-1.08.06-.29.04-.57-.19-.84.2-.3.41-.47.65-.37-.31,1.5,1.47,1.82,2.13,2.45-.62.45-2.36-.49-2.18.78-.67.06-1.4-.5-2.05-.25.02.97.84.25,1.18.63-.49.48-.53.11-.81,1.05-.41-1.46-.67-.14-1.05-1.65-.51.65-.19,1.25.05,1.86-.4.33-.51-.74-.76-.98-.23.41-.5.23-.71.88-.44-.32-.19-.67-.54-.99-.42.86-.29.05-.8-.13-.47.55-1.04.15-1.51.75-.5-.37-.01-.79-.22-1.18.52-.31,1.61.44,1.38-.91-.31-.09-.55.56-.84.72-.05-.23-.11-.45-.29-.67-.42.77-.52.83-.99.22-.58.66.19,1.23-.39,1.89-.1.11-.22.01-.32.19-.45-.43-.12-.9-.13-1.35-.38-.79-.61-.03-.96-.63-.21.24-.08.46.06.67-.63.45-1.46-1.1-1.99.45-1.28-.51-2.13.28-3.24-.84-.29.87-.73.26-1.09.4-.05.83.13.99-.19,1.54.6.71.59.49,1.03,1.3.16-.84-.02-.61.31-1.37.47-.26,1.01.31,1.41-.59.35.6-.36,1.26-.38,1.89.31.42,1.09-.21,1.09.79.77.22,1.4-1.04,2.27.21-.4.55-.88.26-1.28.75.31.13.59-.07.96.63.05-.72.15-.73.45-.03.74-1.26,1.77.52,2.59.02.48.31.01.68-.13,1.03.35.59.59-.04.92.29-.25-.6-.32-1.21-.95-1.82-.05-.28-.02-.56.03-.85.26-.08.53.08.8.13.16.33-.19.69.32,1,.26-.29.17-.57.26-.86.13-.15.32.2.45-.02.34.71-.2.41-.13,1.03-.29.46-.72-.56-.99.22,3.53.57,6.99.36,10.55,1.37.1-1.41,1.28-.74,1.59.27.17-.74-.25-1.46-.07-2.2.61-.37.67.99,1.27.46.13.22-.07.46-.17.68.58.18,1.07-.63,1.66-.23-.51,1.86,1.42.96,2.42,2.28.42-.35-.11-.68-.3-1,.91.03.52.23,1.39.63.11-.29-.34-.55-.18-.84.21-.12.45.03.69.31,0-.34.1-.68.37-1.03.45-.55.41.87.89-.03.19.33.11.67-.15,1.02,1.38.45,1.21.97,2.82.4.11.28.13.56-.05.85.96-1.03,2.08-.09,3.07-.77.07.22.14.45.05.68.41.02.78-.54,1.14-1.22.38.33.4.66.07,1.02,1.31-.44,2.77,1.41,3.99-.45.45.38-.04.79.41,1.18-.2.34-.46-.23-.64.35,1.02-.31,2.26-1.35,3.63-.61.12-.75-.91-.5-.31-1.35.63.69,1.14,1.25,1.62.98.26-1.08-.47-.07-.81-.49.36-.76.8-.33,1.19-.53.05.56-.02,1.13-.12,1.7,1.11-.27,1.84-1.54,3.17-.9.11.22-.12.46.04.68.2.32.38.14.59.5.37-.66.15-.68.61-1.03.06.34.19.68.51,1.01.53-.37,1.1-.17,1.66-.2.29.43-.31.6-.43.35.49,1.03,1.35-.21,1.6-1.22.6.44.12.9-.14,1.36.78-.02,1.48-1.43,2.29-.89.27.25-.29,1.02-.43.35.18.73.62.98,1.17,1-.17.06-.65.24-.18.68-.21.19-.47-.38-.65.35.4.62.74-.03,1.13.32-.17-.45.08-1.31.51-.85.1-.33-.19-.15-.36-.51.43-.32.87-.4,1.26-1.37.56.45-.19.9.29,1.35.3-.55.86-.56.82-1.36.96.2,2.07.66,2.69.32-.01-.39-.16-.79.27-1.19.41.97-.2,1.48.75,1.69-.26.69-.58.21-.87.35.09.87,1.02-.15,1.45.16.03-.29-.17-.56.07-.85.38.35.61.1.94,1.01.4-.4.1-.8.5-1.19.32-.11.72,1.49,1.23.16.33.33.07.68.49,1.01-.24.45-.51.27-.77.18,1.74,1.66,4.29.02,6.34.49.04.46-.13.9-.38,1.36.41.21.8-.33,1.23.17.28-.39.14-.79.06-1.18.98-.03,2.85,1.58,3.74-.67.36.77-.36.6-.28,1.18.71.04.87-.01,1.45.17.1-.28-.04-.56.08-.85.71-.33,2.02,1.62,2.33.17.28.4.16.79.6,1.19.33-.2.63-1,.99-.15.44-1.77,1.91.42,2.74-.81-.07.34.43.68.25,1.02.54-.37,1.08-.99,1.67.19.21-.45.42-.62.64-.67.04.23.08.45.24.68.08-.54.69-.53.44,0,.33-.49.91-.37,1.55.02-.16-.73.13-.79.53-.84.12.23-.1.45-.2.67.56.27,1.1-.08,1.66.19-.41.82-.58-.17-.75.84.34.17.67.44,1,.18.12.29-.17.56-.31.84-.4-.01-.84-1.13-1.22-.18.48-.22.31,1.15.8.86.16.76-.26.84-.63,1.01-.21-.4.05-.79.08-1.19-.44-.46-.56.39-.75.84-.37-.01-.73.28-1.11-.35.82.17.57-1.07,1.19-.83.19-.62-.71-.3-.03-1.02.41-.54-.06,1.05.34.51.55-.72.06-.4-.25-1.02.15-.07.29-.15.44,0-.5-.63-1.9.35-2.77-.2.26.98-.41.19-.41,1.01.52-.04,1.03-.14,1.53-.66.34,2.26-1.5,1.54-2.03,2.18-.85-.86-.1-1.69-.63-2.55,0,1.12-.74-.31-1.08.67.34-.17,1.32.23,1.03,1.2-.66-1.12-.55.59-1.44-.19-.47-.52.09-1.02-.38-1.53l-.53.84c.17.23.35.46.25.68-1,.83-2.05.49-3.06.98.36.8.67.19,1.01.52-.6.56-1.68,1.02-2-.35.3.12.59-.03.86-.67.1-.64-.54-.21-.36-.85-.69.18-1.22,1.53-1.77,0-.23.69-.51.27-.77.17.02.28-.21.56-.08.85-.83-.58-2.18.63-2.68-.68-.48.08-.94.37-1.42.5-.03-.28.01-.56.08-.85-.43-.35-.26.64-.52.85-.47-.57-.24-1.13-.07-1.7-.52-.3-1.13.08-1.37-1.02-.12.68.34,1.36-.13,2.03.72.51.19-1.48,1.07-.68.17.67.02,1.08-.38,1.35-.83.32-1.75-1.33-2.58-.85-.36-.94.34-.56.62-1.02-.39-.49-.73.07-1.09.34.04.23.09.45.25.68-.28.19-.43-.39-.43.34-.66-.69-1.2,1.1-1.9-.5-.03.77-.96.9-1.11.01-.29,1.46-1.33,1.4-2.06.86-.2.23-.06.45-.19.68-.6-.56-1.22-.05-1.27-1.18-.24.4-.47.79-.71,1.19-.78-.56.17-1.13-.31-1.7-.44.7-.93.56-1.43.18-.04.56-.47,1.13-.57,1.7-.34-.68.46-1.36-.11-2.03.09,1.65-1.34,1.58-2.06.86-.55.33-.42,1.36-1.05,1.03-.01-.6.37-1.31-.28-1.01-.15-.51.13-1.02.47-1.53-.08-.17-.15-.09-.22,0l-.24-.34c-.33.46-.04.9-.37,1.36-.54.51-.54-.85-1.18-1.34-.37.67-.83-.28-1.21.19.5.95.93.7,1.35.32.02.39.31.79.62,1.18-.49-.16-.38.6-1.01-.15-.48.35.31.67-.16,1.02-.53-.82-1.55-.59-2.37-.81-.11.44.69.53.91.32.23,1.32-.87,1.17-1.39.87-.38-.81.77-.07.4-.68-.62-.86-.4.61-.99.19.54-1.64-1.68.27-2.52-1.31-.21.7-1.01,1.11-1.54,1.89-.04-1.5-1.74-.14-1.97.38-.18-.22-.36-.44-.27-.67-.14.53-.65-.05-1.06.71-.44-1.23-.77,0-1.53.38-.19-.39.06-.79-.41-1.17-1.31.94-2.11.17-3.49.77-.2-.43.06-.84-.39-.84.08,1.36-.72.59-1.13-.31.31,1.02-.36,1.78-1.01,1.38-.25-.84.7-.02.49-.86-.21-.32-.38-.14-.59-.49-.13.44.18.84-.27.86-.15-.28.25-.57.05-.85-.74-.42-.93.09-.84.7-.53.31-.08-1.07-.62-.83.14.83-.32,1.13-.78,1.38-.27-1-.35-.01-.84-.81.06.73-.51.68-.86.37-.07-.4.22-.21.05-.85-.09,1.07-1.91-.04-1.54,1.58-.44-.46-.73,1.06-1.18.55-.38-.73.32-.53.56-1.37-.43-.26-.8.13-1.23-.13,0,2.14-1.6,1.19-1.98,1.6-.02-.64.5-.92.68-1.21.24.22.16.45.05.67.52.37.3-.51.83-.71-.76-.19-.92.05-1.66-1.29-.42.41.12.78-.01,1.18-.77-1.21-3.24.2-4.24-.17-.14.12-.86.71-.45,1.21-.51.78-1.16-.66-1.05.73-.37-.44-.04-.9-.12-1.35.17-.18.39.27.6.48.29-.69-.36-1.06.33-1.37-.57,0-.6.5-1.24,1.07-.05-.22-.1-.44-.28-.66-.31.6.27.41.21,1.18-.3.33-.69-.27-.95.55,1.77.75,3.47.73,5.17.79.52.32-.22.69.3,1,.42-.02.26-.41.48-.86.5.66-.16,1.36-.49,2.05-.94-.02-2.13-1.49-3.24-.37-.33.05-.72-.63-1.04-.46.38.74.28.64-.41.36-.35.36.06.68-.13,1.03-.95-1.25-1.05-.25-1.79-.26-.34-.33-.1-.67-.53-.99.11.74-.19,1.25-.7.88-.34-.32.5-.7-.09-1.01-.12.36-.28.2-.44.02.01.28-.08.57-.26.86-.99-.35-1.47-.46-2.33-1.25-.05,1.45-.77-.32-1.17.56-.29-.63.4-.23.47-.87-.4.06-.79.24-1.23-.11-.21.17-.34,1.1-.6.71.23.88.08.79-.41,1.55.83-.24,1.28.81,1.89.07.48.74-.21.62.22,1.18.4-.53.38-1.04.19-1.53.24-.26.51-.08.73-.54.13,1.11.79.52,1.13.28.35.72-.41.66-.41,1.55.44.12.43-.18.6-.71.17.27.55.92,1.2.96-.05-.45.29-.91.54-1.38.19.56.08,1.13.59,1.67.25-.52.59.03.88-.04-.08.4.22.78.21,1.18,1.15-.38,2.35-.13,3.55.18.57-1.11,1.36.36,1.95-.43,1.31,1.71,2.74-1.14,3.73,1.05.17-.63.42-.22.61-.7.35.63.64.65.96.98-.41.43-.84-.25-.92.88.11-.92-.3-.42-.71-.65-.21.73.19.52.49.66-.45.83-1,.39-1.51.4-.23-.33.45-.57.63-.36-.26-.87-1.31.09-1.88-.1.31.64.5-.16.81.48-1.03-.17-1.34.67-2.24.93-.36-.38.65-.82.01-1.19-.13.23-.26.47-.38.7-1.02-.64-2.1,0-2.7.63.55-.97-.48-.65-1.06-.8-.03.44-.26.85.18.84-.64,1.32-.94-.64-1.5.41-.36-.49-.25-1-.25-1.52-.33-.24-.7.92-.66,1.22-.41.43-1.42-1.04-1.41.23-.2,0-.98-.43-.85-.81-.35.83-1.54,1.08-2.61.46.54-.41.49-.26.88-1.23-.4-.37-.79-.59-1.19-.96-.3.22.45,1.18-.03.85-.11.89.5-.05.66-.04.2,1.1-1.01,1.93-1.69.77-.74-.03-1.26,2.22-2.1,1.13l-.37.7c-.4-.32-.05-.67-.1-1.01-.47-.26-.77,1.1-1.28.41-.29-.63.38-.47.47-.87-1.19.52-2.27,1.27-3.2,0-.36.07-.74-.05-1.03.74.29.27.38.54.2.83-.53-.81-1.6.37-2.48-.53.21-.46.42-.88.72-.55-.28-.56-1.45-.51-2.05-.55-.42.87.38-.02.64.81-.31.59-.73.08-1.03.75.12.28.14.56-.02.85.34.46.41.04.51.65-.14.06-.28.12-.4.36-.7-1.25-.82-.89-1.58-1.43.28-.85.78.44,1.06-.41-.32-.62-.53-.17-.86-.79.3.66-.65,1.27-1.08,1.25-.13-.22.06-.46.15-.69-.38-.79-.59-.02-.95-.62-.15.35.38.65.33,1-.7.65-1.56-.16-2.29.31.1.89.54-.17.91.28.09.16.04.34.16.5-.59-.3-.67.37-1.24.76.14.95.64.61.75-.22.56.42-.37,1.06.33,1-.28.54-1.02.77-.38,1.55Zm42.28,6.3c.35-.71.8,0,1.21.14-.36.55-.78.26-1.21-.14Zm33.48,5.57c-.29.77-1.07.14-.48,1.19-.59.47-1.21.23-1.84-.16.26-.7.35-.25.58-1.36.19.22.39.68.56.51.13-.23-.11-.45-.03-.68.41.3.76-.6,1.21.5Zm249.62-35.79c.46-.44.46-1.14.85-.34-.07.5-.63.94-.85.34Zm2.04-18.26c.76-.28.86-.44,1.61-1.4.14.78.47.42.8,0,.25.79.32.85.39,1.81.68-.55.39-1.31.33-2.01.86.54.53,2.13-.13,2.91-.58-1.38-1.73.75-2.41.02-.29-.8.49-.31.39-.96-.41.33-1.07.28-.97-.37Zm-70.2-1.59c-.47.55-.8-.27-1.25,0,.48-.6.88-.46,1.25,0Zm-35.47-.55c-.15-.61-.92-.53-.69-1.27.26.8,1.11.25.69,1.27Zm-26.71-2.48c.29.18.63-.41.88.43-.27.5-1.06.26-.88-.43ZM57.21,11.55c-.49.04-.98.1-1.52-.46.43.04,1.41-.37,1.52.46Zm10.38,10.72c.02.76-1.99.63-1.72-.46.62.84,1.1-.45,1.72.46Zm-39.92-.75c.09-.29,0-.57.26-.86.22.35.39.16.62.48-.25.53-.51.98-.87.39Zm54.19,24.03c-1,.09-1.45.06-2.33-.13.74-.59,1.52-.44,2.33.13Zm-21.33.64c-.35-.09-1.23.18-1.26-.47.34-.03,1.22-.38,1.26.47Zm-11.05-.8c.03.25-.25,1.46-.61.7-.24-.44.41-1.11.61-.7Zm-25.9,14.22c-.26-.2-.09.26-.28.53-.44-1.06-.6.61-1.04-.44.27-.93,1.25-.67,1.32-.08Zm15.85,3.35c-.29.06-.53.64-.87.04.39-.91.81-.11.87-.04Zm15.51,4.78c.02.66-.67.69-1.09.04.31-.7.7-.31,1.09-.04Zm3.17.06c-.34.44-1.29.18-1.36-.63.47.43.85-.26,1.36.63Zm-25.87-33.98c.76.07,1.45-.5,2.24-.12-.61.92-1.84.73-2.24.12Zm36.24,45.2c0,.76-.74.77-1.17.2.33-.91.74-.66,1.17-.2Zm-16.41-22.37c-.37-.02-.69.56-1.1.04.26-.5,1.09-.9,1.1-.04Zm-20.11-25.87c-.21-.5-.85.29-.74-.64.32.15.97-.37.74.64Zm.74-.55c.29.95.37.19.83.46-.16.29.3.55.19.84-.56-.06-.47-.7-.89.05l-.39-.49c.09-.29,0-.57.26-.86Zm2.33,2.08c-.36.11-.68.76-1.12.06.3-.86.69-.65,1.12-.06Zm15.72,16.26c.2-.3.4-.47.63-.36-.45.57.02,2.17-.74,1.72-.26-.79.55-.83.11-1.36Zm-12.29-16.93c-.13.23-.26.46-.39.7-.13-.16-.25-.33-.38-.49.2-.7.5-.29.77-.21Zm-7.82-9.95c-.3-1.16-.45.12-.94-.29-.18-1.09,1.58-.72.94.29Zm22.51,26.45c.78.7,1.5-.96,2.04.61-.02-1.02.74-1.02,1.18-.55-1.04.27-.76,1.46-1.7,2.26-.54-1.36-.38.17-.74-.99-.54.28-1.61,1.07-1.86.24.11.11.69-.07.41-.35-.35.22-.73.13-1.13-.3.25-.62.57-.2.91.31.3-.52.96-.29.9-1.22Zm13.58,19.91c.05.85-.59.65-.94.53-.04-.69.58-.9.94-.53Zm-16.21-22.19l.5.66c-.18.44-.39.61-.64.36.47-.35-.33-.67.14-1.02Zm-15.79-22.87c-.27.78-.75-.74-1,.22-.41-.45-.08-1.2-.67-1.15.66-1.25.99.81,1.67.93Zm7.5,9.32c-.29.53-.56,1.24-.96.55.33-.07.57-1.17.96-.55Zm-5.06-6.21c-.49-.94.53-2.2,1.1-1.58.06.65-.21,1.11-.46,1.21-.1-.87-.48-.3-.65.37Zm23.03,24.5c-.08-.87-.46-.3-.64.36-.3-.04-.42-.21-.49-.66-.71.85-1.57-.33-2.27.59-.39-.4-.09-1.49-.59-.49-.42-.48-.55-1.84.12-1.36-.1.23-.19.46.05.68-.07-1.92,1.27-1.38,1.96-1.93l.61.83c.43-.1.8-1.12,1.3-.38-.12,1.07-1.12,1.31-1.69,1.08.13.24-.03.29-.19.34.37.04.79.74,1.15.64.48-.99.98-1.74,1.59-.89-.89,0-.6.76-.91,1.21Zm-17.23-18.83c.17-.35-.35-.66-.09-1.01.29.75.41-.44.7.31-.29.58-.14,1.14-.53,1.72l-.38-.49.29-.52Zm36.46,48.22c.19.52-.49,1.22-.72.52.23-.25.42-1.26.72-.52Zm-5.89-11.09c-.18,1.16-1.44-.31-.99-.15.34.16.62-.5.99.15ZM41.19,25.58l-.39.7c-.14-.22-.38-.43-.29-.66.25.23.18-.82.68-.03Zm4.59,3.52c-.19.29-.1.57.18.84l-.49.87c-.35-.12-.72-.55-1.08-.8.48-.13.92-.66,1.39-.91Zm-4.39-3.87c.18-.51.04-1.02-.02-1.52.26.32.43-.27.71.31-.8,1.24.87.54.69,1.49-.5-.48-1.44.69-1.63-.6l.25.32Zm6.61,6.15c-.29-1.21-.75-.02-1.28-.46.16-1.53,1.48-.85,1.28.46Zm.92.31c.42.14.22,1.07.5.66.16-.4-.15-.79.02-1.19.17.22.34.44.51.66-.14.29-.36.58-.05.85-.22.45-.45.87-.74.53.11-.23.2-.46-.05-.67-.38.35-.08.68-.37,1.03-.57-.6.13-1.25.18-1.87Zm3.48,4.28c-.43.72-.91.7-1.46-.12.44-.53.94-.34,1.46.12Zm-9.34-10.98c.53-.44,1.18.6,1.7.09-.41.75-.74.6-1.42.58.09-.23-.09-.45-.28-.67Zm19.76,23.69l-.4.69c-.34-.71-.64-.7-.88.02-.12-.16-.24-.33-.37-.49.51-.62,1.09-.27,1.64-.21Zm-17.17-22.46c-.37-.35-.68.03-1.06-.46.22-.62,1.09-.3,1.06.46Zm33.36,43.62c-.55.48-1.17-.27-1.73.03.13-1.11,1.17-.4,1.73-.03ZM42.77,21.6c-.11-.39.13-.8.24-1.2.29-.16.59-.17.9-.04.17.5.03,1.02.02,1.53.42-1.24.98-.89,1.5-1.09.58,1.17,1.01.96,1.82,1.46-.27.9-1.54.26-2.26.09.22.27.25.56.18.84-.67.04-.89-.25-.64-.82-.5.22-2.06.9-2.67-.73.59.44.39-.18.9-.04Zm6.63,7.69c-.1.86-.26,1.34-.94.88.75,0,.18-.99.94-.88Zm-4.88-5.74c.28.23.53.03.83.47-.27.62-1.1.29-.83-.47Zm19.84,25.07c.2.14.38.12.54-.18.2.28.41.55.61.83.69-.83.92-.12,1.72-.72-.2.34.21.67-.15,1.02-.49-.64-.9-.26-1.32.04.21.56.3,1.12-.1,1.7-.35-.24-.68-.29-1.05-.82.29-.57.65-.13.93-.87-.24-.68-1.05-.28-1.17-.99Zm.39.84c-.33.53-.71.38-1.13-.31.34-.41.75.14,1.13.31Zm-17.19-24.68c.53.32-.22.69.31,1-.27.42-.57.43-.9.03-.05-.45.29-1.04.59-1.04Zm36.37,49.55c-.26.42-.53.85-.84.35.25-.62.55-.49.84-.35ZM46.78,23.46c.26.27.17.56.41.83-.22.51-.5.34-.8-.14l.4-.69Zm10.98,12.31c.22.27.36.55.4.83-.47.2-.92.66-1.46-.11.31-.79.75.13,1.06-.72Zm-8.94-10.86c.65.63,1.18-.32,1.83.27-.61-.13-1.11,1.14-1.77.41.13-.23-.13-.45-.05-.68Zm3,3.62l.4-.69c.17.39.47.77.43,1.17-.31-.64-.51.16-.82-.48Zm-3.71-5.46c.11-.46-.82-.88-.34-1.35.56-.04.06.72.66,1.16l-.5.86c-.17-.4-.81-.18-.63-.82.25-.19.55.21.8.14Zm20.4,26.29c-.5-.37-.37.72-.98.2.22-.7,1.02-1.13.98-.2Zm-13.62-20.44c-.4.12-.79.45-1.22.22.35-.83.8-.36,1.22-.22Zm33.74,46.22c-.24.25-.47.67-.74.17-.05-.65.41-.92.74-.17Zm-30.12-42.96c-.43-.22-.81.14-1.27-.46.3-.67,1.26-.1,1.27.46Zm12.43,17.12c.5-.14,1.04.15,1.56.31-.42.72-1.71.98-1.56-.31Zm-18.76-30.62c-.41.64.07.2.28.67-.21.7-.55-.3-.78.2.45.92.8.53,1.21.97.12.3.63,1.42-.02,1.19.18-.65-.45-.19-.63-.82-.37,1.03-.92-.13-1.33.39-.4-.81-.65-1-1.21-.97-.16.29.29.55.18.84-1.08-.89-.57-1.61-.24-3.04.28.27.12.56.18.84.17-.28.41.36.58.15-.23-.27-.37-.55-.41-.83.37-.56.72.02.5-.87.27,0,.52-.2.83.47-.12.37-.44.2-.3.52.38-.03.77.11,1.16.3Zm3.82,5.62c-.06-.61.35-.43.63-.7.28,1,.86.26,1.4.63-.44,1.02.49-.01.75.99-.46.39-1-.36-1.48-.13-.8,1.02-.41,2.96-1.4,2.43.6-.63,1.21-2.69.09-3.23Zm36.24,49.8c.11.39-.51.79-.05,1.19.56-.51.25-1.02.46-1.53.2.36.37.18.57.51-.26,1.28-.67,1.58-.94,2.72-.85-1.3-.98-1.19-1.81-1.68.42-.61,1.01-1.34,1.77-1.19Zm-18.66-24.85c-.13.7-.49.89-.96.52.31-.34.64-.39.96-.52Zm-24.15-32.34c-.18.34.35.66.08,1.01-.52.23-.64-1.27-.08-1.01Zm8.87,9.51l-.8,1.38c-.16-.2-.3,0-.47-.32-.17-.75.71-1.51,1.27-1.06Zm16.18,23.15c.32.4.57.2.38.84-.24-.33-.42.26-.68-.33l.3-.52Zm-8.55-13.53c.66.78-.34,1.32-.72.87.22-.65.51-.22.72-.87Zm-12.75-16.05c.22-.02.74.69.43,1.17-.33-.38-.63-.77-.43-1.17Zm21.89,28.55c-.05.11-.1.23.02.34.17-.31.35-.31.54-.18-.33.54-.69.71-1.08.36.17-.23.32-.69.52-.52Zm-.53-3.21c-.41-.58-.7.62-1.11.02.27-.58,1.12-.89,1.11-.02ZM48.63,9.83c-.15.74.49.3.33-.18.33.38.24.78.21,1.18-.53-.16-.38.31-1.14.04.11-.54.28-.97.6-1.04Zm50.98,65.28c-.26.61-.57.05-.86,0,.26-.61.55-.61.86,0Zm-26.75-38.88c-.23.5-.5.33-.79-.15.23-.5.5-.33.79.15Zm10.72,14.56c.54.52-.02,1.46-.4.68.29-.45,0-.63.4-.68Zm-8.78-13.75c.44-.72,1.52-.49,1.7.48-.54-.95-.95.16-1.43.19.16-.48-.31-.05-.26-.67Zm30.33,38.94c-.46.22-.91.45-1.41-.18.43-.44,1.26-.76,1.41.18ZM58.98,12.34c-.26-.26-1.07-.31-.98-.99.22-.29,1.08.39.98.99Zm10.15,9.2c.43.85.78.46,1.19,1-.37.63-.85-.33-1.18.87-.26-.47-.45-.05-.72-.66.47-.6.37-.43.71-1.21Zm17.56,23.28c.45.51.65,1.01.19,1.53-.35-.13-.51-1.01-1.04-.84.25-.82.59-.07.85-.69Zm-19.44-31.37c-.38.6-.76,1.11-1.19.88.38-.59.74-1.51,1.19-.88Zm10.65,15.38c-.23.5-.5.33-.79-.16.23-.5.5-.33.79.16Zm-3.75-6.37c-.38.53-.77.85-1.23.19.38-.51.81-.24,1.23-.19Zm3.11,3c.64.66,1.18-.29,1.8-.03-.3,1.23-1.03.75-1.86.88-.1.25-.02.61-.33.18.02-.34.11-.68.39-1.02Zm10.28,12.07c-.52.72-1.08.64-1.64.52.52-.78,1.08-.62,1.64-.52Zm-17.77-25.66c-.28.42-.59.3-.89.36.18-.57-.13-1.13.12-1.69.51.44.32.89.77,1.34Zm-1.78.72c-.24-.85-.49-.46-.97-.99.77-.2,1.25-2.07,1.78-.72-.64.28-.54.99-.8,1.71Zm1.98.81c-.28-.69-1.03.26-.95-.66.42-.03.82-.27,1.28.48-.2.29-.12.56.17.85-.35.44-.72.55-1.11.36.14-.35.86-.39.62-1.03Zm8.5,9.67c-.32-.34-.59.29-.92-.32.2-.55,1.03-.18.92.32Zm-1.35.03c.31-.4-.39-.78.04-1.19.51.29.4,1.44-.04,1.19Zm2.77,3.17c.26-.62.57-.43.86-.69.34.72.63.52.94.67-.46.35-.25.37-.62,1.02-.24-.65-.4-.91-.8-.16-.22-.28-.35-.56-.38-.84Zm19,24.61c-.27.75-.76.43-.72,1.18l-.24-.34c-.07.09-.14.17-.22,0,.15-.79.67-1.3,1.17-.84Zm15.04,24.17c.29.26.53-.17.56.52-.26.7-.83,0-.56-.52ZM70.94,12.53c-.34.08-.69-.08-1.05-.49.22-.91,1.14.2,1.05.49Zm25.27,32.58c-.42.42-.86.42-1.33,0,.42-.42.87-.42,1.33,0Zm-20.77-31.48c-.25-.21-.11.26-.31.51-.49-.14-.58-1.14-1.15-.31-.01.58.7.4.41,1.18-.45.02-.74-.27-.97-1,.55-.97,1.73-1.42,2.02-.38Zm17.17,25.39c.49.24.93-.76,1.45.16-.38.67-.8.4-1.18.86-.3-.33-.42-.67-.27-1.01Zm-9.58-15c.23.05.46.23.71.67-.26.79-1.01-.15-.71-.67Zm-5.88-10.25c-.15.23-.17.46-.19.68-.23-.05-.47-.22-.72-.67.28-.41.58-.42.91-.02Zm8.14,10.57c-.33.06-.61,1.15-.99.52.31-.53.64-.71.99-.52Zm3.4,2.85c-.4.83-.59-.16-.74.85-.22-.28-.35-.56-.38-.85.34-.64.72-.65,1.12,0Zm-2.48-.32c.48.71.86-.68,1.36.33-.33.98-1.31.53-1.36-.33Zm-7.36-11.1c-.25.89-.6.12-.93-.32.27-.58.62.19.93.32Zm8.05,9.23c-.26.69-.59.21-.88.34-.04-.78.52-.94.88-.34Zm1.28-1.37c-.55.72-.79.77-.82,1.7-.41.02-.31-.57-.5-1.01.27-.62.58-.42.87-.68-.16-.18-.46-.08-.36-.51.66-.39,1.01.26,1.5.83-.1.28-.03.56-.3.85-.47-.39-.21-.79-.4-1.18Zm1.78,1.85c-.72.67-1.47.59-2.23.36.02-1.6,1.43-.89,2.23-.36Zm-11.74-14.96c-.55.31-1.14-.08-1.72-.14.55-.38,1.11-.58,1.72.14Zm3.68,5.03c-.02.45,0,1.31-.52.85,0-.2.21-1.2.52-.85Zm-1-3.89c.65.39-.41.8-.05,1.19.32.34.57-.71.91,0-.56.79-1.19.46-1.8.36.11-.74.74-.43.94-1.54Zm10.06,15.84c.68-1.06,1.54.5,1.3,1.51-.38-.67-.32-1.01-1.3-1.51Zm0-2.2l-.52.85c-.13-.23-.36-.45-.26-.68.29.5.47-1.11.78-.18Zm-4.9-8.09c.35.39.1.79-.05,1.19-.16-.2-.3-.01-.47-.33.18-.29.35-.57.52-.85Zm-2.12-3.87c.29.62.31,1.24-.02,1.86-.56-.6-.4-1.77.02-1.86Zm6.37,10.11c.29-.79.91.15.93.67-.51.79-.41-.15-.93-.67Zm-4.45-10.3c.21.31.4.49.59.5-.53.42-.68-.27-.98.86-.24-1.06-.57-.19-1.06-.84.46-.64.99.17,1.45-.52Zm3.26,1.67c-.78-1.16-2.02.41-2.42-.83.67.07,2.42-1.01,2.42.83Zm-.68,0c-.2.34.2.68-.17,1.02-.2-.17-.38-.08-.59-.5.49-.25.25-.82.77-.52Zm3.94-.54c.29.65.52-.14.82.51-.29.34-.58.56-.89.34.12-.29-.02-.57.08-.85Zm10.6,11.19c-.39.08-1.5.86-1.25-.51.37.72,1.26-.22,1.25.51Zm11.94,17.73c.53.47-.06,1.51-.41,1.01.3-.33.02-.68.41-1.01Zm-12.31-18.58c-.24.5-.52.08-.79-.17.29-.3.21-1.44.52-1.18-.08.45.22.9.27,1.35Zm.28-1.52c.59.48.14,1.69-.29,1.19,0-.39-.15-.79.29-1.19Zm-4.93-7.97c.38.97.67-.3,1.04.51-.54.57-1.11.5-1.68.51l.64-1.02Zm4.88,6.61l-.42.67-.36-.51c.24-.69.52-.27.78-.17Zm2.15,3.39c.55-.86.52.56,1.15.68-.37.28-1.09-.03-1.15-.68Zm1.49.86l.47.68c-.21.61-1,.82-.9,0,.31.39.39-.52.43-.67Zm11.97,16.92c-.26.11-.52-.31-.79-.52,1.54-.21,3.08-.35,4.65.43-.41,1.24-.9-.62-1.32.31.3.41.56.22.35.86-.49,0-.3-.73-.8-1.2-.46.85-.97-.46-1.42.48.3.16.59-.03.9.7-.21.48-.44.05-.65.67-.41-.26.05-1.33-.47-1.03-.31.39.36.8-.08,1.19-.22.11-.44-.05-.67-.35.01-.51.45-1.01.29-1.52Zm-13.55-20.15c.56.94,1.05.15,1.6.69-.27.68.15,1.26-.51,1.52-.55-.46-.16-.9-.27-1.36-.33.2-.67-.02-.99.5-.42-.45-.15-.91.18-1.36Zm-4.32-7.12c-.36.55-.7,1.27-1.1.68.37-.27.71-1.22,1.1-.68Zm8.92,13.78l-.43.67-.35-.51c.24-.49.5-.66.78-.16Zm3.23-4.03c.18-.14.37-.12.57.17-.78.88-1.28-1.26-1.73-1.55-.18.28-.36.56-.53.84-.89-1.02-1.75-.85-2.6-.54-.07.83-.37,1.48-.62,1.69-.11-1.32-.4.45-.91-.35.68-.9,1.23-1.42,1.6-2.53.78,1.51,2.01-.15,2.91-.31-.09.34-.69.67-.42,1.01.4-.48.81-.29,1.21-.83-.16-.18-.46-.09-.35-.51.44.58,1.4-.53,1.47.52-.57-.46-1.37.83-.85,1.69.02-1.23,1.51-.53,1.57.02-.42-.04-1.64-.55-1.33.67Zm.4-1.69c-.02-.38.45-.84.76-.84-.19.54.51.14.69.68-.47.6-.96.28-1.45.15Zm-12.54-7.72c.56-.23,1.13-.11,1.7.17-.52.34-1.49.78-1.7-.17Zm4.84,5.94c-.23-.19-.44.39-.69-.34.13-.88.87-.1.69.34Zm2.15.53c-.25.47-1.09.71-1.02-.18.35.28.67-.1,1.02.18Zm-4.28-6.47c.02.5-.54.89-.89.34.28-.61.58-.48.89-.34Zm20.23,27.38c-.07.76-.66.11-.53,1.17-.56-.49.18-1.69.53-1.17Zm1.21-.14c.02.75-.55.51-.85,1.34l-.34-.52c.39-.54.78-1.34,1.2-.82Zm-14.12-20.56c-.27.13-1.09.75-1.02-.18.34.19.66-.31,1.02.18Zm-2.31-5.28c-.25.49-.51.66-.78.16.25-.49.51-.66.78-.16Zm6.97,7.2c.3.07.59-.07.9,0-.35.58-.34,1.23-.87,1,.19-.33-.31-.68-.03-1.01Zm2.39,1.55c.2.31.39.49.57.52-.07.11-.14.23-.22.34.06.11.12.23,0,.34-.64-.78-.13.73-.42,1.01-.27-.25-.52.17-.8-.52.51-.56.5-1.13.85-1.69Zm-1.42-3.07c.15.28.47.57.36.85-.53-.32-1.03.66-1.58-.36.56-.53.91.22,1.22-.49Zm33.57,51.67c.39.47.12.91-.21,1.35-.14-.25-.29-.31-.43-.36-.01-.45.36-1.02.64-.99Zm-20.12-31.9c.36-.35.73-.19,1.11.36-.33.61-.33,1.9-.97,1.16.31-.68.53-1.24-.14-1.53Zm-9.44-16.14c-.43,0-.54-.58-.47-1.03-.77.79-2.15.41-2.6-.89.97.77,2.06.33,2.68-.29-.13.45.02.91.26,1.36.02-.73.06-.79.54-.84.26.28.08.56.13.85.21-.91.24-.29.67-.33-.34-.71.35-.85.66-.32.02.58-.47.41-.76,1.17-.78-.21-.85-.7-1.11.31Zm-8.95-14.7c.62.71,1-.92,1.33-1,.51.87-.2.75-.4,1.69-.25-.68-.45.07-.67.33-.3-.34-.42-.68-.26-1.02Zm8.65,11.64c.49.31.98.33,1.47.54-.33.35-.66.53-1,.49.2-.26-.91-.13-.47-1.03Zm-4.5-8.88c.02.45-.44,1.31-.77.84.26-.2.5-1.2.77-.84Zm-.77-3.4c-.25.64-.52.2-.77.84.31.41.58.21.36.85-.35-.22-1.27.12-1.27-.86.47-.49.93-1.4,1.68-.83Zm8,14.03c.22.81.95-.44.8.53-.31.18-1.11.5-.8-.53Zm-2.5-6.32c-.45.24-.9.12-1.35.31.02-.47,1.29-1.15,1.35-.31Zm-4.33-6.35c-.15.23-.18.45-.21.68-.28-.34-1.12-.16-1.04-.86.43.5.81-.55,1.25.18Zm11.53,12.43c-.68.49-1.79.46-2.68.62.17.4.46.8.14,1.19-.17-1.44-.48-.36-1.14-1.04.4-.66.73-.66.52-1.86.79,1.89,2.07.35,3.16,1.09Zm29.4,49.73c-.36-.28-.72.73-1.07-.05.29-.26,1.14-.76,1.07.05Zm-19.26-31.98c.23.55.45.56.66.02.45,1.05-.68,2.25-1.31,1.65.64-.7.6-.75.64-1.67Zm-19.4-29.81c-.67.38-1.36-.05-2.04-.03l.33-.51c.58.46,1.13.07,1.71.53Zm11.25,17.7c-.45-.07-1.48.24-1.57-.71.46.43,1.47-.48,1.57.71Zm-1.17-3.41c.61.75,1.19.12,1.8.72-.62.77-1.85.32-2.13-.22.21.22.32-.25.33-.5Zm-9.18-14.6c-.18.28.27.57.13.85-.31-.35-.6.26-.91-.36.25-.44.51-.84.78-.49Zm2.16.55c-.36.67-.74.6-1.12.32.37-.17.74-.72,1.12-.32Zm7.09,11.85c.62-.77.76.07,1.25.88-.2.28-.31.56-.32.84-.08-.11-.15-.23-.23-.34.19-.82-.13-1.12-.69-1.37Zm-8.28-14.24c.61.21,1.2-.53,1.82.38-.59.15-.37,1.26-.88,1.34-.62-.37-.02-1.56-.48-1.37-.16.39.14.79-.31,1.18-.34-.51-.19-1.02-.15-1.53Zm2.77,2.43c-.03.34-.14.68-.43,1.01-.32-.82-.6-.08-.92-.7.07-.11.15-.22.22-.33.36.67.56-.15,1.13.02Zm9.32,12.25c-.53-.04-1.96,1.53-1.79-.05.61.74,1.18-.77,1.79.05Zm3.39,2.82c-.29.33-.59.54-.89.31,0-.51.55-.88.89-.31Zm.09-1.86c-.69-.4-2.37.85-2.36-.92.72.89,2.01-.09,2.36.92Zm3.95,4.36c-.29.6-.59.46-.89.31,0-.54.56-.68.89-.31Zm-.8-2.57c.64,1.46,1.27.29,1.91.91-.36,1.04-1.61.14-2.34.09.31-.33.03-.68.44-1Zm.22-.67c.67.93.71-1.26,1.45-.46-.6.56-.31.41-.55,1.17-.33.04-1.22.23-.9-.71Zm3.8.46c-.33.68-.67.71-1,.48,0-.62.65-1.35,1-.48Zm-7.63-12.96c-.37.9-.75.36-1.12.31.37-.17.74-.72,1.12-.31Zm-.23-.69c-.23.51-1.03.33-.91-.37.3.43.6-.53.91.37Zm1.71,1.92c-.19.33.32.69.24,1.03-.26.48-.52.65-.79.14.36-.29-.05-1.44.55-1.17Zm-.15-3.57c-.05.27-.48.82-.33,1.52.26-.34.53.08.8.53-.56.44-1.11,1.45-1.69.8.85-.8.14-3.67,1.21-2.85Zm10.43,18.34c-.2.74-.95.44-.78-.2.26.27.52-.5.78.2Zm-8.71-15.74c-.26.48-.52.65-.79.15.26-.48.52-.65.79-.15Zm7.36,11.96c.52-.14,1.51-.35,1.68.58.4-.55,1.17.41,1.23-.8l.45.7c-.29.63-.55.18-.56.83-.64-.46-.97-.48-1.11.63-.48-.36-.1-.68-.22-1.03l-.56.83c-.56-1,0-1.48-.9-1.73Zm4.02,1.19c.62,1.03-.73,1.71-1.12.97.13-.28,0-.56.11-.84.73-.09.52,1.25,1-.12Zm1.23-1.14c.55.65-.01,1.24-.34,1.85-.19-.26-.37.28-.56-.19.4-1.11.63-.42.9-1.66Zm2.78,4.02c-.33.3-.67.7-1,.13.33-.58.67-.59,1-.13Zm30.97,42.05c.27-.33,1.08-.62.96.24-.27-.44-.66.18-.66.63-.19-.3-.29-.59-.3-.87Zm-24.94-44.48c.64,1.04-1.07,2.22-1.01.79.48.46.42-.7,1.01-.79Zm26.66,44.28c.59-.29,1.74-.82,1.92.49-.76-.56-.35.84-.68,1.31-.39-.65-.22-1.26-.27-1.89-.36.8-.98,1.06-.97.1Zm3.33.09c-.28-.17-.58.3-.86-.07-.04-1.06,1.28-.74.86.07Zm-30.21-58.11c-.38.39-.76.37-1.13-.06.38-.75.75-.33,1.13.06Zm2.04-.91c.3-1.31.54-.01.9.05-.28-.91.28-1.51.48-2.01.55.77-.68,1.44-.14,2.2.12-.27.06-.56.35-.83.17,0,.87.62.67,1.05-.64-.61-3.04,2.42-2.48-.13-.46-.03-1.5.68-1.58-.42.27-.65,1.55-.78,1.8.09Zm.7-1.66c-.57.58-1.14.46-1.7.42.57-.47,1.14-1.01,1.7-.42Zm34.66,58.53c.45.48,1.54-.96,1.6.31-.5-.14-1.49.99-1.6-.31Zm-32.61-59.11c.15.29.45.59.33.87-.56-.55-.8-.39-1.02.45-.34-.98.28-1.03.69-1.32Zm2.12,1.98c.25.66.53-.35.78.55-.32.36-1.13.13-.78-.55Zm-.85-3.78c.29.35.39.7.21,1.03-.15-.18-.29-.53-.45-.36-.11.09-.23.32-.34.15l.58-.82Zm36.73,61.04c-.12.27-.08.56-.36.82-.22-.71-.49-.3-.73-.57.38-.47.75-.83,1.09-.24Zm-31.81-57.38c-.08.33.49.41.55.55.14-.27.02-.57.13-.84.6-.11.78.83.31,1.55-.6-.19-1.2-.02-1.8-.45.44-.35.6-.81.8-.8Zm33.68,58.91l-.4-.71c.36-.76.92.24.4.71Zm-30.76-58.04c.34-.26.68-.37,1.01.23-.35.55-.69.41-1.02.11.06-.11.12-.22,0-.34Zm35.61,55.76c.24.27.5.11.73.58-.17.19.05,1.21-.36.82.24-.42,0-.86-.3-.54.08.35.06.69-.05,1.02-.2-.35-.44.2-.63-.4.56-.46.05-1.02.61-1.47Zm-32.2-57.24c.49.36,1.58-.23,1.68.62-.33-.27-.68.12-1.02.1.18.37.37.21.55.55-.32.29-.81.48-.81,1.14-.24-.81-.36-1.61-.4-2.4Zm34.34,57.45c-.18.38-.08.78-.38,1.15-.23-.5-.11-1.71.38-1.15Zm-31.99-56.45c.54.77.47,1.5.28,2.22-.14-.25-.29-.31-.44-.37.26-.61-.42-1.27.16-1.86Zm32.92,57.39c-.27.47-.53.62-.76.1.28-.46.53-.62.76-.1Zm-31.44-57.81c-.61.15-1.21.39-1.8-.12.65-.14.78-.45,1.25-.43-.07.16-.04.34.1.52.16-.18.31-.33.45.03Zm.88.73c-.14.27.1.57.09.85-.66.69-1.29.5-1.92.05.37-.43.12-.9.49-1.33.44.31.9.06,1.34.43Zm33.3,56.15c-.42.47-.73.95-.62,1.47-.3-.47-.65.03-.95-.26.66-1.05-.28-.69.07-1.35.47.69,1.02-.19,1.5.15Zm-32.46-57.97c.23.3.11.57.32.87.12-.16.05-.34.13-.5.48.43.19.81-.15,1.18-.15-.18-.29-.53-.44-.37.11.23-.07.45-.24.66-.11-.18-.21-.35-.32-.53.62-.71.51-.49.71-1.31Zm1.51,2.48c.39-.4.75.09,1.13.09-.4.82-1.12.92-1.13-.09Zm2.52-1.17c.34-.11.69-.49,1.02-.1-.32.79-.61.15-.91.27.06.17.21.35.1.52-.15-.24-.18-.47-.2-.7Zm2.55,1.38c-.36-.38-.76.23-1.11-.42.32-.43,1.21-.39,1.11.42Zm-.24.32c.11.1.22.07.34-.15.28.36.38.71.19,1.04-.18-.22-.37-.04-.56-.22.15-.21-.08-.46.02-.67Zm2.58.36c-.63.79-1.22.65-1.81.21.62-.71,1.2.08,1.81-.21Zm.4-1.84c-.26,1.17-.96.96-1.49.74.51-.72,1.02-1.23,1.49-.74Zm2.73,2.41c.1.29.03.57.31.87-.51.6-1.01.9-1.47.06.58-.03,1.13-.48,1.16-.94Zm6.73-2c-.28.46.35.09.42.72-.22.53-.96-.09-.77-.57.23.3.14-.37.35-.14Zm46.39,2.35c.28.3.59.14.84.79-.51.72-.97.77-1.42.85l-.29-.55c.66-.31.55-.17.88-1.09Zm3.62,1.31c-.42-.88-1.18.47-.94-.97.24.43,1.11.08.94.97Zm38.32,54.61c-1.12,1.05,1.01.49-.24,2.02-.28-.78-.17-.83-.65-.96.14-.46.44-1.64.88-1.06Zm-1.3,1.84c-.12-.2-.23-.56-.39-.41-.19.33-.1,1.57-.58,1.28-.04-.41.27-.76.03-1.2.59-.07.68-1.5,1.26-1.51.06.64.21,1.29-.32,1.83Zm-25.92-56.73c.38-.44.69-.15,1.02-.03-.04.58-.51.35-.89,1.08-.36-.39.06-.67-.13-1.05Zm28.83,54.98c.24.61-.01,1.14.01,1.72-.24-.39-.65.6-.85-.14.4-.82.45-.69.84-1.58Zm-26.53-54.16c-.52-.4-.48.75-.92.22-.07-.4,1.17-1.33.92-.22Zm26.83,54.38c.26-.36.47-.33.64.1-.16.4-.3.67-.51.6.13-.21,0-.46-.13-.71Zm6.43-54.75c-.34-.6-.88.42-1.24-.03.45-.84,1.38-.83,1.24.03Zm1.83-.05c-.55-.15-1.16.18-1.65-.44.64-.59,1.2-.53,1.65.44Zm.88-.72l-.53.6c-.09-.19-.18-.37-.27-.56.35-.65.55-.19.8-.05Zm32.08,32.29c.27.63-.06,1.14-.47,1.63-.58.35-1.33.17-2.23.77-.08-.24-.26-.51-.12-.71.65-.75,1.89-1.31,2.82-1.69Zm2.95.41c.13.37.19.73.06,1.05-.75.04-1.56.49-2.27.24.75-.54,1.45-.75,2.21-1.29Zm-14.25-32.89c-.18.65-1.1,1.2-1.48.77.57-.82,1-.65,1.48-.77Zm17.77,31.86c-1.07.73-1.93.92-2.58,2.25l-.33-.75c.7-.25,1.78-2.34,2.91-1.5Zm-9.19-35.79c.23-.27.44-.41.63-.4.46.89-.59,1.5.1,2.43-.43.07-.96.78-1.25-.06.73.16,1.09-.95.52-1.97Zm17.14,37.77c.25.51-.18.88-.22,1.34-.21-.3-.53.07-.68-.66.32-.35.54-.1.89-.68Zm-2.26-14.48c.28.26.67-.89.87-1.2.42.43-.01.69.06,1.05.13-.07.23,0,.3.24-.57.07-1.03-.16-.95,1.01-.27-.04-.37-.66-.28-1.09Zm-1.99-16.82c-.18-.54-.6.41-.75-.32.32-.7,1.02-.29.75.32Zm3.11.62c-.64.42-1.28.81-1.74.17.56.04,1.28-.85,1.74-.17Zm2.16.79c-.35.27-.7.55-.89-.19.36-.34.66-.28.89.19Zm.32-3.4c.21.6.32.62.44.09.42.65-.68,1.15-.78.53.19-.2.26-.41.33-.63Zm18.82,10.06c-.11.61-.74.9-1.06.8.08-.45.82-1.36,1.06-.8Z"/><path class="cls-1" d="m102.57,11.4c-.12.33.3.15.13.51,1.19-1.64,2.48-.38,3.7-1.17-1.08-.63-2.13-.5-3.19-.36-.11.23.13.45.25.68-.3.06-.59.48-.9.33Z"/><path class="cls-1" d="m32.17,74.72c.4.41.69-.39,1.05-.39-.37-.06-.76-.33-1.05.39Z"/><path class="cls-1" d="m51.3,69.74c-.25.29-.17.57-.25.86.2.17.34-.3.5-.52.05.22.1.45.27.67.21-.66-.2-.67-.52-1Z"/><path class="cls-1" d="m32.49,45.69c-.43.23.71.08.76.98.15-.4,0-.79,0-1.19-.54-.49-.22.7-.76.21Z"/><path class="cls-1" d="m40.73,55.45c-.23.35-.2.69.09,1.01-.04-.44.21-.63.5-.53.19-.46-.44-.24-.6-.48Z"/><path class="cls-1" d="m39.03,51.46c-.07-.28.09-.57-.19-.84-.26.35-.34.69-.35,1.03.25.29.4-.46.66-.03.08-.23-.07-.26-.13-.16Z"/><path class="cls-1" d="m56.92,74.63c.45.76.23-.44.38-.69.27-.41.08.52.49.66.5-1.01,1.09-.8,1.7-.4.08-.34.06-.68.14-1.02-.43.54-1.43.76-2.26.25-.18.78-.49.62-.45,1.2Z"/><path class="cls-1" d="m37.56,47.46c1.32-.31,2.24-.09,3.45-1.17-.2-.32-.49-.13-.38-.49-.52-.29-.26.28-.73.54,0-.86-1.68-.09-1.29-.79-.34-.62-.91,1.07-1.05,1.91Z"/><path class="cls-1" d="m63.06,80.02c.38.64,1.62.52,2.27.11-.75,0-1.52-.12-2.27-.11Z"/><path class="cls-1" d="m19.68,20.13c.07.61-.35.32-.57,1.06.77.29.67-.3.97-.57.09-.33-.21-.14-.39-.48Z"/><path class="cls-1" d="m40.43,47.33c.39-.21.83.2,1.17-.56-.48-.76-.78.38-1.17.56Z"/><path class="cls-1" d="m60.98,71.1c-.28.29.1.56-.04.85.28.29.5-.13.75-.2.16-.51-.47.26-.7-.65Z"/><path class="cls-1" d="m32.18,28.4c.09-.17-.08-.33-.16-.5.18-.49.44-.09.61-.71-.47-.22-.95-.52-1.32.41.47.35.58-.1.87.8Z"/><path class="cls-1" d="m45.6,37.59c.53-.49.53.34,1.14.28.19-.81.14-.81.33-1.37-.45.48-1.39.45-1.47,1.09Z"/><path class="cls-1" d="m73.39,73.32c-.24-.61.55-.31.36-1.03-.28-.49-.47.54-.77-.15.15.7-.42,1.05.13,2.03.27-.35.54-.57.84-.36.2-.45-.43-.25-.57-.49Z"/><path class="cls-1" d="m75.38,73.96c.54.54.96-.75,1.53.32.3-.64-.33-.44-.16-.85-.46.2-.93.11-1.37.53Z"/><path class="cls-1" d="m77.59,73.08c-.22-.28-.13-.56-.38-.84-.59.45-1.21.32-1.85-.14.2,1.41,1.17.27,1.72,1.5.31-.88.7-.33,1.1.32.62-.27.59-.68,1.12-1.2-.23-.16-.44-.17-.67-.33-.28.29.09.56-.06.85-.1.11-.22,0-.31.18-.15-.34.21-.68-.28-1.01-.28.06-.38.24-.39.68Z"/><path class="cls-1" d="m41.74,9.44c-.09.23.07.26.13.17.19.22.38.43.28.66.2.17.36-.3.53-.53-.33-.24-.62-.16-.94-.3Z"/><path class="cls-1" d="m53.15,13.55c-.15.44,1.58,1.24,2.07.26-.18-.14-.85.5-.71-.31-.48-.38-.84.92-1.36.05Z"/><path class="cls-1" d="m59.12,15.9c.49.29.81,1.54,1.41.64-.23-1.33-1.26-.17-1.25-1.66-.48.35.33.67-.16,1.02Z"/><path class="cls-1" d="m82.81,40.63c-.19.69.44.26.58.5.2-.25.06-.73.31-.51.11-.11.05-.23-.02-.34l-.24-.34c.14.25-.47,1.26-.3.51-.23-.2-.08.45-.33.17Z"/><path class="cls-1" d="m72.02,17.09c.05.63,1,.42,1.4.65-.06,1.01.9,1.7,1.25,2.01-.09-.95-.47-1.91-.74-2.86.02,1.71-.74-.24-1.48-.14-.01.43-.12.6-.43.34Z"/><path class="cls-1" d="m75.94,20.24c.2.69,1.3.36,1.84.64.3-.62-.81-.28-.51-1.01-.19.22-.79.88-1.33.36Z"/><path class="cls-1" d="m74.65,17.55c-.43.44.09.6.25.34.21.28.24.56.16.84.2.16.37-.04.58.16-.23-.29-.45-1.4.31-.52.1-.29-.22-.56-.39-.84-.28.42-.58.42-.91.01Z"/><path class="cls-1" d="m80.46,18.29c-.2-.16-.38.04-.58-.16-.41.4.14.79-.27,1.19.36-.07.34-.49.85-1.03Z"/><path class="cls-1" d="m85.06,10.79c0,.62-.15.2-.42.68.46.39-.21.79.4,1.18l.32-.51c-.24-.45-.46-.93.19-.68.24-.48-.35-.06-.49-.67Z"/><path class="cls-1" d="m93.98,22.58c-.3-.21-.03.45.12.17.09.34,0,.68-.18,1.02.38.2.8-1,.39-1.35-.1.22-.21.26-.33.17Z"/><path class="cls-1" d="m107.75,43.62c.15.16.17-.07.11-.17.31-.56.69.88.99-.16-.4-.86-.75-.22-1.12-.35-.09.23.16.45.02.68Z"/><path class="cls-1" d="m97.16,9.53c-.48-.7-.94-.66-1.38-.34.57.95,1.09.65,1.65,1.36.19-1.2,1-.55,1.55-1.02-.11.06-1.74-.96-1.82,0Z"/><path class="cls-1" d="m98.68,10.72c.61.13,1.18-.72,1.82,0,.03-1.91,1.81.42,2.59-.51,0-.28-.26-.57-.14-.85-.49.16-.95,1.02-1.48-.17-.69.66-1.43.18-2.15.17-.11.28.21.57.38.85-.33.32-.69-.29-1,.51Z"/><path class="cls-1" d="m97.28,6.82c.24,1.79,2.83,1.64,3.34.85-1.07-.12-2.58.68-3.34-.85Z"/><path class="cls-1" d="m105.88,8.7c.46.21.92.3,1.37.35-.03-.69-1-.53-1.37-.35Z"/><path class="cls-1" d="m112.04,9.44c.74.69,2.44.74,3.53.55-.5-.96-.95.12-1.16-1.03-.05,1.23-.93-.2-1.34.66-.44-.47.29-1.2-.37-1.19.23.89-.08,1.09-.65,1.01Z"/><path class="cls-1" d="m111.76,7.75c.03.93.98.16,1.37.35.22-.64-.44-.21-.59-.85-.37.71-.25.89-.78.5Z"/><path class="cls-1" d="m115.8,9.99c.81.54,1.61.67,2.4.54-.42-2.11-1.66-.89-2.4-.54Z"/><path class="cls-1" d="m128.07,11.59c.34.16.67-.04,1.24-.14l-.35-.52c-.29.81-.6.05-.9.66Z"/><path class="cls-1" d="m134.5,9.22l-.67,1c.58.27.57-1.09,1.24-.47.23-.44-.44-.27-.57-.53Z"/><path class="cls-1" d="m141.08,10.11c.21,1.6.67-.83,1.25.89.03-.23.06-.45.22-.68-.49-.78-.98-.08-1.47-.21Z"/><path class="cls-1" d="m151.84,10.02c-.29-.22-.06.45.11.17.2.41-.08.79-.12,1.18.38.09.76-.7,1.13.05.46-1.65,1.07-.56,1.7-.78.51-.32-.28-.69.23-1.01-.64.44-1.28-.31-1.93.43-.22-.29-.1-.57-.34-.86.01.54-.48.85-.79.81Z"/><path class="cls-1" d="m170.28,11.46c.59.8,1.22-.86,1.81.12.12-.28-.18-.58-.32-.87-.51,1.01-.98-.26-1.49.75Z"/><path class="cls-1" d="m182.17,11.02c0,.64,1.42.78,1.46.27-.49-.15-.99.21-1.46-.27Z"/><path class="cls-1" d="m193.34,15.24c.18-.44.16-.9.27-1.34-.29-.24-.6-.04-.91.27.2.59.45.01.68.05.2.36-.73.31-.04,1.02Z"/><path class="cls-1" d="m236.88,14.42c-.13.91.8.32,1.07.8.12-.1.08-.22.02-.34-.07-.12-.13-.24-.2-.36-.34.47-.6-.12-.9-.1Z"/><path class="cls-1" d="m270.9,78.63c.59.21,1.22.03,1.79.44.35-.97,1.09-.38,1.64-.27.08-.16.04-.34.16-.49-.1-.13-.03-.23.03-.34-1.24.55-2.38.03-3.63.66Z"/><path class="cls-1" d="m303.14,13.36c.65-.35-.03-.92.62-1.27-.1-.12-.23-.03-.31-.23l-.27.3c.54.5-.58.71-.04,1.2Z"/><path class="cls-1" d="m308.07,15.07c.51,1.06.09-1.31.67-.75.28-.57-.43-.69-.67-.12.23.32.25.62,0,.86Z"/></g></g></svg>