<?xml version="1.0" encoding="UTF-8"?><svg id="Capa_1" xmlns="http://www.w3.org/2000/svg" width="190" height="190" viewBox="0 0 190 190"><defs><style>.cls-1{fill:#fff;}.cls-2{fill:none;}</style></defs><g><path class="cls-1" d="m141.81,86.35v33.02c0,4.08-.57,8.6,0,12.65-.16-1.14,1.13-1.27.14-1.09-.28.05-.94.87-1.15,1.07-.85.77-1.72,1.52-2.61,2.25-3.01,2.46-6.25,4.66-9.62,6.61-19.88,11.5-44.23,12.16-64.58,1.42-3.49-1.84-6.84-3.95-10-6.32-1.44-1.08-4.28-4.72-5.94-5.02-.36-.06-.34,1.78.14.54.18-.46,0-1.36,0-1.84v-44.94l-3.76,2.16c8.89,5.02,17.78,10.05,26.68,15.04,3.92,2.2,7.85,4.4,11.79,6.58,2.26,1.26,4.53,2.51,6.8,3.76,1.62.89,3.91,2.77,5.74,3.07,3.16.52,7.74-3.52,10.39-4.99,3.99-2.22,8-4.44,12-6.64,9.24-5.08,18.5-10.12,27.75-15.17,2.82-1.54.3-5.86-2.52-4.32-16.1,8.8-32.23,17.55-48.22,26.56h2.52c-16.89-9.25-33.64-18.75-50.41-28.21-1.64-.93-3.76.24-3.76,2.16v36.01c0,3.37-1.09,8.82.09,12.09.71,1.98,3.44,3.7,5,4.98,2.89,2.37,5.93,4.55,9.12,6.5,19.71,12.02,44,14.11,65.31,5.07,7.53-3.2,14.52-7.6,20.69-12.98,3.53-3.08,3.42-4.7,3.42-9.13v-40.89c0-3.22-5-3.22-5,0Z"/><path class="cls-1" d="m175.96,65.98c-26.91,15.16-54.21,29.61-81.13,44.76h2.52c-27.9-15.28-55.42-31.24-83.32-46.54v4.32c27.64-15.36,55.67-30.01,83.32-45.37h-2.52c27.18,15.48,53.95,31.66,81.13,47.14,2.8,1.59,5.32-2.72,2.52-4.32-14.15-8.06-28.19-16.3-42.23-24.55-7.27-4.27-14.53-8.53-21.82-12.77-3.4-1.97-6.79-3.94-10.2-5.89-2.08-1.2-5.95-4.44-8.47-4.23-2.8.24-6.92,3.62-9.3,4.93-3.38,1.86-6.77,3.71-10.16,5.56-7.13,3.88-14.26,7.73-21.41,11.57-14.49,7.81-28.99,15.61-43.38,23.61-1.62.9-1.63,3.42,0,4.32,13.81,7.57,27.53,15.29,41.24,23.03,7.23,4.08,14.46,8.17,21.71,12.22,3.37,1.89,6.75,3.77,10.12,5.64,3.06,1.7,7.18,5.01,10.54,5.77,2.63.6,5.09-1.74,7.29-2.97,3.41-1.91,6.82-3.8,10.24-5.69,7.19-3.97,14.41-7.92,21.62-11.86,14.77-8.06,29.54-16.11,44.2-24.37,2.8-1.58.29-5.9-2.52-4.32Z"/><path class="cls-1" d="m101.85,64.61c18.17-4.11,36.44,1.94,46.83,17.81,11.5,17.58,12.18,40.16,6.71,59.9-.86,3.11,3.96,4.43,4.82,1.33,6.01-21.72,4.94-47.21-8.75-65.97-11.95-16.37-31.5-22.29-50.94-17.89-3.14.71-1.81,5.53,1.33,4.82h0Z"/><path class="cls-1" d="m156.54,140.83c-7.55,3.65-15.1,7.3-22.65,10.95-2.9,1.4-.36,5.71,2.52,4.32,7.55-3.65,15.1-7.3,22.65-10.95,2.9-1.4.36-5.71-2.52-4.32h0Z"/><path class="cls-1" d="m156.04,141.22c-5.24,6.16-10.48,12.32-15.73,18.48-2.07,2.44,1.45,5.99,3.54,3.54,5.24-6.16,10.48-12.32,15.73-18.48,2.07-2.44-1.45-5.99-3.54-3.54h0Z"/><path class="cls-1" d="m154.76,144.37c-2.1,7.99-4.19,15.97-6.29,23.96-.82,3.11,4,4.44,4.82,1.33,2.1-7.99,4.19-15.97,6.29-23.96.82-3.11-4-4.44-4.82-1.33h0Z"/></g><rect class="cls-2" width="190" height="190"/></svg>