<?xml version="1.0" encoding="UTF-8"?><svg id="Capa_1" xmlns="http://www.w3.org/2000/svg" width="190" height="190" viewBox="0 0 190 190"><defs><style>.cls-1{fill:#fff;}.cls-2{fill:none;}</style></defs><path class="cls-1" d="m128.62,166.49c-16.41-.29-30.08-8.97-42.41-19.1-12.39-10.18-23.33-22.6-32.84-35.47-9.39-12.71-18.13-26.92-22.04-42.38-3.76-14.84-.66-33.21,13.51-41.57,5.67-3.34,18.36-7.7,24-2.47,2.75,2.56,3.49,7.17,4.27,10.66.89,3.96,1.78,7.92,2.6,11.9s2.89,9.46,1.99,13.33-5.79,5-8.94,6.35c-5.5,2.35-8.09,4.74-6.53,10.9,3.22,12.79,12.37,25.49,21.47,34.79,5.02,5.13,10.72,9.53,16.54,13.7,3.94,2.82,9,6.42,13.59,2.92,2.37-1.81,3.59-4.68,5.22-7.09s3.74-5.01,7.24-4.77c1.99.13,4.42,1.43,6.29,2.12,4.83,1.79,9.56,3.85,14.27,5.93,3.76,1.66,9.01,3.43,11.96,6.39,3.03,3.04,1.09,9.5-.21,13.03-1.57,4.26-4.09,8.29-7.18,11.62-6.05,6.51-14.04,9.24-22.8,9.23-3.22,0-3.22,4.99,0,5,15.15.02,27.96-8.27,33.95-22.33,2.25-5.29,4.72-13.9.77-18.98-4.61-5.96-14.84-8.71-21.51-11.53-6.16-2.6-15.42-8.39-21.83-3.95-2.56,1.78-4.42,4.39-6.06,7-1.41,2.24-2.78,5.12-5.91,4.35-2.07-.5-4.28-2.54-5.97-3.76-14.84-10.72-28.18-25.05-34.31-42.68-.89-2.55-1.48-4.72,1.36-6.6,1.51-1,3.49-1.45,5.13-2.18,2.88-1.29,5.98-2.98,7.56-5.85,1.35-2.44,1.14-5.03.74-7.68-.78-5.15-1.92-10.27-3.03-15.36-1.47-6.74-2.23-16.22-8.11-20.82-5.33-4.17-13.99-2.93-20.06-1.27-14.75,4.03-24.11,16.64-26.18,31.47-2.4,17.21,5.64,34.5,14.33,48.85,10.51,17.37,23.99,33.87,39.2,47.34,14.13,12.52,30.46,23.61,49.92,23.96,3.22.06,3.22-4.94,0-5Z"/><rect class="cls-2" width="190" height="190"/></svg>