<?xml version="1.0" encoding="UTF-8"?><svg id="Capa_2" xmlns="http://www.w3.org/2000/svg" width="48.59" height="48.61" viewBox="0 0 48.59 48.61"><defs><style>.cls-1{fill:#fff;}</style></defs><g id="Capa_1-2"><path class="cls-1" d="m24.24,0c13.52.04,24.37,10.81,24.35,24.34-.01,13.48-10.8,24.27-24.31,24.27C10.8,48.6-.02,37.79,0,24.27.02,10.82,10.79.1,24.24,0Zm22,29.06c-.03-.12-.05-.24-.08-.35-.62-2.29-1.4-4.51-2.59-6.57-1.36-2.36-3.19-4.22-5.65-5.46-2.17-1.09-4.46-1.75-6.81-2.27-1.61-.35-3.22-.74-4.72-1.45-2.19-1.04-3.95-2.54-5.07-4.72-.9-1.75-1.35-3.62-1.55-5.56-.02-.23-.05-.37-.35-.3-3.34.74-6.35,2.17-9.03,4.28-2.28,1.8-4.16,3.96-5.6,6.49-1.13,1.97-1.93,4.06-2.43,6.28-.05.24,0,.34.25.36,1.07.1,2.13.3,3.17.59,1.81.51,3.45,1.33,4.8,2.65,1.51,1.48,2.47,3.29,3.09,5.29.49,1.58.79,3.2,1.19,4.8.52,2.06,1.28,4.03,2.38,5.86,1.32,2.2,3.24,3.75,5.48,4.94,1.92,1.01,3.95,1.71,6.03,2.28.18.05.35.04.53,0,4.67-1.08,8.6-3.41,11.79-6.98,2.19-2.45,3.74-5.25,4.7-8.39.18-.59.34-1.18.45-1.78Zm-21.81,17.65c-.05-.02-.11-.05-.16-.07-1.28-.5-2.5-1.12-3.68-1.84-2.65-1.64-4.57-3.9-5.89-6.71-.99-2.11-1.6-4.33-2.1-6.59-.32-1.43-.65-2.85-1.26-4.19-.89-1.94-2.21-3.47-4.15-4.43-1.53-.75-3.17-1.09-4.84-1.28-.35-.04-.37.17-.39.41-.08,1.09-.14,2.18-.09,3.28.12,2.61.66,5.13,1.65,7.55,1.61,3.94,4.16,7.15,7.59,9.66,2.98,2.17,6.3,3.51,9.95,4.04,1.11.16,2.24.23,3.37.18Zm22.28-22.27c.04-1.29-.04-2.56-.26-3.82-1.07-6.09-4.1-10.99-9.11-14.59-4.58-3.29-9.74-4.57-15.36-4.06-.4.04-.43.08-.39.48.11.94.27,1.88.52,2.79.76,2.78,2.4,4.8,5.02,6.03,1.22.57,2.5.92,3.8,1.21,2.45.55,4.88,1.14,7.17,2.24,1.85.9,3.54,2.01,4.92,3.54,1.24,1.38,2.21,2.93,3,4.6.24.52.46,1.04.69,1.57Z"/></g></svg>