<?xml version="1.0" encoding="UTF-8"?><svg id="Capa_1" xmlns="http://www.w3.org/2000/svg" width="190" height="190" viewBox="0 0 190 190"><defs><style>.cls-1{fill:#009aae;}</style></defs><path class="cls-1" d="m15,15c53.33,0,106.67,0,160,0,0,53.33,0,106.67,0,160-53.33,0-106.67,0-160,0,0-53.33,0-106.67,0-160Zm73.6,86.41c.18-.5.39-.83.39-1.16.05-3.32.09-6.63.09-9.95.01-7.37-.35-7.7-7.73-7.15-.47.03-.95.08-1.41.15-13.85,2.05-25.06,12.43-28.18,26.1-3.17,13.92,2.08,27.15,14.01,35.25,21.08,14.32,49.66,1.65,52.27-23.74,1.25-12.19.43-24.6.54-36.91.01-1.35,0-2.69,0-4.75,8.21,5.1,16.2,8.25,25.41,8.09v-17.29c-14.25-2.93-24.18-10.14-25.7-26.03h-18.05c0,1.45,0,2.85,0,4.24,0,22.98.04,45.96-.04,68.93-.02,6.41-3.21,11.09-8.99,13.73-5.8,2.65-11.34,1.8-16.27-2.23-5.05-4.12-7.04-9.34-5.32-15.79,2.12-7.98,9.06-12.26,18.98-11.49Z"/><rect class="cls-1" width="190" height="30"/><rect class="cls-1" y="160" width="190" height="30"/><rect class="cls-1" x="80" y="80" width="190" height="30" transform="translate(80 270) rotate(-90)"/><rect class="cls-1" x="-80" y="80" width="190" height="30" transform="translate(-80 110) rotate(-90)"/></svg>