<?xml version="1.0" encoding="UTF-8"?><svg id="Capa_1" xmlns="http://www.w3.org/2000/svg" width="190" height="190.43" viewBox="0 0 190 190.43"><defs><style>.cls-1{fill:#009aae;}</style></defs><path class="cls-1" d="m95,190.37c-30.91,0-61.82-.02-92.73.05C.38,190.43,0,190.04,0,188.16.06,126.34.06,64.51,0,2.69,0,.8.38.42,2.27.43c61.82.06,123.64.06,185.47,0,1.89,0,2.27.38,2.27,2.27-.06,61.82-.06,123.64,0,185.46,0,1.89-.38,2.27-2.27,2.27-30.91-.07-61.82-.05-92.73-.05Zm-.54-142.89c-.87.09-2.45.25-4.02.41-33.06,3.32-52.76,37.63-38.81,67.67.99,2.14,1.23,4.15.83,6.42-1.1,6.23-2,12.5-3.18,18.71-.55,2.9.47,3.33,2.99,2.73,5.85-1.38,11.76-2.53,17.59-3.98,2.79-.69,5.28-.6,7.97.53,5.6,2.36,11.56,3.49,17.61,3.33,31.13-.86,49.88-27.69,47.13-52.92-2.6-23.85-23.27-42.96-48.1-42.9Z"/><path class="cls-1" d="m94.89,55.46c22.37.02,40.45,18.41,40.04,40.72-.4,22.18-19.39,40.05-41.63,39.12-5.21-.22-10.24-1.42-14.96-3.68-2.13-1.02-4.14-1.23-6.4-.63-3.56.95-7.18,1.7-10.77,2.55-2.07.49-3.03-.05-2.57-2.38.62-3.1.94-6.27,1.7-9.33.8-3.24.34-6-1.15-9.06-12.92-26.43,6.42-57.36,35.73-57.33Zm12.71,62.82c3.39.07,6.28-1.1,8.6-3.46,3.42-3.47,2.79-7.46-1.41-9.71-.84-.45-1.69-.87-2.53-1.32-5.9-3.16-6.06-2.27-8.98,1.48-1.73,2.22-3.62,2.43-6.08,1.14-5.77-3.03-10.24-7.35-13.59-12.9-1.01-1.67-1.08-3.21.44-4.54,2.73-2.38,2.99-5.09,1.46-8.24-.73-1.51-1.19-3.16-1.81-4.72-1.45-3.63-5.39-4.68-8.42-2.16-2.55,2.11-3.9,4.91-4.25,8.21-.42,3.93.55,7.53,2.42,10.94,3.49,6.35,7.87,12.02,13.49,16.6,6,4.9,12.88,7.93,20.65,8.68Z"/></svg>